M48
; DRILL file {KiCad (6.0.2)} date Thu Mar 31 17:31:18 2022
; FORMAT={-:-/ absolute / inch / decimal}
; #@! TF.CreationDate,2022-03-31T17:31:18+05:30
; #@! TF.GenerationSoftware,Kicad,Pcbnew,(6.0.2)
; #@! TF.FileFunction,NonPlated,1,2,NPTH
FMAT,2
INCH
; #@! TA.AperFunction,NonPlated,NPTH,ComponentDrill
T1C0.0256
; #@! TA.AperFunction,NonPlated,NPTH,ComponentDrill
T2C0.0689
; #@! TA.AperFunction,NonPlated,NPTH,ComponentDrill
T3C0.1181
; #@! TA.AperFunction,NonPlated,NPTH,ComponentDrill
T4C0.1200
; #@! TA.AperFunction,NonPlated,NPTH,ComponentDrill
T5C0.1570
%
G90
G05
T1
X6.7394Y-1.1451
X6.967Y-1.1451
T2
X1.3626Y-4.5242
X1.621Y-3.0242
X1.6442Y-3.774
X1.6638Y-1.5242
X1.6874Y-2.274
X1.7626Y-4.5242
X2.021Y-3.0242
X2.0442Y-3.774
X2.0638Y-1.5242
X2.0874Y-2.274
X2.4138Y-1.5242
X2.6248Y-2.2742
X2.6524Y-3.0242
X2.8138Y-1.5242
X2.863Y-3.7742
X3.0248Y-2.2742
X3.0524Y-3.0242
X3.1638Y-1.4651
X3.263Y-3.7742
X3.4375Y-2.2456
X3.465Y-3.0182
X3.5638Y-1.4651
X3.6759Y-3.8298
X3.7022Y-4.602
X3.8288Y-2.3288
X3.8562Y-3.1014
X3.9603Y-1.59
X4.0671Y-3.9129
X4.0935Y-4.6852
X4.1711Y-2.4015
X4.1986Y-3.1741
X4.3515Y-1.6731
X4.4095Y-3.9857
X4.5624Y-2.4847
X4.5899Y-3.2573
X4.6939Y-1.7459
X4.8007Y-4.0689
X4.9047Y-2.5575
X4.9288Y-3.326
X4.9859Y-4.875
X5.0851Y-1.8291
X5.1431Y-4.1416
X5.296Y-2.6406
X5.32Y-3.4092
X5.3772Y-4.9582
X5.4275Y-1.9018
X5.5343Y-4.2248
X5.6383Y-2.7134
X5.6658Y-3.486
X5.8187Y-1.985
X5.8767Y-4.2976
X6.0296Y-2.7966
X6.0571Y-3.5692
X6.0864Y-5.1094
X6.1611Y-2.0578
X6.2679Y-4.3807
X6.4777Y-5.1926
X6.5523Y-2.1409
X7.0579Y-2.9526
X7.2687Y-2.141
X7.3972Y-3.6472
X7.4491Y-2.8694
X7.66Y-2.0579
X7.7365Y-4.3419
X7.7884Y-3.5641
X7.7915Y-2.7967
X8.0023Y-1.9851
X8.1278Y-4.2587
X8.1308Y-3.4913
X8.1669Y-5.017
X8.1827Y-2.7135
X8.3936Y-1.9019
X8.4701Y-4.1859
X8.5221Y-3.4081
X8.5251Y-2.6407
X8.5581Y-4.9338
X8.7359Y-1.8292
X8.8614Y-4.1028
X8.8644Y-3.3354
X8.9163Y-2.5576
X9.1272Y-1.746
X9.2037Y-4.03
X9.2557Y-3.2522
X9.2587Y-2.4848
X9.4696Y-1.6732
X9.595Y-3.9468
X9.598Y-3.1794
X9.6499Y-2.4016
X9.7262Y-4.6854
X9.8608Y-1.5901
X9.9374Y-3.8741
X9.9893Y-3.0963
X9.9923Y-2.3289
X10.1174Y-4.6023
X10.2549Y-1.4655
X10.3286Y-3.7909
X10.3836Y-2.2457
X10.3998Y-3.0246
X10.6549Y-1.4655
X10.7755Y-3.7744
X10.7939Y-2.2746
X10.7998Y-3.0246
X11.0049Y-1.5246
X11.1501Y-3.0242
X11.1755Y-3.7744
X11.1939Y-2.2746
X11.4049Y-1.5246
X11.5439Y-2.2746
X11.5501Y-3.0242
X11.7549Y-1.5246
X11.8069Y-3.7742
X11.9439Y-2.2746
X12.1549Y-1.5246
X12.2069Y-3.7742
X12.2752Y-4.7117
X12.3692Y-3.025
X12.4821Y-2.274
X12.5049Y-1.5246
X12.6752Y-4.7117
X12.7692Y-3.025
X12.8821Y-2.274
X12.9049Y-1.5246
X13.0252Y-3.9617
X13.0252Y-4.7117
X13.4252Y-3.9617
X13.4252Y-4.7117
X13.4426Y-1.3374
X13.6067Y-2.0871
X13.7748Y-2.8371
X13.7752Y-4.7117
X13.8426Y-1.3374
X14.0067Y-2.0871
X14.1748Y-2.8371
X14.1752Y-4.7117
T3
X1.4126Y-4.4242
X1.6626Y-4.3242
X1.671Y-2.9242
X1.6942Y-3.674
X1.7138Y-1.4242
X1.7374Y-2.174
X1.921Y-2.8242
X1.9442Y-3.574
X1.9638Y-1.3242
X1.9874Y-2.074
X2.4638Y-1.4242
X2.6748Y-2.1742
X2.7024Y-2.9242
X2.7138Y-1.3242
X2.913Y-3.6742
X2.9248Y-2.0742
X2.9524Y-2.8242
X3.163Y-3.5742
X3.2138Y-1.3651
X3.4638Y-1.2651
X3.5072Y-2.1582
X3.5347Y-2.9308
X3.7455Y-3.7424
X3.7719Y-4.5146
X3.7725Y-2.1123
X3.8Y-2.8849
X4.0109Y-3.6965
X4.03Y-1.5025
X4.0372Y-4.4688
X4.2408Y-2.3141
X4.2683Y-3.0867
X4.2953Y-1.4567
X4.4792Y-3.8983
X4.5062Y-2.2683
X4.5336Y-3.0409
X4.7445Y-3.8525
X4.7636Y-1.6585
X4.9744Y-2.4701
X4.9985Y-3.2386
X5.0289Y-1.6126
X5.0556Y-4.7876
X5.2128Y-4.0542
X5.2398Y-2.4242
X5.2638Y-3.1928
X5.321Y-4.7418
X5.4781Y-4.0084
X5.4972Y-1.8144
X5.708Y-2.626
X5.7355Y-3.3986
X5.7625Y-1.7686
X5.9464Y-4.2102
X5.9734Y-2.5802
X6.0008Y-3.3527
X6.1561Y-5.022
X6.2117Y-4.1643
X6.2308Y-1.9703
X6.4214Y-4.9762
X6.4961Y-1.9245
X7.086Y-2.8444
X7.2968Y-2.0328
X7.3097Y-2.6946
X7.4253Y-3.539
X7.5206Y-1.883
X7.649Y-3.3892
X7.7646Y-4.2337
X7.8196Y-2.6885
X7.9884Y-4.0839
X8.0305Y-1.8769
X8.0433Y-2.5387
X8.1589Y-3.3831
X8.195Y-4.9088
X8.2542Y-1.7271
X8.3827Y-3.2333
X8.4187Y-4.759
X8.4982Y-4.0777
X8.5532Y-2.5325
X8.722Y-3.9279
X8.7641Y-1.721
X8.7769Y-2.3827
X8.8925Y-3.2272
X8.9878Y-1.5712
X9.1163Y-3.0774
X9.2319Y-3.9218
X9.2868Y-2.3766
X9.4556Y-3.772
X9.4977Y-1.565
X9.5105Y-2.2268
X9.6261Y-3.0712
X9.7214Y-1.4152
X9.7543Y-4.5772
X9.8499Y-2.9214
X9.9655Y-3.7659
X9.978Y-4.4274
X10.0204Y-2.2207
X10.1892Y-3.6161
X10.2442Y-2.0709
X10.3049Y-1.3655
X10.4498Y-2.9246
X10.5549Y-1.2655
X10.6998Y-2.8246
X10.8255Y-3.6744
X10.8439Y-2.1746
X11.0549Y-1.4246
X11.0755Y-3.5744
X11.0939Y-2.0746
X11.2001Y-2.9242
X11.3049Y-1.3246
X11.4501Y-2.8242
X11.5939Y-2.1746
X11.8049Y-1.4246
X11.8439Y-2.0746
X11.8569Y-3.6742
X12.0549Y-1.3246
X12.1069Y-3.5742
X12.3252Y-4.6117
X12.4192Y-2.925
X12.5321Y-2.174
X12.5549Y-1.4246
X12.5752Y-4.5117
X12.6692Y-2.825
X12.7821Y-2.074
X12.8049Y-1.3246
X13.0752Y-3.8617
X13.0752Y-4.6117
X13.3252Y-3.7617
X13.3252Y-4.5117
X13.4926Y-1.2374
X13.6567Y-1.9871
X13.7426Y-1.1374
X13.8248Y-2.7371
X13.8252Y-4.6117
X13.9067Y-1.8871
X14.0748Y-2.6371
X14.0752Y-4.5117
T4
X1.3742Y-3.499
X2.3142Y-3.499
X4.6647Y-5.0879
X5.5841Y-5.2833
X7.9599Y-5.3421
X8.8794Y-5.1467
X12.0992Y-3.3
X13.0392Y-3.3
T5
X1.3742Y-4.099
X1.5626Y-4.5242
X1.821Y-3.0242
X1.8442Y-3.774
X1.8638Y-1.5242
X1.8874Y-2.274
X2.3142Y-4.099
X2.6138Y-1.5242
X2.8248Y-2.2742
X2.8524Y-3.0242
X3.063Y-3.7742
X3.3638Y-1.4651
X3.6331Y-2.2872
X3.6606Y-3.0598
X3.8715Y-3.8714
X3.8979Y-4.6436
X4.1559Y-1.6315
X4.3668Y-2.4431
X4.3942Y-3.2157
X4.6051Y-4.0273
X4.7894Y-4.501
X4.8895Y-1.7875
X5.1004Y-2.5991
X5.1244Y-3.3676
X5.1816Y-4.9166
X5.3387Y-4.1832
X5.6231Y-1.9434
X5.7089Y-4.6964
X5.834Y-2.755
X5.8614Y-3.5276
X6.0723Y-4.3392
X6.2821Y-5.151
X6.3567Y-2.0993
X7.2535Y-2.911
X7.4644Y-2.0994
X7.5928Y-3.6057
X7.8352Y-4.7552
X7.9322Y-4.3003
X7.9871Y-2.7551
X8.198Y-1.9435
X8.3264Y-3.4497
X8.3625Y-4.9754
X8.6658Y-4.1444
X8.7207Y-2.5992
X8.7547Y-4.5598
X8.9316Y-1.7876
X9.06Y-3.2938
X9.3994Y-3.9884
X9.4543Y-2.4432
X9.6652Y-1.6316
X9.7936Y-3.1379
X9.9218Y-4.6438
X10.133Y-3.8325
X10.1879Y-2.2873
X10.4549Y-1.4655
X10.5998Y-3.0246
X10.9755Y-3.7744
X10.9939Y-2.2746
X11.2049Y-1.5246
X11.3501Y-3.0242
X11.7439Y-2.2746
X11.9549Y-1.5246
X12.0069Y-3.7742
X12.0992Y-2.7
X12.4752Y-4.7117
X12.5692Y-3.025
X12.6821Y-2.274
X12.7049Y-1.5246
X13.0392Y-2.7
X13.2252Y-3.9617
X13.2252Y-4.7117
X13.6426Y-1.3374
X13.8067Y-2.0871
X13.9748Y-2.8371
X13.9752Y-4.7117
T0
M30
