G04 #@! TF.GenerationSoftware,KiCad,Pcbnew,(6.0.2)*
G04 #@! TF.CreationDate,2022-03-31T17:31:01+05:30*
G04 #@! TF.ProjectId,arisu,61726973-752e-46b6-9963-61645f706362,1.1*
G04 #@! TF.SameCoordinates,Original*
G04 #@! TF.FileFunction,Soldermask,Top*
G04 #@! TF.FilePolarity,Negative*
%FSLAX46Y46*%
G04 Gerber Fmt 4.6, Leading zero omitted, Abs format (unit mm)*
G04 Created by KiCad (PCBNEW (6.0.2)) date 2022-03-31 17:31:01*
%MOMM*%
%LPD*%
G01*
G04 APERTURE LIST*
G04 Aperture macros list*
%AMRoundRect*
0 Rectangle with rounded corners*
0 $1 Rounding radius*
0 $2 $3 $4 $5 $6 $7 $8 $9 X,Y pos of 4 corners*
0 Add a 4 corners polygon primitive as box body*
4,1,4,$2,$3,$4,$5,$6,$7,$8,$9,$2,$3,0*
0 Add four circle primitives for the rounded corners*
1,1,$1+$1,$2,$3*
1,1,$1+$1,$4,$5*
1,1,$1+$1,$6,$7*
1,1,$1+$1,$8,$9*
0 Add four rect primitives between the rounded corners*
20,1,$1+$1,$2,$3,$4,$5,0*
20,1,$1+$1,$4,$5,$6,$7,0*
20,1,$1+$1,$6,$7,$8,$9,0*
20,1,$1+$1,$8,$9,$2,$3,0*%
G04 Aperture macros list end*
%ADD10C,3.102000*%
%ADD11C,1.852000*%
%ADD12C,4.089800*%
%ADD13C,3.150000*%
%ADD14C,4.502000*%
%ADD15C,1.302000*%
%ADD16RoundRect,0.051000X1.000000X-1.000000X1.000000X1.000000X-1.000000X1.000000X-1.000000X-1.000000X0*%
%ADD17C,2.102000*%
%ADD18O,2.602000X3.102000*%
%ADD19RoundRect,0.051000X1.250000X-1.500000X1.250000X1.500000X-1.250000X1.500000X-1.250000X-1.500000X0*%
%ADD20RoundRect,0.051000X-0.850000X-0.850000X0.850000X-0.850000X0.850000X0.850000X-0.850000X0.850000X0*%
%ADD21C,0.752000*%
%ADD22O,1.102000X2.202000*%
%ADD23O,1.102000X1.702000*%
G04 APERTURE END LIST*
D10*
X126961113Y-82260402D03*
D11*
X135128750Y-86593231D03*
X125190770Y-84480849D03*
D12*
X130159760Y-85537040D03*
D10*
X133700446Y-81096146D03*
D12*
X116969310Y-102293232D03*
D11*
X112000320Y-101237041D03*
D10*
X120509996Y-97852338D03*
X113770663Y-99016594D03*
D11*
X121938300Y-103349423D03*
D12*
X148880648Y-89600618D03*
D10*
X145682001Y-86323980D03*
D11*
X143911658Y-88544427D03*
X153849638Y-90656809D03*
D10*
X152421334Y-85159724D03*
D11*
X233775098Y-102361987D03*
X243713078Y-100249605D03*
D10*
X240172392Y-95808710D03*
D12*
X238744088Y-101305796D03*
D10*
X234489250Y-99613445D03*
D11*
X184625660Y-54382219D03*
D10*
X185339812Y-51633677D03*
X191022954Y-47828942D03*
D11*
X194563640Y-52269837D03*
D12*
X189594650Y-53326028D03*
D10*
X203973524Y-47672959D03*
X209656666Y-43868224D03*
D11*
X203259372Y-50421501D03*
X213197352Y-48309119D03*
D12*
X208228362Y-49365310D03*
D10*
X207236417Y-85930610D03*
D11*
X216460245Y-86566770D03*
D12*
X211491255Y-87622961D03*
D11*
X206522265Y-88679152D03*
D10*
X212919559Y-82125875D03*
D12*
X131611575Y-124882058D03*
D11*
X126642585Y-123825867D03*
D12*
X145005012Y-119289499D03*
X121650760Y-114325400D03*
D13*
X141836438Y-134196469D03*
D10*
X128412928Y-121605420D03*
D13*
X118482186Y-129232369D03*
D11*
X136580565Y-125938249D03*
D10*
X135152261Y-120441164D03*
X151723667Y-65535830D03*
D11*
X153151971Y-71032915D03*
X143213991Y-68920533D03*
D10*
X144984334Y-66700086D03*
D12*
X148182981Y-69976724D03*
D11*
X283213480Y-76814680D03*
D12*
X288293480Y-76814680D03*
D10*
X290833480Y-71734680D03*
X284483480Y-74274680D03*
D11*
X293373480Y-76814680D03*
D12*
X201476665Y-109227231D03*
D10*
X197221827Y-107534880D03*
X202904969Y-103730145D03*
D11*
X206445655Y-108171040D03*
X196507675Y-110283422D03*
X274164760Y-57775080D03*
D10*
X275434760Y-55235080D03*
D12*
X279244760Y-57775080D03*
D10*
X281784760Y-52695080D03*
D11*
X284324760Y-57775080D03*
D12*
X265554760Y-37224695D03*
D11*
X270634760Y-37224695D03*
X260474760Y-37224695D03*
D10*
X268094760Y-32144695D03*
X261744760Y-34684695D03*
X163104766Y-126394735D03*
D11*
X154595090Y-129779438D03*
D10*
X156365433Y-127558991D03*
D11*
X164533070Y-131891820D03*
D12*
X159564080Y-130835629D03*
D10*
X225870129Y-81969893D03*
X231553271Y-78165158D03*
D11*
X225155977Y-84718435D03*
D12*
X230124967Y-83662244D03*
D11*
X235093957Y-82606053D03*
X124580281Y-64959806D03*
D10*
X133089957Y-61575103D03*
X126350624Y-62739359D03*
D12*
X129549271Y-66015997D03*
D11*
X134518261Y-67072188D03*
D10*
X127733906Y-40961025D03*
D11*
X129162210Y-46458110D03*
D12*
X124193220Y-45401919D03*
D11*
X119224230Y-44345728D03*
D10*
X120994573Y-42125281D03*
D11*
X283858640Y-95869760D03*
X273698640Y-95869760D03*
D10*
X274968640Y-93329760D03*
D12*
X278778640Y-95869760D03*
D10*
X281318640Y-90789760D03*
X185666727Y-68443041D03*
X179983585Y-72247776D03*
D11*
X179269433Y-74996318D03*
X189207413Y-72883936D03*
D12*
X184238423Y-73940127D03*
D10*
X253442237Y-112456684D03*
D12*
X252013933Y-117953770D03*
D11*
X256982923Y-116897579D03*
D10*
X247759095Y-116261419D03*
D11*
X247044943Y-119009961D03*
D10*
X235884720Y-60365623D03*
D11*
X235170568Y-63114165D03*
D12*
X240139558Y-62057974D03*
D11*
X245108548Y-61001783D03*
D10*
X241567862Y-56560888D03*
D11*
X264154760Y-76825080D03*
D10*
X271774760Y-71745080D03*
D12*
X269234760Y-76825080D03*
D10*
X265424760Y-74285080D03*
D11*
X274314760Y-76825080D03*
D10*
X198617296Y-68287058D03*
D12*
X202872134Y-69979409D03*
D11*
X207841124Y-68923218D03*
D10*
X204300438Y-64482323D03*
D11*
X197903144Y-71035600D03*
D10*
X260201574Y-52600170D03*
X254518432Y-56404905D03*
D11*
X253804280Y-59153447D03*
D12*
X258773270Y-58097256D03*
D11*
X263742260Y-57041065D03*
D12*
X245495785Y-41443875D03*
D11*
X250464775Y-40387684D03*
D10*
X241240947Y-39751524D03*
X246924089Y-35946789D03*
D11*
X240526795Y-42500066D03*
D12*
X257377800Y-97345078D03*
D10*
X258806104Y-91847992D03*
D11*
X262346790Y-96288887D03*
D10*
X253122962Y-95652727D03*
D11*
X252408810Y-98401269D03*
D10*
X244503841Y-78009175D03*
D11*
X243789689Y-80757717D03*
X253727669Y-78645335D03*
D10*
X250186983Y-74204440D03*
D12*
X248758679Y-79701526D03*
D10*
X146367618Y-44921743D03*
D12*
X142826932Y-49362637D03*
D11*
X137857942Y-48306446D03*
D10*
X139628285Y-46085999D03*
D11*
X147795922Y-50418828D03*
X130634029Y-105197768D03*
D12*
X135603019Y-106253959D03*
D11*
X140572009Y-107310150D03*
D10*
X139143705Y-101813065D03*
X132404372Y-102977321D03*
D11*
X231831064Y-44348402D03*
D10*
X228290378Y-39907507D03*
D11*
X221893084Y-46460784D03*
D10*
X222607236Y-43712242D03*
D12*
X226862074Y-45404593D03*
D10*
X217251008Y-64326341D03*
D11*
X216536856Y-67074883D03*
X226474836Y-64962501D03*
D10*
X222934150Y-60521606D03*
D12*
X221505846Y-66018692D03*
X192857544Y-91583679D03*
D11*
X197826534Y-90527488D03*
D10*
X188602706Y-89891328D03*
X194285848Y-86086593D03*
D11*
X187888554Y-92639870D03*
X149267739Y-109158495D03*
D10*
X157777415Y-105773792D03*
D11*
X159205719Y-111270877D03*
D12*
X154236729Y-110214686D03*
D10*
X151038082Y-106938048D03*
X221538681Y-99769427D03*
X215855539Y-103574162D03*
D11*
X215141387Y-106322704D03*
X225079367Y-104210322D03*
D12*
X220110377Y-105266513D03*
D10*
X165001330Y-48882460D03*
X158261997Y-50046716D03*
D11*
X156491654Y-52267163D03*
X166429634Y-54379545D03*
D12*
X161460644Y-53323354D03*
D10*
X89780871Y-74441799D03*
D11*
X88010528Y-76662246D03*
X97948508Y-78774628D03*
D10*
X96520204Y-73277543D03*
D12*
X92979518Y-77718437D03*
D11*
X97250841Y-59150735D03*
D10*
X95822537Y-53653650D03*
X89083204Y-54817906D03*
D12*
X92281851Y-58094544D03*
D11*
X87312861Y-57038353D03*
D10*
X87980000Y-32134535D03*
D11*
X90520000Y-37214535D03*
X80360000Y-37214535D03*
D10*
X81630000Y-34674535D03*
D12*
X85440000Y-37214535D03*
D10*
X74290000Y-52684920D03*
D11*
X66670000Y-57764920D03*
D12*
X71750000Y-57764920D03*
D11*
X76830000Y-57764920D03*
D10*
X67940000Y-55224920D03*
D12*
X39690040Y-114914680D03*
D10*
X42230040Y-109834680D03*
X35880040Y-112374680D03*
D11*
X34610040Y-114914680D03*
X44770040Y-114914680D03*
D10*
X49880000Y-33634920D03*
X43530000Y-36174920D03*
D12*
X47340000Y-38714920D03*
D11*
X42260000Y-38714920D03*
X52420000Y-38714920D03*
D12*
X72450000Y-76814920D03*
D11*
X77530000Y-76814920D03*
D10*
X74990000Y-71734920D03*
D11*
X67370000Y-76814920D03*
D10*
X68640000Y-74274920D03*
D12*
X46253400Y-76814680D03*
D11*
X51333400Y-76814680D03*
D10*
X42443400Y-74274680D03*
X48793400Y-71734680D03*
D11*
X41173400Y-76814680D03*
X71470000Y-38714920D03*
D12*
X66390000Y-38714920D03*
D11*
X61310000Y-38714920D03*
D10*
X62580000Y-36174920D03*
X68930000Y-33634920D03*
D12*
X111613228Y-81679164D03*
D11*
X116582218Y-82735355D03*
X106644238Y-80622973D03*
D10*
X108414581Y-78402526D03*
X115153914Y-77238270D03*
X107716914Y-58778632D03*
D12*
X110915561Y-62055270D03*
D11*
X105946571Y-60999079D03*
X115884551Y-63111461D03*
D10*
X114456247Y-57614376D03*
X102546086Y-113506775D03*
D11*
X94036410Y-116891478D03*
D10*
X95806753Y-114671031D03*
D12*
X99005400Y-117947669D03*
D11*
X103974390Y-119003860D03*
D12*
X77800000Y-95864920D03*
D11*
X72720000Y-95864920D03*
D10*
X73990000Y-93324920D03*
X80340000Y-90784920D03*
D11*
X82880000Y-95864920D03*
D12*
X47939960Y-57759600D03*
D10*
X44129960Y-55219600D03*
D11*
X53019960Y-57759600D03*
D10*
X50479960Y-52679600D03*
D11*
X42859960Y-57759600D03*
X93366610Y-97276315D03*
D10*
X101876286Y-93891612D03*
D12*
X98335600Y-98332506D03*
D10*
X95136953Y-95055868D03*
D11*
X103304590Y-99388697D03*
D10*
X346879760Y-50472596D03*
X353229760Y-47932596D03*
D12*
X350689760Y-53012596D03*
D11*
X355769760Y-53012596D03*
X345609760Y-53012596D03*
D10*
X300834760Y-52695080D03*
D11*
X303374760Y-57775080D03*
D12*
X298294760Y-57775080D03*
D11*
X293214760Y-57775080D03*
D10*
X294484760Y-55235080D03*
X357499709Y-66982599D03*
D11*
X360039709Y-72062599D03*
D10*
X351149709Y-69522599D03*
D11*
X349879709Y-72062599D03*
D12*
X354959709Y-72062599D03*
D13*
X307319680Y-83820000D03*
D11*
X314177680Y-76835000D03*
D12*
X319257680Y-76835000D03*
X331195680Y-68580000D03*
D11*
X324337680Y-76835000D03*
D10*
X315447680Y-74295000D03*
D12*
X307319680Y-68580000D03*
D10*
X321797680Y-71755000D03*
D13*
X331195680Y-83820000D03*
D11*
X327784760Y-38725080D03*
X317624760Y-38725080D03*
D10*
X325244760Y-33645080D03*
D12*
X322704760Y-38725080D03*
D10*
X318894760Y-36185080D03*
X351159869Y-117137423D03*
D11*
X360049869Y-119677423D03*
X349889869Y-119677423D03*
D12*
X354969869Y-119677423D03*
D10*
X357509869Y-114597423D03*
X342712040Y-31429960D03*
X349062040Y-28889960D03*
D11*
X341442040Y-33969960D03*
D12*
X346522040Y-33969960D03*
D11*
X351602040Y-33969960D03*
D12*
X322126280Y-57759600D03*
D11*
X327206280Y-57759600D03*
D10*
X318316280Y-55219600D03*
D11*
X317046280Y-57759600D03*
D10*
X324666280Y-52679600D03*
X280794760Y-36185080D03*
D12*
X284604760Y-38725080D03*
D11*
X289684760Y-38725080D03*
X279524760Y-38725080D03*
D10*
X287144760Y-33645080D03*
X301166200Y-93324680D03*
X307516200Y-90784680D03*
D11*
X310056200Y-95864680D03*
X299896200Y-95864680D03*
D12*
X304976200Y-95864680D03*
D10*
X306194760Y-33645080D03*
D11*
X298574760Y-38725080D03*
D12*
X303654760Y-38725080D03*
D10*
X299844760Y-36185080D03*
D11*
X308734760Y-38725080D03*
D10*
X313059869Y-117137423D03*
X319409869Y-114597423D03*
D12*
X316869869Y-119677423D03*
D11*
X321949869Y-119677423D03*
X311789869Y-119677423D03*
X340999869Y-100627423D03*
D10*
X338459869Y-95547423D03*
D12*
X335919869Y-100627423D03*
D11*
X330839869Y-100627423D03*
D10*
X332109869Y-98087423D03*
D11*
X330839869Y-119677423D03*
X340999869Y-119677423D03*
D12*
X335919869Y-119677423D03*
D10*
X332109869Y-117137423D03*
X338459869Y-114597423D03*
D11*
X51922680Y-95859600D03*
D12*
X58780680Y-104114600D03*
D13*
X58780680Y-88874600D03*
D12*
X34904680Y-104114600D03*
X46842680Y-95859600D03*
D10*
X43032680Y-93319600D03*
D13*
X34904680Y-88874600D03*
D10*
X49382680Y-90779600D03*
D11*
X41762680Y-95859600D03*
D10*
X109100195Y-37000307D03*
X102360862Y-38164563D03*
D11*
X100590519Y-40385010D03*
D12*
X105559509Y-41441201D03*
D11*
X110528499Y-42497392D03*
D13*
X225536906Y-130724950D03*
D12*
X212407517Y-126374639D03*
D11*
X217376507Y-125318448D03*
D12*
X199014080Y-120782080D03*
D10*
X213835821Y-120877553D03*
D13*
X202182654Y-135689050D03*
D12*
X222368332Y-115817981D03*
D10*
X208152679Y-124682288D03*
D11*
X207438527Y-127430830D03*
D14*
X51197500Y-114920000D03*
X117932200Y-28524200D03*
X229192785Y-27932509D03*
X236982000Y-113944400D03*
X336245200Y-44704000D03*
X345449949Y-110157503D03*
X56865000Y-48245000D03*
X113157000Y-112781080D03*
D15*
X175590200Y-42214800D03*
D16*
X344006800Y-41489200D03*
D17*
X349006800Y-41489200D03*
X346506800Y-41489200D03*
D18*
X340906800Y-33989200D03*
D19*
X352106800Y-33989200D03*
D17*
X344006800Y-26989200D03*
X349006800Y-26989200D03*
D20*
X220726000Y-26416000D03*
X213106000Y-26416000D03*
X208026000Y-26416000D03*
X218186000Y-26416000D03*
X210566000Y-26416000D03*
X215646000Y-26416000D03*
X141224000Y-26416000D03*
X151384000Y-26416000D03*
X146304000Y-26416000D03*
X148844000Y-26416000D03*
X143764000Y-26416000D03*
D21*
X176961280Y-29084600D03*
X171181280Y-29084600D03*
D22*
X169751280Y-29614600D03*
D23*
X178391280Y-25434600D03*
X169751280Y-25434600D03*
D22*
X178391280Y-29614600D03*
G36*
X341453656Y-32331915D02*
G01*
X341458876Y-32340433D01*
X341616736Y-32525264D01*
X341801567Y-32683124D01*
X342008810Y-32810123D01*
X342164440Y-32874587D01*
X342165658Y-32876174D01*
X342164893Y-32878022D01*
X342163016Y-32878323D01*
X342157096Y-32876256D01*
X342087628Y-32872753D01*
X342027551Y-32907216D01*
X341995644Y-32968686D01*
X342002054Y-33037844D01*
X342006930Y-33047299D01*
X342006835Y-33049297D01*
X342005057Y-33050214D01*
X342003514Y-33049363D01*
X341901886Y-32904223D01*
X341741777Y-32744114D01*
X341556299Y-32614241D01*
X341351081Y-32518547D01*
X341298174Y-32504370D01*
X341296760Y-32502956D01*
X341297278Y-32501024D01*
X341298801Y-32500441D01*
X341367004Y-32504179D01*
X341427229Y-32469979D01*
X341459403Y-32408648D01*
X341453298Y-32339498D01*
X341450203Y-32333932D01*
X341450235Y-32331932D01*
X341451983Y-32330960D01*
X341453656Y-32331915D01*
G37*
M02*
