M48
; DRILL file {KiCad (6.0.2)} date Thu Mar 31 17:31:18 2022
; FORMAT={-:-/ absolute / inch / decimal}
; #@! TF.CreationDate,2022-03-31T17:31:18+05:30
; #@! TF.GenerationSoftware,Kicad,Pcbnew,(6.0.2)
; #@! TF.FileFunction,Plated,1,2,PTH
FMAT,2
INCH
; #@! TA.AperFunction,Plated,PTH,ViaDrill
T1C0.0157
; #@! TA.AperFunction,Plated,PTH,ComponentDrill
T2C0.0236
; #@! TA.AperFunction,Plated,PTH,ComponentDrill
T3C0.0394
; #@! TA.AperFunction,Plated,PTH,ComponentDrill
T4C0.0787
; #@! TA.AperFunction,Plated,PTH,ComponentDrill
T5C0.0866
%
G90
G05
T1
X1.15Y-2.758
X1.157Y-1.173
X1.17Y-4.775
X1.343Y-2.884
X1.351Y-1.301
X1.366Y-4.901
X1.7924Y-4.3274
X2.052Y-2.8274
X2.078Y-3.5742
X2.0946Y-1.3228
X2.1186Y-2.0728
X2.8462Y-1.3226
X2.885Y-4.497
X3.0542Y-2.0742
X3.077Y-4.623
X3.0876Y-2.8242
X3.111Y-1.062
X3.2954Y-3.5806
X3.297Y-4.677
X3.304Y-1.19
X3.5966Y-1.2658
X3.9058Y-2.136
X3.9284Y-2.9152
X4.1428Y-3.7268
X4.1654Y-4.5026
X4.331Y-4.644
X4.4232Y-1.486
X4.524Y-4.771
X4.6362Y-2.295
X4.6654Y-3.071
X4.87Y-3.8826
X5.009Y-1.079
X5.1548Y-1.6428
X5.203Y-1.206
X5.37Y-2.451
X5.3958Y-3.217
X5.4478Y-4.7754
X5.6068Y-4.0384
X5.8322Y-1.5002
X5.8448Y-1.391
X5.8924Y-1.7974
X6.08Y-1.424
X6.08Y-1.47
X6.0972Y-2.6068
X6.1Y-1.04
X6.1394Y-3.3826
X6.19Y-1.79
X6.301Y-1.094
X6.3438Y-4.1942
X6.39Y-1.199
X6.42Y-1.43
X6.42Y-1.51
X6.4985Y-1.7997
X6.499Y-1.04
X6.5024Y-1.1964
X6.5398Y-2.3394
X6.5516Y-5.0188
X6.5776Y-1.291
X6.58Y-1.565
X6.5991Y-1.7993
X6.6236Y-1.954
X6.6254Y-1.5626
X6.68Y-1.2552
X6.69Y-1.45
X6.7264Y-2.1258
X6.7808Y-2.291
X6.7834Y-2.4822
X6.8307Y-3.0118
X6.845Y-1.124
X6.9084Y-1.3086
X6.91Y-2.703
X6.91Y-2.9774
X6.948Y-5.065
X6.959Y-1.585
X6.992Y-1.705
X7.033Y-2.34
X7.0362Y-2.06
X7.13Y-1.08
X7.139Y-5.19
X7.1457Y-3.0906
X7.16Y-1.37
X7.21Y-1.08
X7.21Y-1.37
X7.21Y-1.59
X7.242Y-1.8142
X7.26Y-1.37
X7.2854Y-1.7968
X7.2933Y-3.7402
X7.3002Y-1.0306
X7.3046Y-1.1076
X7.31Y-1.37
X7.31Y-1.42
X7.34Y-1.29
X7.34Y-1.777
X7.4354Y-2.671
X7.44Y-1.798
X7.4803Y-3.7795
X7.52Y-1.37
X7.542Y-2.94
X7.544Y-1.595
X7.55Y-1.1904
X7.5694Y-1.7542
X7.6105Y-1.7191
X7.65Y-1.2652
X7.689Y-2.185
X7.7744Y-3.371
X7.788Y-1.729
X7.8248Y-2.1787
X7.909Y-1.409
X7.92Y-1.117
X8.01Y-1.2652
X8.01Y-1.44
X8.1198Y-4.0586
X8.1722Y-2.5166
X8.2196Y-2.3824
X8.3852Y-1.701
X8.4685Y-2.8343
X8.5106Y-3.2094
X8.5498Y-4.7336
X8.628Y-1.399
X8.6788Y-3.529
X8.8152Y-1.1182
X8.8512Y-3.9048
X8.893Y-4.719
X8.9026Y-2.3696
X8.9979Y-4.9799
X9.0108Y-4.2236
X9.1162Y-1.547
X9.169Y-4.83
X9.2418Y-3.0572
X9.587Y-3.751
X9.6404Y-2.2032
X9.664Y-1.278
X9.717Y-1.2
X9.722Y-1.29
X9.808Y-1.204
X9.8476Y-1.39
X9.9826Y-2.9032
X10.11Y-4.3998
X10.3186Y-3.5908
X10.375Y-2.0462
X10.6858Y-1.2708
X10.81Y-1.199
X10.8272Y-2.828
X11.2102Y-3.5814
X11.2196Y-2.0808
X11.23Y-4.602
X11.306Y-0.987
X11.424Y-4.729
X11.433Y-1.3272
X11.5786Y-2.829
X11.708Y-4.588
X11.892Y-1.199
X11.9736Y-2.0808
X12.1862Y-1.3274
X12.2378Y-3.572
X12.7036Y-4.5138
X12.7978Y-2.8238
X12.918Y-2.0808
X12.9336Y-1.3242
X13.222Y-1.072
X13.4534Y-4.5124
X13.457Y-3.7604
X13.8736Y-1.1372
X13.97Y-1.443
X14.0384Y-1.8906
X14.1578Y-3.877
X14.172Y-1.128
X14.2042Y-2.6404
X14.2054Y-4.5102
X14.222Y-1.378
X14.27Y-4.008
T3
X5.56Y-1.04
X5.66Y-1.04
X5.76Y-1.04
X5.86Y-1.04
X5.96Y-1.04
X6.913Y-1.662
X8.19Y-1.04
X8.29Y-1.04
X8.39Y-1.04
X8.49Y-1.04
X8.59Y-1.04
X8.69Y-1.04
X13.5436Y-1.0626
X13.5436Y-1.6334
X13.642Y-1.6334
X13.7404Y-1.0626
X13.7404Y-1.6334
T5
X2.0156Y-4.5244
X2.2388Y-1.8994
X4.455Y-4.4402
X4.643Y-1.123
X9.0233Y-1.0997
X9.33Y-4.486
X13.238Y-1.76
X13.6004Y-4.3369
T2
G00X6.6831Y-0.9896
M15
G01X6.6831Y-1.0132
M16
G05
G00X6.6831Y-1.1443
M15
G01X6.6831Y-1.1876
M16
G05
G00X7.0233Y-0.9896
M15
G01X7.0233Y-1.0132
M16
G05
G00X7.0233Y-1.1443
M15
G01X7.0233Y-1.1876
M16
G05
T4
G00X13.4215Y-1.348
M15
G01X13.4215Y-1.3283
M16
G05
G00X13.8625Y-1.348
M15
G01X13.8625Y-1.3283
M16
G05
T0
M30
