G04 #@! TF.GenerationSoftware,KiCad,Pcbnew,(6.0.2)*
G04 #@! TF.CreationDate,2022-03-31T17:31:01+05:30*
G04 #@! TF.ProjectId,arisu,61726973-752e-46b6-9963-61645f706362,1.1*
G04 #@! TF.SameCoordinates,Original*
G04 #@! TF.FileFunction,Legend,Top*
G04 #@! TF.FilePolarity,Positive*
%FSLAX46Y46*%
G04 Gerber Fmt 4.6, Leading zero omitted, Abs format (unit mm)*
G04 Created by KiCad (PCBNEW (6.0.2)) date 2022-03-31 17:31:01*
%MOMM*%
%LPD*%
G01*
G04 APERTURE LIST*
G04 Aperture macros list*
%AMRoundRect*
0 Rectangle with rounded corners*
0 $1 Rounding radius*
0 $2 $3 $4 $5 $6 $7 $8 $9 X,Y pos of 4 corners*
0 Add a 4 corners polygon primitive as box body*
4,1,4,$2,$3,$4,$5,$6,$7,$8,$9,$2,$3,0*
0 Add four circle primitives for the rounded corners*
1,1,$1+$1,$2,$3*
1,1,$1+$1,$4,$5*
1,1,$1+$1,$6,$7*
1,1,$1+$1,$8,$9*
0 Add four rect primitives between the rounded corners*
20,1,$1+$1,$2,$3,$4,$5,0*
20,1,$1+$1,$4,$5,$6,$7,0*
20,1,$1+$1,$6,$7,$8,$9,0*
20,1,$1+$1,$8,$9,$2,$3,0*%
G04 Aperture macros list end*
%ADD10C,0.150000*%
%ADD11C,0.010000*%
%ADD12C,0.120000*%
%ADD13C,3.102000*%
%ADD14C,1.852000*%
%ADD15C,4.089800*%
%ADD16C,3.150000*%
%ADD17C,4.502000*%
%ADD18C,1.302000*%
%ADD19RoundRect,0.051000X1.000000X-1.000000X1.000000X1.000000X-1.000000X1.000000X-1.000000X-1.000000X0*%
%ADD20C,2.102000*%
%ADD21O,2.602000X3.102000*%
%ADD22RoundRect,0.051000X1.250000X-1.500000X1.250000X1.500000X-1.250000X1.500000X-1.250000X-1.500000X0*%
%ADD23RoundRect,0.051000X-0.850000X-0.850000X0.850000X-0.850000X0.850000X0.850000X-0.850000X0.850000X0*%
%ADD24C,0.752000*%
%ADD25O,1.102000X2.202000*%
%ADD26O,1.102000X1.702000*%
G04 APERTURE END LIST*
D10*
X339711561Y-40498723D02*
X339759180Y-40355866D01*
X339759180Y-40117771D01*
X339711561Y-40022533D01*
X339663942Y-39974914D01*
X339568704Y-39927295D01*
X339473466Y-39927295D01*
X339378228Y-39974914D01*
X339330609Y-40022533D01*
X339282990Y-40117771D01*
X339235371Y-40308247D01*
X339187752Y-40403485D01*
X339140133Y-40451104D01*
X339044895Y-40498723D01*
X338949657Y-40498723D01*
X338854419Y-40451104D01*
X338806800Y-40403485D01*
X338759180Y-40308247D01*
X338759180Y-40070152D01*
X338806800Y-39927295D01*
X338759180Y-39593961D02*
X339759180Y-39355866D01*
X339044895Y-39165390D01*
X339759180Y-38974914D01*
X338759180Y-38736819D01*
X338759180Y-37927295D02*
X338759180Y-38117771D01*
X338806800Y-38213009D01*
X338854419Y-38260628D01*
X338997276Y-38355866D01*
X339187752Y-38403485D01*
X339568704Y-38403485D01*
X339663942Y-38355866D01*
X339711561Y-38308247D01*
X339759180Y-38213009D01*
X339759180Y-38022533D01*
X339711561Y-37927295D01*
X339663942Y-37879676D01*
X339568704Y-37832057D01*
X339330609Y-37832057D01*
X339235371Y-37879676D01*
X339187752Y-37927295D01*
X339140133Y-38022533D01*
X339140133Y-38213009D01*
X339187752Y-38308247D01*
X339235371Y-38355866D01*
X339330609Y-38403485D01*
X339187752Y-37260628D02*
X339140133Y-37355866D01*
X339092514Y-37403485D01*
X338997276Y-37451104D01*
X338949657Y-37451104D01*
X338854419Y-37403485D01*
X338806800Y-37355866D01*
X338759180Y-37260628D01*
X338759180Y-37070152D01*
X338806800Y-36974914D01*
X338854419Y-36927295D01*
X338949657Y-36879676D01*
X338997276Y-36879676D01*
X339092514Y-36927295D01*
X339140133Y-36974914D01*
X339187752Y-37070152D01*
X339187752Y-37260628D01*
X339235371Y-37355866D01*
X339282990Y-37403485D01*
X339378228Y-37451104D01*
X339568704Y-37451104D01*
X339663942Y-37403485D01*
X339711561Y-37355866D01*
X339759180Y-37260628D01*
X339759180Y-37070152D01*
X339711561Y-36974914D01*
X339663942Y-36927295D01*
X339568704Y-36879676D01*
X339378228Y-36879676D01*
X339282990Y-36927295D01*
X339235371Y-36974914D01*
X339187752Y-37070152D01*
D11*
X278900769Y-105524300D02*
X278868404Y-106157939D01*
X278868404Y-106157939D02*
X278818366Y-106707272D01*
X278818366Y-106707272D02*
X278747320Y-107188575D01*
X278747320Y-107188575D02*
X278651927Y-107618126D01*
X278651927Y-107618126D02*
X278528851Y-108012202D01*
X278528851Y-108012202D02*
X278374756Y-108387080D01*
X278374756Y-108387080D02*
X278269801Y-108602228D01*
X278269801Y-108602228D02*
X278026965Y-108997216D01*
X278026965Y-108997216D02*
X277710411Y-109394560D01*
X277710411Y-109394560D02*
X277343902Y-109767981D01*
X277343902Y-109767981D02*
X276951202Y-110091198D01*
X276951202Y-110091198D02*
X276874076Y-110145807D01*
X276874076Y-110145807D02*
X276686126Y-110270377D01*
X276686126Y-110270377D02*
X276490873Y-110391798D01*
X276490873Y-110391798D02*
X276309651Y-110497734D01*
X276309651Y-110497734D02*
X276163794Y-110575846D01*
X276163794Y-110575846D02*
X276074634Y-110613798D01*
X276074634Y-110613798D02*
X276061923Y-110615489D01*
X276061923Y-110615489D02*
X276019173Y-110584817D01*
X276019173Y-110584817D02*
X275913500Y-110502352D01*
X275913500Y-110502352D02*
X275760679Y-110380560D01*
X275760679Y-110380560D02*
X275576483Y-110231910D01*
X275576483Y-110231910D02*
X275571018Y-110227475D01*
X275571018Y-110227475D02*
X275094836Y-109840972D01*
X275094836Y-109840972D02*
X275456167Y-109673607D01*
X275456167Y-109673607D02*
X275966398Y-109397865D01*
X275966398Y-109397865D02*
X276426066Y-109070644D01*
X276426066Y-109070644D02*
X276821636Y-108704085D01*
X276821636Y-108704085D02*
X277139572Y-108310332D01*
X277139572Y-108310332D02*
X277320550Y-108001182D01*
X277320550Y-108001182D02*
X277442665Y-107737096D01*
X277442665Y-107737096D02*
X277537456Y-107490584D01*
X277537456Y-107490584D02*
X277608254Y-107242631D01*
X277608254Y-107242631D02*
X277658392Y-106974219D01*
X277658392Y-106974219D02*
X277691204Y-106666332D01*
X277691204Y-106666332D02*
X277710020Y-106299954D01*
X277710020Y-106299954D02*
X277718173Y-105856068D01*
X277718173Y-105856068D02*
X277718949Y-105727653D01*
X277718949Y-105727653D02*
X277723600Y-104622906D01*
X277723600Y-104622906D02*
X278328492Y-104622753D01*
X278328492Y-104622753D02*
X278933385Y-104622600D01*
X278933385Y-104622600D02*
X278900769Y-105524300D01*
X278900769Y-105524300D02*
X278900769Y-105524300D01*
G36*
X278900769Y-105524300D02*
G01*
X278868404Y-106157939D01*
X278818366Y-106707272D01*
X278747320Y-107188575D01*
X278651927Y-107618126D01*
X278528851Y-108012202D01*
X278374756Y-108387080D01*
X278269801Y-108602228D01*
X278026965Y-108997216D01*
X277710411Y-109394560D01*
X277343902Y-109767981D01*
X276951202Y-110091198D01*
X276874076Y-110145807D01*
X276686126Y-110270377D01*
X276490873Y-110391798D01*
X276309651Y-110497734D01*
X276163794Y-110575846D01*
X276074634Y-110613798D01*
X276061923Y-110615489D01*
X276019173Y-110584817D01*
X275913500Y-110502352D01*
X275760679Y-110380560D01*
X275576483Y-110231910D01*
X275571018Y-110227475D01*
X275094836Y-109840972D01*
X275456167Y-109673607D01*
X275966398Y-109397865D01*
X276426066Y-109070644D01*
X276821636Y-108704085D01*
X277139572Y-108310332D01*
X277320550Y-108001182D01*
X277442665Y-107737096D01*
X277537456Y-107490584D01*
X277608254Y-107242631D01*
X277658392Y-106974219D01*
X277691204Y-106666332D01*
X277710020Y-106299954D01*
X277718173Y-105856068D01*
X277718949Y-105727653D01*
X277723600Y-104622906D01*
X278328492Y-104622753D01*
X278933385Y-104622600D01*
X278900769Y-105524300D01*
G37*
X278900769Y-105524300D02*
X278868404Y-106157939D01*
X278818366Y-106707272D01*
X278747320Y-107188575D01*
X278651927Y-107618126D01*
X278528851Y-108012202D01*
X278374756Y-108387080D01*
X278269801Y-108602228D01*
X278026965Y-108997216D01*
X277710411Y-109394560D01*
X277343902Y-109767981D01*
X276951202Y-110091198D01*
X276874076Y-110145807D01*
X276686126Y-110270377D01*
X276490873Y-110391798D01*
X276309651Y-110497734D01*
X276163794Y-110575846D01*
X276074634Y-110613798D01*
X276061923Y-110615489D01*
X276019173Y-110584817D01*
X275913500Y-110502352D01*
X275760679Y-110380560D01*
X275576483Y-110231910D01*
X275571018Y-110227475D01*
X275094836Y-109840972D01*
X275456167Y-109673607D01*
X275966398Y-109397865D01*
X276426066Y-109070644D01*
X276821636Y-108704085D01*
X277139572Y-108310332D01*
X277320550Y-108001182D01*
X277442665Y-107737096D01*
X277537456Y-107490584D01*
X277608254Y-107242631D01*
X277658392Y-106974219D01*
X277691204Y-106666332D01*
X277710020Y-106299954D01*
X277718173Y-105856068D01*
X277718949Y-105727653D01*
X277723600Y-104622906D01*
X278328492Y-104622753D01*
X278933385Y-104622600D01*
X278900769Y-105524300D01*
X278498290Y-102675770D02*
X282397200Y-102684741D01*
X282397200Y-102684741D02*
X282714567Y-102973427D01*
X282714567Y-102973427D02*
X283031935Y-103262113D01*
X283031935Y-103262113D02*
X282887808Y-103447056D01*
X282887808Y-103447056D02*
X282796005Y-103571428D01*
X282796005Y-103571428D02*
X282669581Y-103751272D01*
X282669581Y-103751272D02*
X282529263Y-103956859D01*
X282529263Y-103956859D02*
X282457865Y-104063800D01*
X282457865Y-104063800D02*
X281952764Y-104767043D01*
X281952764Y-104767043D02*
X281402823Y-105412231D01*
X281402823Y-105412231D02*
X281221749Y-105603148D01*
X281221749Y-105603148D02*
X280997542Y-105827062D01*
X280997542Y-105827062D02*
X280774909Y-106036864D01*
X280774909Y-106036864D02*
X280567537Y-106220849D01*
X280567537Y-106220849D02*
X280389113Y-106367311D01*
X280389113Y-106367311D02*
X280253326Y-106464544D01*
X280253326Y-106464544D02*
X280173864Y-106500842D01*
X280173864Y-106500842D02*
X280172062Y-106500861D01*
X280172062Y-106500861D02*
X280108668Y-106470021D01*
X280108668Y-106470021D02*
X279987372Y-106388109D01*
X279987372Y-106388109D02*
X279828230Y-106269201D01*
X279828230Y-106269201D02*
X279719708Y-106183361D01*
X279719708Y-106183361D02*
X279553763Y-106046710D01*
X279553763Y-106046710D02*
X279422228Y-105933382D01*
X279422228Y-105933382D02*
X279342237Y-105858430D01*
X279342237Y-105858430D02*
X279326008Y-105837543D01*
X279326008Y-105837543D02*
X279363684Y-105796409D01*
X279363684Y-105796409D02*
X279464805Y-105716370D01*
X279464805Y-105716370D02*
X279607923Y-105614341D01*
X279607923Y-105614341D02*
X279615830Y-105608943D01*
X279615830Y-105608943D02*
X279819520Y-105452957D01*
X279819520Y-105452957D02*
X280064449Y-105238919D01*
X280064449Y-105238919D02*
X280329633Y-104987861D01*
X280329633Y-104987861D02*
X280594090Y-104720812D01*
X280594090Y-104720812D02*
X280836836Y-104458802D01*
X280836836Y-104458802D02*
X281036888Y-104222861D01*
X281036888Y-104222861D02*
X281147528Y-104073824D01*
X281147528Y-104073824D02*
X281363219Y-103753649D01*
X281363219Y-103753649D02*
X277981292Y-103769024D01*
X277981292Y-103769024D02*
X274599365Y-103784400D01*
X274599365Y-103784400D02*
X274599372Y-103225600D01*
X274599372Y-103225600D02*
X274599380Y-102666800D01*
X274599380Y-102666800D02*
X278498290Y-102675770D01*
X278498290Y-102675770D02*
X278498290Y-102675770D01*
G36*
X278498290Y-102675770D02*
G01*
X282397200Y-102684741D01*
X282714567Y-102973427D01*
X283031935Y-103262113D01*
X282887808Y-103447056D01*
X282796005Y-103571428D01*
X282669581Y-103751272D01*
X282529263Y-103956859D01*
X282457865Y-104063800D01*
X281952764Y-104767043D01*
X281402823Y-105412231D01*
X281221749Y-105603148D01*
X280997542Y-105827062D01*
X280774909Y-106036864D01*
X280567537Y-106220849D01*
X280389113Y-106367311D01*
X280253326Y-106464544D01*
X280173864Y-106500842D01*
X280172062Y-106500861D01*
X280108668Y-106470021D01*
X279987372Y-106388109D01*
X279828230Y-106269201D01*
X279719708Y-106183361D01*
X279553763Y-106046710D01*
X279422228Y-105933382D01*
X279342237Y-105858430D01*
X279326008Y-105837543D01*
X279363684Y-105796409D01*
X279464805Y-105716370D01*
X279607923Y-105614341D01*
X279615830Y-105608943D01*
X279819520Y-105452957D01*
X280064449Y-105238919D01*
X280329633Y-104987861D01*
X280594090Y-104720812D01*
X280836836Y-104458802D01*
X281036888Y-104222861D01*
X281147528Y-104073824D01*
X281363219Y-103753649D01*
X277981292Y-103769024D01*
X274599365Y-103784400D01*
X274599372Y-103225600D01*
X274599380Y-102666800D01*
X278498290Y-102675770D01*
G37*
X278498290Y-102675770D02*
X282397200Y-102684741D01*
X282714567Y-102973427D01*
X283031935Y-103262113D01*
X282887808Y-103447056D01*
X282796005Y-103571428D01*
X282669581Y-103751272D01*
X282529263Y-103956859D01*
X282457865Y-104063800D01*
X281952764Y-104767043D01*
X281402823Y-105412231D01*
X281221749Y-105603148D01*
X280997542Y-105827062D01*
X280774909Y-106036864D01*
X280567537Y-106220849D01*
X280389113Y-106367311D01*
X280253326Y-106464544D01*
X280173864Y-106500842D01*
X280172062Y-106500861D01*
X280108668Y-106470021D01*
X279987372Y-106388109D01*
X279828230Y-106269201D01*
X279719708Y-106183361D01*
X279553763Y-106046710D01*
X279422228Y-105933382D01*
X279342237Y-105858430D01*
X279326008Y-105837543D01*
X279363684Y-105796409D01*
X279464805Y-105716370D01*
X279607923Y-105614341D01*
X279615830Y-105608943D01*
X279819520Y-105452957D01*
X280064449Y-105238919D01*
X280329633Y-104987861D01*
X280594090Y-104720812D01*
X280836836Y-104458802D01*
X281036888Y-104222861D01*
X281147528Y-104073824D01*
X281363219Y-103753649D01*
X277981292Y-103769024D01*
X274599365Y-103784400D01*
X274599372Y-103225600D01*
X274599380Y-102666800D01*
X278498290Y-102675770D01*
X285851600Y-107467400D02*
X285267400Y-107467401D01*
X285267400Y-107467401D02*
X284683200Y-107467403D01*
X284683200Y-107467403D02*
X284683200Y-102438203D01*
X284683200Y-102438203D02*
X285267400Y-102438201D01*
X285267400Y-102438201D02*
X285851600Y-102438200D01*
X285851600Y-102438200D02*
X285851600Y-107467400D01*
X285851600Y-107467400D02*
X285851600Y-107467400D01*
G36*
X285851600Y-107467400D02*
G01*
X285267400Y-107467401D01*
X284683200Y-107467403D01*
X284683200Y-102438203D01*
X285267400Y-102438201D01*
X285851600Y-102438200D01*
X285851600Y-107467400D01*
G37*
X285851600Y-107467400D02*
X285267400Y-107467401D01*
X284683200Y-107467403D01*
X284683200Y-102438203D01*
X285267400Y-102438201D01*
X285851600Y-102438200D01*
X285851600Y-107467400D01*
X298779301Y-102888280D02*
X299076965Y-103097080D01*
X299076965Y-103097080D02*
X299374630Y-103305880D01*
X299374630Y-103305880D02*
X298836115Y-104383443D01*
X298836115Y-104383443D02*
X298655670Y-104735082D01*
X298655670Y-104735082D02*
X298460895Y-105098488D01*
X298460895Y-105098488D02*
X298265382Y-105449395D01*
X298265382Y-105449395D02*
X298082723Y-105763533D01*
X298082723Y-105763533D02*
X297926512Y-106016636D01*
X297926512Y-106016636D02*
X297891204Y-106070503D01*
X297891204Y-106070503D02*
X297745384Y-106289883D01*
X297745384Y-106289883D02*
X297620556Y-106478975D01*
X297620556Y-106478975D02*
X297527205Y-106621798D01*
X297527205Y-106621798D02*
X297475816Y-106702369D01*
X297475816Y-106702369D02*
X297469424Y-106713440D01*
X297469424Y-106713440D02*
X297499962Y-106756605D01*
X297499962Y-106756605D02*
X297593920Y-106860707D01*
X297593920Y-106860707D02*
X297741812Y-107015922D01*
X297741812Y-107015922D02*
X297934154Y-107212425D01*
X297934154Y-107212425D02*
X298161459Y-107440390D01*
X298161459Y-107440390D02*
X298376783Y-107653240D01*
X298376783Y-107653240D02*
X298678104Y-107952650D01*
X298678104Y-107952650D02*
X298977419Y-108256400D01*
X298977419Y-108256400D02*
X299266188Y-108555244D01*
X299266188Y-108555244D02*
X299535870Y-108839937D01*
X299535870Y-108839937D02*
X299777922Y-109101237D01*
X299777922Y-109101237D02*
X299983804Y-109329898D01*
X299983804Y-109329898D02*
X300144975Y-109516675D01*
X300144975Y-109516675D02*
X300252894Y-109652326D01*
X300252894Y-109652326D02*
X300299019Y-109727604D01*
X300299019Y-109727604D02*
X300300056Y-109734873D01*
X300300056Y-109734873D02*
X300261765Y-109785340D01*
X300261765Y-109785340D02*
X300163778Y-109882889D01*
X300163778Y-109882889D02*
X300025392Y-110010702D01*
X300025392Y-110010702D02*
X299865903Y-110151963D01*
X299865903Y-110151963D02*
X299704608Y-110289858D01*
X299704608Y-110289858D02*
X299560802Y-110407569D01*
X299560802Y-110407569D02*
X299453782Y-110488280D01*
X299453782Y-110488280D02*
X299404409Y-110515400D01*
X299404409Y-110515400D02*
X299358227Y-110477932D01*
X299358227Y-110477932D02*
X299261429Y-110374907D01*
X299261429Y-110374907D02*
X299126508Y-110220393D01*
X299126508Y-110220393D02*
X298965955Y-110028459D01*
X298965955Y-110028459D02*
X298896982Y-109943900D01*
X298896982Y-109943900D02*
X298646092Y-109642536D01*
X298646092Y-109642536D02*
X298359360Y-109312096D01*
X298359360Y-109312096D02*
X298053584Y-108970805D01*
X298053584Y-108970805D02*
X297745560Y-108636891D01*
X297745560Y-108636891D02*
X297452085Y-108328580D01*
X297452085Y-108328580D02*
X297189957Y-108064098D01*
X297189957Y-108064098D02*
X296988485Y-107872946D01*
X296988485Y-107872946D02*
X296695370Y-107607750D01*
X296695370Y-107607750D02*
X296099485Y-108185897D01*
X296099485Y-108185897D02*
X295431575Y-108789268D01*
X295431575Y-108789268D02*
X294718975Y-109350537D01*
X294718975Y-109350537D02*
X293985162Y-109852709D01*
X293985162Y-109852709D02*
X293253610Y-110278787D01*
X293253610Y-110278787D02*
X293096587Y-110359977D01*
X293096587Y-110359977D02*
X292802184Y-110508591D01*
X292802184Y-110508591D02*
X292387592Y-110091834D01*
X292387592Y-110091834D02*
X292224222Y-109925165D01*
X292224222Y-109925165D02*
X292091177Y-109784773D01*
X292091177Y-109784773D02*
X292002727Y-109686042D01*
X292002727Y-109686042D02*
X291973000Y-109645006D01*
X291973000Y-109645006D02*
X292016069Y-109613183D01*
X292016069Y-109613183D02*
X292134638Y-109545701D01*
X292134638Y-109545701D02*
X292312750Y-109451152D01*
X292312750Y-109451152D02*
X292534446Y-109338130D01*
X292534446Y-109338130D02*
X292646100Y-109282583D01*
X292646100Y-109282583D02*
X293436512Y-108847963D01*
X293436512Y-108847963D02*
X294206604Y-108338449D01*
X294206604Y-108338449D02*
X294939869Y-107767825D01*
X294939869Y-107767825D02*
X295619805Y-107149874D01*
X295619805Y-107149874D02*
X296229907Y-106498378D01*
X296229907Y-106498378D02*
X296710106Y-105888533D01*
X296710106Y-105888533D02*
X296836379Y-105700721D01*
X296836379Y-105700721D02*
X296980329Y-105467888D01*
X296980329Y-105467888D02*
X297132766Y-105207113D01*
X297132766Y-105207113D02*
X297284504Y-104935473D01*
X297284504Y-104935473D02*
X297426352Y-104670046D01*
X297426352Y-104670046D02*
X297549121Y-104427912D01*
X297549121Y-104427912D02*
X297643624Y-104226149D01*
X297643624Y-104226149D02*
X297700672Y-104081835D01*
X297700672Y-104081835D02*
X297713400Y-104023787D01*
X297713400Y-104023787D02*
X297703644Y-104005873D01*
X297703644Y-104005873D02*
X297668779Y-103991339D01*
X297668779Y-103991339D02*
X297600409Y-103980013D01*
X297600409Y-103980013D02*
X297490135Y-103971724D01*
X297490135Y-103971724D02*
X297329562Y-103966302D01*
X297329562Y-103966302D02*
X297110291Y-103963575D01*
X297110291Y-103963575D02*
X296823926Y-103963372D01*
X296823926Y-103963372D02*
X296462070Y-103965524D01*
X296462070Y-103965524D02*
X296016326Y-103969858D01*
X296016326Y-103969858D02*
X295478296Y-103976204D01*
X295478296Y-103976204D02*
X295414700Y-103976998D01*
X295414700Y-103976998D02*
X294937388Y-103983703D01*
X294937388Y-103983703D02*
X294488588Y-103991397D01*
X294488588Y-103991397D02*
X294079091Y-103999797D01*
X294079091Y-103999797D02*
X293719688Y-104008615D01*
X293719688Y-104008615D02*
X293421169Y-104017569D01*
X293421169Y-104017569D02*
X293194326Y-104026372D01*
X293194326Y-104026372D02*
X293049949Y-104034740D01*
X293049949Y-104034740D02*
X293001700Y-104040727D01*
X293001700Y-104040727D02*
X292953325Y-104052568D01*
X292953325Y-104052568D02*
X292920985Y-104042285D01*
X292920985Y-104042285D02*
X292901451Y-103993836D01*
X292901451Y-103993836D02*
X292891496Y-103891185D01*
X292891496Y-103891185D02*
X292887890Y-103718291D01*
X292887890Y-103718291D02*
X292887407Y-103472824D01*
X292887407Y-103472824D02*
X292887415Y-102870000D01*
X292887415Y-102870000D02*
X298779301Y-102888280D01*
X298779301Y-102888280D02*
X298779301Y-102888280D01*
G36*
X298779301Y-102888280D02*
G01*
X299076965Y-103097080D01*
X299374630Y-103305880D01*
X298836115Y-104383443D01*
X298655670Y-104735082D01*
X298460895Y-105098488D01*
X298265382Y-105449395D01*
X298082723Y-105763533D01*
X297926512Y-106016636D01*
X297891204Y-106070503D01*
X297745384Y-106289883D01*
X297620556Y-106478975D01*
X297527205Y-106621798D01*
X297475816Y-106702369D01*
X297469424Y-106713440D01*
X297499962Y-106756605D01*
X297593920Y-106860707D01*
X297741812Y-107015922D01*
X297934154Y-107212425D01*
X298161459Y-107440390D01*
X298376783Y-107653240D01*
X298678104Y-107952650D01*
X298977419Y-108256400D01*
X299266188Y-108555244D01*
X299535870Y-108839937D01*
X299777922Y-109101237D01*
X299983804Y-109329898D01*
X300144975Y-109516675D01*
X300252894Y-109652326D01*
X300299019Y-109727604D01*
X300300056Y-109734873D01*
X300261765Y-109785340D01*
X300163778Y-109882889D01*
X300025392Y-110010702D01*
X299865903Y-110151963D01*
X299704608Y-110289858D01*
X299560802Y-110407569D01*
X299453782Y-110488280D01*
X299404409Y-110515400D01*
X299358227Y-110477932D01*
X299261429Y-110374907D01*
X299126508Y-110220393D01*
X298965955Y-110028459D01*
X298896982Y-109943900D01*
X298646092Y-109642536D01*
X298359360Y-109312096D01*
X298053584Y-108970805D01*
X297745560Y-108636891D01*
X297452085Y-108328580D01*
X297189957Y-108064098D01*
X296988485Y-107872946D01*
X296695370Y-107607750D01*
X296099485Y-108185897D01*
X295431575Y-108789268D01*
X294718975Y-109350537D01*
X293985162Y-109852709D01*
X293253610Y-110278787D01*
X293096587Y-110359977D01*
X292802184Y-110508591D01*
X292387592Y-110091834D01*
X292224222Y-109925165D01*
X292091177Y-109784773D01*
X292002727Y-109686042D01*
X291973000Y-109645006D01*
X292016069Y-109613183D01*
X292134638Y-109545701D01*
X292312750Y-109451152D01*
X292534446Y-109338130D01*
X292646100Y-109282583D01*
X293436512Y-108847963D01*
X294206604Y-108338449D01*
X294939869Y-107767825D01*
X295619805Y-107149874D01*
X296229907Y-106498378D01*
X296710106Y-105888533D01*
X296836379Y-105700721D01*
X296980329Y-105467888D01*
X297132766Y-105207113D01*
X297284504Y-104935473D01*
X297426352Y-104670046D01*
X297549121Y-104427912D01*
X297643624Y-104226149D01*
X297700672Y-104081835D01*
X297713400Y-104023787D01*
X297703644Y-104005873D01*
X297668779Y-103991339D01*
X297600409Y-103980013D01*
X297490135Y-103971724D01*
X297329562Y-103966302D01*
X297110291Y-103963575D01*
X296823926Y-103963372D01*
X296462070Y-103965524D01*
X296016326Y-103969858D01*
X295478296Y-103976204D01*
X295414700Y-103976998D01*
X294937388Y-103983703D01*
X294488588Y-103991397D01*
X294079091Y-103999797D01*
X293719688Y-104008615D01*
X293421169Y-104017569D01*
X293194326Y-104026372D01*
X293049949Y-104034740D01*
X293001700Y-104040727D01*
X292953325Y-104052568D01*
X292920985Y-104042285D01*
X292901451Y-103993836D01*
X292891496Y-103891185D01*
X292887890Y-103718291D01*
X292887407Y-103472824D01*
X292887415Y-102870000D01*
X298779301Y-102888280D01*
G37*
X298779301Y-102888280D02*
X299076965Y-103097080D01*
X299374630Y-103305880D01*
X298836115Y-104383443D01*
X298655670Y-104735082D01*
X298460895Y-105098488D01*
X298265382Y-105449395D01*
X298082723Y-105763533D01*
X297926512Y-106016636D01*
X297891204Y-106070503D01*
X297745384Y-106289883D01*
X297620556Y-106478975D01*
X297527205Y-106621798D01*
X297475816Y-106702369D01*
X297469424Y-106713440D01*
X297499962Y-106756605D01*
X297593920Y-106860707D01*
X297741812Y-107015922D01*
X297934154Y-107212425D01*
X298161459Y-107440390D01*
X298376783Y-107653240D01*
X298678104Y-107952650D01*
X298977419Y-108256400D01*
X299266188Y-108555244D01*
X299535870Y-108839937D01*
X299777922Y-109101237D01*
X299983804Y-109329898D01*
X300144975Y-109516675D01*
X300252894Y-109652326D01*
X300299019Y-109727604D01*
X300300056Y-109734873D01*
X300261765Y-109785340D01*
X300163778Y-109882889D01*
X300025392Y-110010702D01*
X299865903Y-110151963D01*
X299704608Y-110289858D01*
X299560802Y-110407569D01*
X299453782Y-110488280D01*
X299404409Y-110515400D01*
X299358227Y-110477932D01*
X299261429Y-110374907D01*
X299126508Y-110220393D01*
X298965955Y-110028459D01*
X298896982Y-109943900D01*
X298646092Y-109642536D01*
X298359360Y-109312096D01*
X298053584Y-108970805D01*
X297745560Y-108636891D01*
X297452085Y-108328580D01*
X297189957Y-108064098D01*
X296988485Y-107872946D01*
X296695370Y-107607750D01*
X296099485Y-108185897D01*
X295431575Y-108789268D01*
X294718975Y-109350537D01*
X293985162Y-109852709D01*
X293253610Y-110278787D01*
X293096587Y-110359977D01*
X292802184Y-110508591D01*
X292387592Y-110091834D01*
X292224222Y-109925165D01*
X292091177Y-109784773D01*
X292002727Y-109686042D01*
X291973000Y-109645006D01*
X292016069Y-109613183D01*
X292134638Y-109545701D01*
X292312750Y-109451152D01*
X292534446Y-109338130D01*
X292646100Y-109282583D01*
X293436512Y-108847963D01*
X294206604Y-108338449D01*
X294939869Y-107767825D01*
X295619805Y-107149874D01*
X296229907Y-106498378D01*
X296710106Y-105888533D01*
X296836379Y-105700721D01*
X296980329Y-105467888D01*
X297132766Y-105207113D01*
X297284504Y-104935473D01*
X297426352Y-104670046D01*
X297549121Y-104427912D01*
X297643624Y-104226149D01*
X297700672Y-104081835D01*
X297713400Y-104023787D01*
X297703644Y-104005873D01*
X297668779Y-103991339D01*
X297600409Y-103980013D01*
X297490135Y-103971724D01*
X297329562Y-103966302D01*
X297110291Y-103963575D01*
X296823926Y-103963372D01*
X296462070Y-103965524D01*
X296016326Y-103969858D01*
X295478296Y-103976204D01*
X295414700Y-103976998D01*
X294937388Y-103983703D01*
X294488588Y-103991397D01*
X294079091Y-103999797D01*
X293719688Y-104008615D01*
X293421169Y-104017569D01*
X293194326Y-104026372D01*
X293049949Y-104034740D01*
X293001700Y-104040727D01*
X292953325Y-104052568D01*
X292920985Y-104042285D01*
X292901451Y-103993836D01*
X292891496Y-103891185D01*
X292887890Y-103718291D01*
X292887407Y-103472824D01*
X292887415Y-102870000D01*
X298779301Y-102888280D01*
X290549473Y-103543100D02*
X290544069Y-104357208D01*
X290544069Y-104357208D02*
X290529017Y-105077370D01*
X290529017Y-105077370D02*
X290503636Y-105710844D01*
X290503636Y-105710844D02*
X290467247Y-106264887D01*
X290467247Y-106264887D02*
X290419169Y-106746756D01*
X290419169Y-106746756D02*
X290358721Y-107163709D01*
X290358721Y-107163709D02*
X290285225Y-107523004D01*
X290285225Y-107523004D02*
X290197999Y-107831898D01*
X290197999Y-107831898D02*
X290130081Y-108017888D01*
X290130081Y-108017888D02*
X289853298Y-108568548D01*
X289853298Y-108568548D02*
X289487324Y-109074856D01*
X289487324Y-109074856D02*
X289036094Y-109533086D01*
X289036094Y-109533086D02*
X288503540Y-109939516D01*
X288503540Y-109939516D02*
X287893597Y-110290419D01*
X287893597Y-110290419D02*
X287574093Y-110438207D01*
X287574093Y-110438207D02*
X287322350Y-110546417D01*
X287322350Y-110546417D02*
X287141491Y-110614100D01*
X287141491Y-110614100D02*
X287007230Y-110636301D01*
X287007230Y-110636301D02*
X286895284Y-110608067D01*
X286895284Y-110608067D02*
X286781367Y-110524442D01*
X286781367Y-110524442D02*
X286641194Y-110380474D01*
X286641194Y-110380474D02*
X286493058Y-110217674D01*
X286493058Y-110217674D02*
X286075990Y-109760832D01*
X286075990Y-109760832D02*
X286505027Y-109629967D01*
X286505027Y-109629967D02*
X286912586Y-109484159D01*
X286912586Y-109484159D02*
X287328526Y-109297248D01*
X287328526Y-109297248D02*
X287719828Y-109085976D01*
X287719828Y-109085976D02*
X288053473Y-108867083D01*
X288053473Y-108867083D02*
X288137600Y-108802261D01*
X288137600Y-108802261D02*
X288392467Y-108567095D01*
X288392467Y-108567095D02*
X288640253Y-108285561D01*
X288640253Y-108285561D02*
X288858676Y-107986732D01*
X288858676Y-107986732D02*
X289025455Y-107699680D01*
X289025455Y-107699680D02*
X289082764Y-107569000D01*
X289082764Y-107569000D02*
X289146296Y-107396365D01*
X289146296Y-107396365D02*
X289199094Y-107236845D01*
X289199094Y-107236845D02*
X289242151Y-107079079D01*
X289242151Y-107079079D02*
X289276465Y-106911708D01*
X289276465Y-106911708D02*
X289303031Y-106723372D01*
X289303031Y-106723372D02*
X289322846Y-106502712D01*
X289322846Y-106502712D02*
X289336904Y-106238366D01*
X289336904Y-106238366D02*
X289346201Y-105918977D01*
X289346201Y-105918977D02*
X289351734Y-105533183D01*
X289351734Y-105533183D02*
X289354499Y-105069626D01*
X289354499Y-105069626D02*
X289355490Y-104516944D01*
X289355490Y-104516944D02*
X289355530Y-104457504D01*
X289355530Y-104457504D02*
X289356800Y-102336609D01*
X289356800Y-102336609D02*
X289953700Y-102336604D01*
X289953700Y-102336604D02*
X290550600Y-102336600D01*
X290550600Y-102336600D02*
X290549473Y-103543100D01*
X290549473Y-103543100D02*
X290549473Y-103543100D01*
G36*
X290549473Y-103543100D02*
G01*
X290544069Y-104357208D01*
X290529017Y-105077370D01*
X290503636Y-105710844D01*
X290467247Y-106264887D01*
X290419169Y-106746756D01*
X290358721Y-107163709D01*
X290285225Y-107523004D01*
X290197999Y-107831898D01*
X290130081Y-108017888D01*
X289853298Y-108568548D01*
X289487324Y-109074856D01*
X289036094Y-109533086D01*
X288503540Y-109939516D01*
X287893597Y-110290419D01*
X287574093Y-110438207D01*
X287322350Y-110546417D01*
X287141491Y-110614100D01*
X287007230Y-110636301D01*
X286895284Y-110608067D01*
X286781367Y-110524442D01*
X286641194Y-110380474D01*
X286493058Y-110217674D01*
X286075990Y-109760832D01*
X286505027Y-109629967D01*
X286912586Y-109484159D01*
X287328526Y-109297248D01*
X287719828Y-109085976D01*
X288053473Y-108867083D01*
X288137600Y-108802261D01*
X288392467Y-108567095D01*
X288640253Y-108285561D01*
X288858676Y-107986732D01*
X289025455Y-107699680D01*
X289082764Y-107569000D01*
X289146296Y-107396365D01*
X289199094Y-107236845D01*
X289242151Y-107079079D01*
X289276465Y-106911708D01*
X289303031Y-106723372D01*
X289322846Y-106502712D01*
X289336904Y-106238366D01*
X289346201Y-105918977D01*
X289351734Y-105533183D01*
X289354499Y-105069626D01*
X289355490Y-104516944D01*
X289355530Y-104457504D01*
X289356800Y-102336609D01*
X289953700Y-102336604D01*
X290550600Y-102336600D01*
X290549473Y-103543100D01*
G37*
X290549473Y-103543100D02*
X290544069Y-104357208D01*
X290529017Y-105077370D01*
X290503636Y-105710844D01*
X290467247Y-106264887D01*
X290419169Y-106746756D01*
X290358721Y-107163709D01*
X290285225Y-107523004D01*
X290197999Y-107831898D01*
X290130081Y-108017888D01*
X289853298Y-108568548D01*
X289487324Y-109074856D01*
X289036094Y-109533086D01*
X288503540Y-109939516D01*
X287893597Y-110290419D01*
X287574093Y-110438207D01*
X287322350Y-110546417D01*
X287141491Y-110614100D01*
X287007230Y-110636301D01*
X286895284Y-110608067D01*
X286781367Y-110524442D01*
X286641194Y-110380474D01*
X286493058Y-110217674D01*
X286075990Y-109760832D01*
X286505027Y-109629967D01*
X286912586Y-109484159D01*
X287328526Y-109297248D01*
X287719828Y-109085976D01*
X288053473Y-108867083D01*
X288137600Y-108802261D01*
X288392467Y-108567095D01*
X288640253Y-108285561D01*
X288858676Y-107986732D01*
X289025455Y-107699680D01*
X289082764Y-107569000D01*
X289146296Y-107396365D01*
X289199094Y-107236845D01*
X289242151Y-107079079D01*
X289276465Y-106911708D01*
X289303031Y-106723372D01*
X289322846Y-106502712D01*
X289336904Y-106238366D01*
X289346201Y-105918977D01*
X289351734Y-105533183D01*
X289354499Y-105069626D01*
X289355490Y-104516944D01*
X289355530Y-104457504D01*
X289356800Y-102336609D01*
X289953700Y-102336604D01*
X290550600Y-102336600D01*
X290549473Y-103543100D01*
D12*
X340206800Y-40689200D02*
X342706800Y-40689200D01*
X352806800Y-27289200D02*
X352806800Y-32189200D01*
X340206800Y-35889200D02*
X340206800Y-40689200D01*
X346006800Y-33989200D02*
X347006800Y-33989200D01*
X346506800Y-34489200D02*
X346506800Y-33489200D01*
X342706800Y-41489200D02*
X342406800Y-41789200D01*
X350206800Y-27289200D02*
X352806800Y-27289200D01*
X342406800Y-41789200D02*
X342406800Y-41189200D01*
X340206800Y-27289200D02*
X342806800Y-27289200D01*
X352806800Y-35789200D02*
X352806800Y-40689200D01*
X342406800Y-41189200D02*
X342706800Y-41489200D01*
X345206800Y-27289200D02*
X347806800Y-27289200D01*
X340206800Y-32189200D02*
X340206800Y-27289200D01*
X352806800Y-40689200D02*
X350006800Y-40689200D01*
X349506800Y-33989200D02*
G75*
G03*
X349506800Y-33989200I-3000000J0D01*
G01*
%LPC*%
D13*
X126961113Y-82260402D03*
D14*
X135128750Y-86593231D03*
X125190770Y-84480849D03*
D15*
X130159760Y-85537040D03*
D13*
X133700446Y-81096146D03*
D15*
X116969310Y-102293232D03*
D14*
X112000320Y-101237041D03*
D13*
X120509996Y-97852338D03*
X113770663Y-99016594D03*
D14*
X121938300Y-103349423D03*
D15*
X148880648Y-89600618D03*
D13*
X145682001Y-86323980D03*
D14*
X143911658Y-88544427D03*
X153849638Y-90656809D03*
D13*
X152421334Y-85159724D03*
D14*
X233775098Y-102361987D03*
X243713078Y-100249605D03*
D13*
X240172392Y-95808710D03*
D15*
X238744088Y-101305796D03*
D13*
X234489250Y-99613445D03*
D14*
X184625660Y-54382219D03*
D13*
X185339812Y-51633677D03*
X191022954Y-47828942D03*
D14*
X194563640Y-52269837D03*
D15*
X189594650Y-53326028D03*
D13*
X203973524Y-47672959D03*
X209656666Y-43868224D03*
D14*
X203259372Y-50421501D03*
X213197352Y-48309119D03*
D15*
X208228362Y-49365310D03*
D13*
X207236417Y-85930610D03*
D14*
X216460245Y-86566770D03*
D15*
X211491255Y-87622961D03*
D14*
X206522265Y-88679152D03*
D13*
X212919559Y-82125875D03*
D15*
X131611575Y-124882058D03*
D14*
X126642585Y-123825867D03*
D15*
X145005012Y-119289499D03*
X121650760Y-114325400D03*
D16*
X141836438Y-134196469D03*
D13*
X128412928Y-121605420D03*
D16*
X118482186Y-129232369D03*
D14*
X136580565Y-125938249D03*
D13*
X135152261Y-120441164D03*
X151723667Y-65535830D03*
D14*
X153151971Y-71032915D03*
X143213991Y-68920533D03*
D13*
X144984334Y-66700086D03*
D15*
X148182981Y-69976724D03*
D14*
X283213480Y-76814680D03*
D15*
X288293480Y-76814680D03*
D13*
X290833480Y-71734680D03*
X284483480Y-74274680D03*
D14*
X293373480Y-76814680D03*
D15*
X201476665Y-109227231D03*
D13*
X197221827Y-107534880D03*
X202904969Y-103730145D03*
D14*
X206445655Y-108171040D03*
X196507675Y-110283422D03*
X274164760Y-57775080D03*
D13*
X275434760Y-55235080D03*
D15*
X279244760Y-57775080D03*
D13*
X281784760Y-52695080D03*
D14*
X284324760Y-57775080D03*
D15*
X265554760Y-37224695D03*
D14*
X270634760Y-37224695D03*
X260474760Y-37224695D03*
D13*
X268094760Y-32144695D03*
X261744760Y-34684695D03*
X163104766Y-126394735D03*
D14*
X154595090Y-129779438D03*
D13*
X156365433Y-127558991D03*
D14*
X164533070Y-131891820D03*
D15*
X159564080Y-130835629D03*
D13*
X225870129Y-81969893D03*
X231553271Y-78165158D03*
D14*
X225155977Y-84718435D03*
D15*
X230124967Y-83662244D03*
D14*
X235093957Y-82606053D03*
X124580281Y-64959806D03*
D13*
X133089957Y-61575103D03*
X126350624Y-62739359D03*
D15*
X129549271Y-66015997D03*
D14*
X134518261Y-67072188D03*
D13*
X127733906Y-40961025D03*
D14*
X129162210Y-46458110D03*
D15*
X124193220Y-45401919D03*
D14*
X119224230Y-44345728D03*
D13*
X120994573Y-42125281D03*
D14*
X283858640Y-95869760D03*
X273698640Y-95869760D03*
D13*
X274968640Y-93329760D03*
D15*
X278778640Y-95869760D03*
D13*
X281318640Y-90789760D03*
X185666727Y-68443041D03*
X179983585Y-72247776D03*
D14*
X179269433Y-74996318D03*
X189207413Y-72883936D03*
D15*
X184238423Y-73940127D03*
D13*
X253442237Y-112456684D03*
D15*
X252013933Y-117953770D03*
D14*
X256982923Y-116897579D03*
D13*
X247759095Y-116261419D03*
D14*
X247044943Y-119009961D03*
D13*
X235884720Y-60365623D03*
D14*
X235170568Y-63114165D03*
D15*
X240139558Y-62057974D03*
D14*
X245108548Y-61001783D03*
D13*
X241567862Y-56560888D03*
D14*
X264154760Y-76825080D03*
D13*
X271774760Y-71745080D03*
D15*
X269234760Y-76825080D03*
D13*
X265424760Y-74285080D03*
D14*
X274314760Y-76825080D03*
D13*
X198617296Y-68287058D03*
D15*
X202872134Y-69979409D03*
D14*
X207841124Y-68923218D03*
D13*
X204300438Y-64482323D03*
D14*
X197903144Y-71035600D03*
D13*
X260201574Y-52600170D03*
X254518432Y-56404905D03*
D14*
X253804280Y-59153447D03*
D15*
X258773270Y-58097256D03*
D14*
X263742260Y-57041065D03*
D15*
X245495785Y-41443875D03*
D14*
X250464775Y-40387684D03*
D13*
X241240947Y-39751524D03*
X246924089Y-35946789D03*
D14*
X240526795Y-42500066D03*
D15*
X257377800Y-97345078D03*
D13*
X258806104Y-91847992D03*
D14*
X262346790Y-96288887D03*
D13*
X253122962Y-95652727D03*
D14*
X252408810Y-98401269D03*
D13*
X244503841Y-78009175D03*
D14*
X243789689Y-80757717D03*
X253727669Y-78645335D03*
D13*
X250186983Y-74204440D03*
D15*
X248758679Y-79701526D03*
D13*
X146367618Y-44921743D03*
D15*
X142826932Y-49362637D03*
D14*
X137857942Y-48306446D03*
D13*
X139628285Y-46085999D03*
D14*
X147795922Y-50418828D03*
X130634029Y-105197768D03*
D15*
X135603019Y-106253959D03*
D14*
X140572009Y-107310150D03*
D13*
X139143705Y-101813065D03*
X132404372Y-102977321D03*
D14*
X231831064Y-44348402D03*
D13*
X228290378Y-39907507D03*
D14*
X221893084Y-46460784D03*
D13*
X222607236Y-43712242D03*
D15*
X226862074Y-45404593D03*
D13*
X217251008Y-64326341D03*
D14*
X216536856Y-67074883D03*
X226474836Y-64962501D03*
D13*
X222934150Y-60521606D03*
D15*
X221505846Y-66018692D03*
X192857544Y-91583679D03*
D14*
X197826534Y-90527488D03*
D13*
X188602706Y-89891328D03*
X194285848Y-86086593D03*
D14*
X187888554Y-92639870D03*
X149267739Y-109158495D03*
D13*
X157777415Y-105773792D03*
D14*
X159205719Y-111270877D03*
D15*
X154236729Y-110214686D03*
D13*
X151038082Y-106938048D03*
X221538681Y-99769427D03*
X215855539Y-103574162D03*
D14*
X215141387Y-106322704D03*
X225079367Y-104210322D03*
D15*
X220110377Y-105266513D03*
D13*
X165001330Y-48882460D03*
X158261997Y-50046716D03*
D14*
X156491654Y-52267163D03*
X166429634Y-54379545D03*
D15*
X161460644Y-53323354D03*
D13*
X89780871Y-74441799D03*
D14*
X88010528Y-76662246D03*
X97948508Y-78774628D03*
D13*
X96520204Y-73277543D03*
D15*
X92979518Y-77718437D03*
D14*
X97250841Y-59150735D03*
D13*
X95822537Y-53653650D03*
X89083204Y-54817906D03*
D15*
X92281851Y-58094544D03*
D14*
X87312861Y-57038353D03*
D13*
X87980000Y-32134535D03*
D14*
X90520000Y-37214535D03*
X80360000Y-37214535D03*
D13*
X81630000Y-34674535D03*
D15*
X85440000Y-37214535D03*
D13*
X74290000Y-52684920D03*
D14*
X66670000Y-57764920D03*
D15*
X71750000Y-57764920D03*
D14*
X76830000Y-57764920D03*
D13*
X67940000Y-55224920D03*
D15*
X39690040Y-114914680D03*
D13*
X42230040Y-109834680D03*
X35880040Y-112374680D03*
D14*
X34610040Y-114914680D03*
X44770040Y-114914680D03*
D13*
X49880000Y-33634920D03*
X43530000Y-36174920D03*
D15*
X47340000Y-38714920D03*
D14*
X42260000Y-38714920D03*
X52420000Y-38714920D03*
D15*
X72450000Y-76814920D03*
D14*
X77530000Y-76814920D03*
D13*
X74990000Y-71734920D03*
D14*
X67370000Y-76814920D03*
D13*
X68640000Y-74274920D03*
D15*
X46253400Y-76814680D03*
D14*
X51333400Y-76814680D03*
D13*
X42443400Y-74274680D03*
X48793400Y-71734680D03*
D14*
X41173400Y-76814680D03*
X71470000Y-38714920D03*
D15*
X66390000Y-38714920D03*
D14*
X61310000Y-38714920D03*
D13*
X62580000Y-36174920D03*
X68930000Y-33634920D03*
D15*
X111613228Y-81679164D03*
D14*
X116582218Y-82735355D03*
X106644238Y-80622973D03*
D13*
X108414581Y-78402526D03*
X115153914Y-77238270D03*
X107716914Y-58778632D03*
D15*
X110915561Y-62055270D03*
D14*
X105946571Y-60999079D03*
X115884551Y-63111461D03*
D13*
X114456247Y-57614376D03*
X102546086Y-113506775D03*
D14*
X94036410Y-116891478D03*
D13*
X95806753Y-114671031D03*
D15*
X99005400Y-117947669D03*
D14*
X103974390Y-119003860D03*
D15*
X77800000Y-95864920D03*
D14*
X72720000Y-95864920D03*
D13*
X73990000Y-93324920D03*
X80340000Y-90784920D03*
D14*
X82880000Y-95864920D03*
D15*
X47939960Y-57759600D03*
D13*
X44129960Y-55219600D03*
D14*
X53019960Y-57759600D03*
D13*
X50479960Y-52679600D03*
D14*
X42859960Y-57759600D03*
X93366610Y-97276315D03*
D13*
X101876286Y-93891612D03*
D15*
X98335600Y-98332506D03*
D13*
X95136953Y-95055868D03*
D14*
X103304590Y-99388697D03*
D13*
X346879760Y-50472596D03*
X353229760Y-47932596D03*
D15*
X350689760Y-53012596D03*
D14*
X355769760Y-53012596D03*
X345609760Y-53012596D03*
D13*
X300834760Y-52695080D03*
D14*
X303374760Y-57775080D03*
D15*
X298294760Y-57775080D03*
D14*
X293214760Y-57775080D03*
D13*
X294484760Y-55235080D03*
X357499709Y-66982599D03*
D14*
X360039709Y-72062599D03*
D13*
X351149709Y-69522599D03*
D14*
X349879709Y-72062599D03*
D15*
X354959709Y-72062599D03*
D16*
X307319680Y-83820000D03*
D14*
X314177680Y-76835000D03*
D15*
X319257680Y-76835000D03*
X331195680Y-68580000D03*
D14*
X324337680Y-76835000D03*
D13*
X315447680Y-74295000D03*
D15*
X307319680Y-68580000D03*
D13*
X321797680Y-71755000D03*
D16*
X331195680Y-83820000D03*
D14*
X327784760Y-38725080D03*
X317624760Y-38725080D03*
D13*
X325244760Y-33645080D03*
D15*
X322704760Y-38725080D03*
D13*
X318894760Y-36185080D03*
X351159869Y-117137423D03*
D14*
X360049869Y-119677423D03*
X349889869Y-119677423D03*
D15*
X354969869Y-119677423D03*
D13*
X357509869Y-114597423D03*
X342712040Y-31429960D03*
X349062040Y-28889960D03*
D14*
X341442040Y-33969960D03*
D15*
X346522040Y-33969960D03*
D14*
X351602040Y-33969960D03*
D15*
X322126280Y-57759600D03*
D14*
X327206280Y-57759600D03*
D13*
X318316280Y-55219600D03*
D14*
X317046280Y-57759600D03*
D13*
X324666280Y-52679600D03*
X280794760Y-36185080D03*
D15*
X284604760Y-38725080D03*
D14*
X289684760Y-38725080D03*
X279524760Y-38725080D03*
D13*
X287144760Y-33645080D03*
X301166200Y-93324680D03*
X307516200Y-90784680D03*
D14*
X310056200Y-95864680D03*
X299896200Y-95864680D03*
D15*
X304976200Y-95864680D03*
D13*
X306194760Y-33645080D03*
D14*
X298574760Y-38725080D03*
D15*
X303654760Y-38725080D03*
D13*
X299844760Y-36185080D03*
D14*
X308734760Y-38725080D03*
D13*
X313059869Y-117137423D03*
X319409869Y-114597423D03*
D15*
X316869869Y-119677423D03*
D14*
X321949869Y-119677423D03*
X311789869Y-119677423D03*
X340999869Y-100627423D03*
D13*
X338459869Y-95547423D03*
D15*
X335919869Y-100627423D03*
D14*
X330839869Y-100627423D03*
D13*
X332109869Y-98087423D03*
D14*
X330839869Y-119677423D03*
X340999869Y-119677423D03*
D15*
X335919869Y-119677423D03*
D13*
X332109869Y-117137423D03*
X338459869Y-114597423D03*
D14*
X51922680Y-95859600D03*
D15*
X58780680Y-104114600D03*
D16*
X58780680Y-88874600D03*
D15*
X34904680Y-104114600D03*
X46842680Y-95859600D03*
D13*
X43032680Y-93319600D03*
D16*
X34904680Y-88874600D03*
D13*
X49382680Y-90779600D03*
D14*
X41762680Y-95859600D03*
D13*
X109100195Y-37000307D03*
X102360862Y-38164563D03*
D14*
X100590519Y-40385010D03*
D15*
X105559509Y-41441201D03*
D14*
X110528499Y-42497392D03*
D16*
X225536906Y-130724950D03*
D15*
X212407517Y-126374639D03*
D14*
X217376507Y-125318448D03*
D15*
X199014080Y-120782080D03*
D13*
X213835821Y-120877553D03*
D16*
X202182654Y-135689050D03*
D15*
X222368332Y-115817981D03*
D13*
X208152679Y-124682288D03*
D14*
X207438527Y-127430830D03*
D17*
X51197500Y-114920000D03*
X117932200Y-28524200D03*
X229192785Y-27932509D03*
X236982000Y-113944400D03*
X336245200Y-44704000D03*
X345449949Y-110157503D03*
X56865000Y-48245000D03*
X113157000Y-112781080D03*
D18*
X175590200Y-42214800D03*
D19*
X344006800Y-41489200D03*
D20*
X349006800Y-41489200D03*
X346506800Y-41489200D03*
D21*
X340906800Y-33989200D03*
D22*
X352106800Y-33989200D03*
D20*
X344006800Y-26989200D03*
X349006800Y-26989200D03*
D23*
X220726000Y-26416000D03*
X213106000Y-26416000D03*
X208026000Y-26416000D03*
X218186000Y-26416000D03*
X210566000Y-26416000D03*
X215646000Y-26416000D03*
X141224000Y-26416000D03*
X151384000Y-26416000D03*
X146304000Y-26416000D03*
X148844000Y-26416000D03*
X143764000Y-26416000D03*
D24*
X176961280Y-29084600D03*
X171181280Y-29084600D03*
D25*
X169751280Y-29614600D03*
D26*
X178391280Y-25434600D03*
X169751280Y-25434600D03*
D25*
X178391280Y-29614600D03*
M02*
