G04 #@! TF.GenerationSoftware,KiCad,Pcbnew,(6.0.2)*
G04 #@! TF.CreationDate,2022-03-31T17:31:01+05:30*
G04 #@! TF.ProjectId,arisu,61726973-752e-46b6-9963-61645f706362,1.1*
G04 #@! TF.SameCoordinates,Original*
G04 #@! TF.FileFunction,Soldermask,Bot*
G04 #@! TF.FilePolarity,Negative*
%FSLAX46Y46*%
G04 Gerber Fmt 4.6, Leading zero omitted, Abs format (unit mm)*
G04 Created by KiCad (PCBNEW (6.0.2)) date 2022-03-31 17:31:01*
%MOMM*%
%LPD*%
G01*
G04 APERTURE LIST*
G04 Aperture macros list*
%AMRoundRect*
0 Rectangle with rounded corners*
0 $1 Rounding radius*
0 $2 $3 $4 $5 $6 $7 $8 $9 X,Y pos of 4 corners*
0 Add a 4 corners polygon primitive as box body*
4,1,4,$2,$3,$4,$5,$6,$7,$8,$9,$2,$3,0*
0 Add four circle primitives for the rounded corners*
1,1,$1+$1,$2,$3*
1,1,$1+$1,$4,$5*
1,1,$1+$1,$6,$7*
1,1,$1+$1,$8,$9*
0 Add four rect primitives between the rounded corners*
20,1,$1+$1,$2,$3,$4,$5,0*
20,1,$1+$1,$4,$5,$6,$7,0*
20,1,$1+$1,$6,$7,$8,$9,0*
20,1,$1+$1,$8,$9,$2,$3,0*%
G04 Aperture macros list end*
%ADD10C,3.102000*%
%ADD11C,1.852000*%
%ADD12C,4.089800*%
%ADD13RoundRect,0.051000X-1.507028X-0.957597X0.987249X-1.487772X1.507028X0.957597X-0.987249X1.487772X0*%
%ADD14RoundRect,0.051000X-0.987249X-1.487772X1.507028X-0.957597X0.987249X1.487772X-1.507028X0.957597X0*%
%ADD15C,3.150000*%
%ADD16RoundRect,0.051000X-1.275000X-1.250000X1.275000X-1.250000X1.275000X1.250000X-1.275000X1.250000X0*%
%ADD17RoundRect,0.051000X-1.200000X-0.900000X1.200000X-0.900000X1.200000X0.900000X-1.200000X0.900000X0*%
%ADD18C,4.502000*%
%ADD19C,1.302000*%
%ADD20RoundRect,0.051000X1.000000X-1.000000X1.000000X1.000000X-1.000000X1.000000X-1.000000X-1.000000X0*%
%ADD21C,2.102000*%
%ADD22O,2.602000X3.102000*%
%ADD23RoundRect,0.051000X1.250000X-1.500000X1.250000X1.500000X-1.250000X1.500000X-1.250000X-1.500000X0*%
%ADD24RoundRect,0.051000X0.600000X-0.450000X0.600000X0.450000X-0.600000X0.450000X-0.600000X-0.450000X0*%
%ADD25RoundRect,0.051000X0.625000X-0.750000X0.625000X0.750000X-0.625000X0.750000X-0.625000X-0.750000X0*%
%ADD26RoundRect,0.051000X-0.625000X0.750000X-0.625000X-0.750000X0.625000X-0.750000X0.625000X0.750000X0*%
%ADD27RoundRect,0.051000X-0.750000X-0.625000X0.750000X-0.625000X0.750000X0.625000X-0.750000X0.625000X0*%
%ADD28RoundRect,0.051000X0.750000X0.625000X-0.750000X0.625000X-0.750000X-0.625000X0.750000X-0.625000X0*%
%ADD29RoundRect,0.051000X0.493328X-0.564913X0.680449X0.315419X-0.493328X0.564913X-0.680449X-0.315419X0*%
%ADD30RoundRect,0.051000X0.680449X-0.315419X0.493328X0.564913X-0.680449X0.315419X-0.493328X-0.564913X0*%
%ADD31RoundRect,0.051000X-0.850000X-0.850000X0.850000X-0.850000X0.850000X0.850000X-0.850000X0.850000X0*%
%ADD32RoundRect,0.051000X-0.650000X0.750000X-0.650000X-0.750000X0.650000X-0.750000X0.650000X0.750000X0*%
%ADD33RoundRect,0.051000X0.850000X0.500000X-0.850000X0.500000X-0.850000X-0.500000X0.850000X-0.500000X0*%
%ADD34RoundRect,0.051000X-0.275000X0.750000X-0.275000X-0.750000X0.275000X-0.750000X0.275000X0.750000X0*%
%ADD35RoundRect,0.051000X0.750000X0.275000X-0.750000X0.275000X-0.750000X-0.275000X0.750000X-0.275000X0*%
%ADD36RoundRect,0.051000X1.646586X0.001971X-0.821586X1.426971X-1.646586X-0.001971X0.821586X-1.426971X0*%
%ADD37RoundRect,0.300999X-0.325001X-0.450001X0.325001X-0.450001X0.325001X0.450001X-0.325001X0.450001X0*%
%ADD38RoundRect,0.300999X0.325001X0.450001X-0.325001X0.450001X-0.325001X-0.450001X0.325001X-0.450001X0*%
%ADD39RoundRect,0.051000X-0.780000X-0.325000X0.780000X-0.325000X0.780000X0.325000X-0.780000X0.325000X0*%
%ADD40C,0.752000*%
%ADD41RoundRect,0.051000X-0.300000X-1.225000X0.300000X-1.225000X0.300000X1.225000X-0.300000X1.225000X0*%
%ADD42RoundRect,0.051000X-0.150000X-1.225000X0.150000X-1.225000X0.150000X1.225000X-0.150000X1.225000X0*%
%ADD43O,1.102000X2.202000*%
%ADD44O,1.102000X1.702000*%
%ADD45RoundRect,0.113500X-0.062500X0.475000X-0.062500X-0.475000X0.062500X-0.475000X0.062500X0.475000X0*%
%ADD46RoundRect,0.113500X-0.475000X0.062500X-0.475000X-0.062500X0.475000X-0.062500X0.475000X0.062500X0*%
%ADD47RoundRect,0.051000X-1.000000X1.000000X-1.000000X-1.000000X1.000000X-1.000000X1.000000X1.000000X0*%
%ADD48RoundRect,0.301000X0.475000X-0.337500X0.475000X0.337500X-0.475000X0.337500X-0.475000X-0.337500X0*%
%ADD49RoundRect,0.051000X0.750000X0.500000X-0.750000X0.500000X-0.750000X-0.500000X0.750000X-0.500000X0*%
%ADD50RoundRect,0.301000X0.337500X0.475000X-0.337500X0.475000X-0.337500X-0.475000X0.337500X-0.475000X0*%
%ADD51RoundRect,0.301000X-0.337500X-0.475000X0.337500X-0.475000X0.337500X0.475000X-0.337500X0.475000X0*%
%ADD52RoundRect,0.301000X-0.475000X0.337500X-0.475000X-0.337500X0.475000X-0.337500X0.475000X0.337500X0*%
%ADD53RoundRect,0.051000X-0.750000X-0.500000X0.750000X-0.500000X0.750000X0.500000X-0.750000X0.500000X0*%
G04 APERTURE END LIST*
D10*
X126961113Y-82260402D03*
D11*
X135128750Y-86593231D03*
X125190770Y-84480849D03*
D12*
X130159760Y-85537040D03*
D10*
X133700446Y-81096146D03*
D13*
X136930290Y-81782670D03*
X123757680Y-81579491D03*
D12*
X116969310Y-102293232D03*
D11*
X112000320Y-101237041D03*
D10*
X120509996Y-97852338D03*
X113770663Y-99016594D03*
D11*
X121938300Y-103349423D03*
D13*
X123739840Y-98538862D03*
X110567230Y-98335683D03*
D12*
X148880648Y-89600618D03*
D10*
X145682001Y-86323980D03*
D11*
X143911658Y-88544427D03*
X153849638Y-90656809D03*
D10*
X152421334Y-85159724D03*
D13*
X155651178Y-85846248D03*
X142478568Y-85643069D03*
D11*
X233775098Y-102361987D03*
X243713078Y-100249605D03*
D10*
X240172392Y-95808710D03*
D12*
X238744088Y-101305796D03*
D10*
X234489250Y-99613445D03*
D14*
X243402235Y-95122186D03*
X231285817Y-100294355D03*
D11*
X184625660Y-54382219D03*
D10*
X185339812Y-51633677D03*
X191022954Y-47828942D03*
D11*
X194563640Y-52269837D03*
D12*
X189594650Y-53326028D03*
D14*
X194252797Y-47142418D03*
X182136379Y-52314587D03*
D10*
X203973524Y-47672959D03*
X209656666Y-43868224D03*
D11*
X203259372Y-50421501D03*
X213197352Y-48309119D03*
D12*
X208228362Y-49365310D03*
D14*
X212886509Y-43181700D03*
X200770091Y-48353869D03*
D10*
X207236417Y-85930610D03*
D11*
X216460245Y-86566770D03*
D12*
X211491255Y-87622961D03*
D11*
X206522265Y-88679152D03*
D10*
X212919559Y-82125875D03*
D14*
X216149402Y-81439351D03*
X204032984Y-86611520D03*
D12*
X131611575Y-124882058D03*
D11*
X126642585Y-123825867D03*
D12*
X145005012Y-119289499D03*
X121650760Y-114325400D03*
D15*
X141836438Y-134196469D03*
D10*
X128412928Y-121605420D03*
D15*
X118482186Y-129232369D03*
D11*
X136580565Y-125938249D03*
D10*
X135152261Y-120441164D03*
D13*
X138382105Y-121127688D03*
X125209495Y-120924509D03*
D10*
X151723667Y-65535830D03*
D11*
X153151971Y-71032915D03*
X143213991Y-68920533D03*
D10*
X144984334Y-66700086D03*
D12*
X148182981Y-69976724D03*
D13*
X154953511Y-66222354D03*
X141780901Y-66019175D03*
D11*
X283213480Y-76814680D03*
D12*
X288293480Y-76814680D03*
D10*
X290833480Y-71734680D03*
X284483480Y-74274680D03*
D11*
X293373480Y-76814680D03*
D16*
X294135480Y-71734680D03*
X281208480Y-74274680D03*
D12*
X201476665Y-109227231D03*
D10*
X197221827Y-107534880D03*
X202904969Y-103730145D03*
D11*
X206445655Y-108171040D03*
X196507675Y-110283422D03*
D14*
X206134812Y-103043621D03*
X194018394Y-108215790D03*
D11*
X274164760Y-57775080D03*
D10*
X275434760Y-55235080D03*
D12*
X279244760Y-57775080D03*
D10*
X281784760Y-52695080D03*
D11*
X284324760Y-57775080D03*
D16*
X285086760Y-52695080D03*
X272159760Y-55235080D03*
D12*
X265554760Y-37224695D03*
D11*
X270634760Y-37224695D03*
X260474760Y-37224695D03*
D10*
X268094760Y-32144695D03*
X261744760Y-34684695D03*
D16*
X271396760Y-32144695D03*
X258469760Y-34684695D03*
D10*
X163104766Y-126394735D03*
D11*
X154595090Y-129779438D03*
D10*
X156365433Y-127558991D03*
D11*
X164533070Y-131891820D03*
D12*
X159564080Y-130835629D03*
D13*
X166334610Y-127081259D03*
X153162000Y-126878080D03*
D10*
X225870129Y-81969893D03*
X231553271Y-78165158D03*
D11*
X225155977Y-84718435D03*
D12*
X230124967Y-83662244D03*
D11*
X235093957Y-82606053D03*
D14*
X234783114Y-77478634D03*
X222666696Y-82650803D03*
D11*
X124580281Y-64959806D03*
D10*
X133089957Y-61575103D03*
X126350624Y-62739359D03*
D12*
X129549271Y-66015997D03*
D11*
X134518261Y-67072188D03*
D13*
X136319801Y-62261627D03*
X123147191Y-62058448D03*
D10*
X127733906Y-40961025D03*
D11*
X129162210Y-46458110D03*
D12*
X124193220Y-45401919D03*
D11*
X119224230Y-44345728D03*
D10*
X120994573Y-42125281D03*
D13*
X130963750Y-41647549D03*
X117791140Y-41444370D03*
D11*
X283858640Y-95869760D03*
X273698640Y-95869760D03*
D10*
X274968640Y-93329760D03*
D12*
X278778640Y-95869760D03*
D10*
X281318640Y-90789760D03*
D16*
X284620640Y-90789760D03*
X271693640Y-93329760D03*
D10*
X185666727Y-68443041D03*
X179983585Y-72247776D03*
D11*
X179269433Y-74996318D03*
X189207413Y-72883936D03*
D12*
X184238423Y-73940127D03*
D14*
X188896570Y-67756517D03*
X176780152Y-72928686D03*
D10*
X253442237Y-112456684D03*
D12*
X252013933Y-117953770D03*
D11*
X256982923Y-116897579D03*
D10*
X247759095Y-116261419D03*
D11*
X247044943Y-119009961D03*
D14*
X256672080Y-111770160D03*
X244555662Y-116942329D03*
D10*
X235884720Y-60365623D03*
D11*
X235170568Y-63114165D03*
D12*
X240139558Y-62057974D03*
D11*
X245108548Y-61001783D03*
D10*
X241567862Y-56560888D03*
D14*
X244797705Y-55874364D03*
X232681287Y-61046533D03*
D11*
X264154760Y-76825080D03*
D10*
X271774760Y-71745080D03*
D12*
X269234760Y-76825080D03*
D10*
X265424760Y-74285080D03*
D11*
X274314760Y-76825080D03*
D16*
X275076760Y-71745080D03*
X262149760Y-74285080D03*
D10*
X198617296Y-68287058D03*
D12*
X202872134Y-69979409D03*
D11*
X207841124Y-68923218D03*
D10*
X204300438Y-64482323D03*
D11*
X197903144Y-71035600D03*
D14*
X207530281Y-63795799D03*
X195413863Y-68967968D03*
D10*
X260201574Y-52600170D03*
X254518432Y-56404905D03*
D11*
X253804280Y-59153447D03*
D12*
X258773270Y-58097256D03*
D11*
X263742260Y-57041065D03*
D14*
X263431417Y-51913646D03*
X251314999Y-57085815D03*
D12*
X245495785Y-41443875D03*
D11*
X250464775Y-40387684D03*
D10*
X241240947Y-39751524D03*
X246924089Y-35946789D03*
D11*
X240526795Y-42500066D03*
D14*
X250153932Y-35260265D03*
X238037514Y-40432434D03*
D12*
X257377800Y-97345078D03*
D10*
X258806104Y-91847992D03*
D11*
X262346790Y-96288887D03*
D10*
X253122962Y-95652727D03*
D11*
X252408810Y-98401269D03*
D14*
X262035947Y-91161468D03*
X249919529Y-96333637D03*
D10*
X244503841Y-78009175D03*
D11*
X243789689Y-80757717D03*
X253727669Y-78645335D03*
D10*
X250186983Y-74204440D03*
D12*
X248758679Y-79701526D03*
D14*
X253416826Y-73517916D03*
X241300408Y-78690085D03*
D10*
X146367618Y-44921743D03*
D12*
X142826932Y-49362637D03*
D11*
X137857942Y-48306446D03*
D10*
X139628285Y-46085999D03*
D11*
X147795922Y-50418828D03*
D13*
X149597462Y-45608267D03*
X136424852Y-45405088D03*
D11*
X130634029Y-105197768D03*
D12*
X135603019Y-106253959D03*
D11*
X140572009Y-107310150D03*
D10*
X139143705Y-101813065D03*
X132404372Y-102977321D03*
D13*
X142373549Y-102499589D03*
X129200939Y-102296410D03*
D11*
X231831064Y-44348402D03*
D10*
X228290378Y-39907507D03*
D11*
X221893084Y-46460784D03*
D10*
X222607236Y-43712242D03*
D12*
X226862074Y-45404593D03*
D14*
X231520221Y-39220983D03*
X219403803Y-44393152D03*
D10*
X217251008Y-64326341D03*
D11*
X216536856Y-67074883D03*
X226474836Y-64962501D03*
D10*
X222934150Y-60521606D03*
D12*
X221505846Y-66018692D03*
D14*
X226163993Y-59835082D03*
X214047575Y-65007251D03*
D12*
X192857544Y-91583679D03*
D11*
X197826534Y-90527488D03*
D10*
X188602706Y-89891328D03*
X194285848Y-86086593D03*
D11*
X187888554Y-92639870D03*
D14*
X197515691Y-85400069D03*
X185399273Y-90572238D03*
D11*
X149267739Y-109158495D03*
D10*
X157777415Y-105773792D03*
D11*
X159205719Y-111270877D03*
D12*
X154236729Y-110214686D03*
D10*
X151038082Y-106938048D03*
D13*
X161007259Y-106460316D03*
X147834649Y-106257137D03*
D10*
X221538681Y-99769427D03*
X215855539Y-103574162D03*
D11*
X215141387Y-106322704D03*
X225079367Y-104210322D03*
D12*
X220110377Y-105266513D03*
D14*
X224768524Y-99082903D03*
X212652106Y-104255072D03*
D10*
X165001330Y-48882460D03*
X158261997Y-50046716D03*
D11*
X156491654Y-52267163D03*
X166429634Y-54379545D03*
D12*
X161460644Y-53323354D03*
D13*
X168231174Y-49568984D03*
X155058564Y-49365805D03*
D10*
X89780871Y-74441799D03*
D11*
X88010528Y-76662246D03*
X97948508Y-78774628D03*
D10*
X96520204Y-73277543D03*
D12*
X92979518Y-77718437D03*
D13*
X99750048Y-73964067D03*
X86577438Y-73760888D03*
D11*
X97250841Y-59150735D03*
D10*
X95822537Y-53653650D03*
X89083204Y-54817906D03*
D12*
X92281851Y-58094544D03*
D11*
X87312861Y-57038353D03*
D13*
X99052381Y-54340174D03*
X85879771Y-54136995D03*
D10*
X87980000Y-32134535D03*
D11*
X90520000Y-37214535D03*
X80360000Y-37214535D03*
D10*
X81630000Y-34674535D03*
D12*
X85440000Y-37214535D03*
D16*
X91282000Y-32134535D03*
X78355000Y-34674535D03*
D10*
X74290000Y-52684920D03*
D11*
X66670000Y-57764920D03*
D12*
X71750000Y-57764920D03*
D11*
X76830000Y-57764920D03*
D10*
X67940000Y-55224920D03*
D16*
X77592000Y-52684920D03*
X64665000Y-55224920D03*
D12*
X39690040Y-114914680D03*
D10*
X42230040Y-109834680D03*
X35880040Y-112374680D03*
D11*
X34610040Y-114914680D03*
X44770040Y-114914680D03*
D16*
X45532040Y-109834680D03*
X32605040Y-112374680D03*
D10*
X49880000Y-33634920D03*
X43530000Y-36174920D03*
D12*
X47340000Y-38714920D03*
D11*
X42260000Y-38714920D03*
X52420000Y-38714920D03*
D16*
X53182000Y-33634920D03*
X40255000Y-36174920D03*
D12*
X72450000Y-76814920D03*
D11*
X77530000Y-76814920D03*
D10*
X74990000Y-71734920D03*
D11*
X67370000Y-76814920D03*
D10*
X68640000Y-74274920D03*
D16*
X78292000Y-71734920D03*
X65365000Y-74274920D03*
D12*
X46253400Y-76814680D03*
D11*
X51333400Y-76814680D03*
D10*
X42443400Y-74274680D03*
X48793400Y-71734680D03*
D11*
X41173400Y-76814680D03*
D16*
X52095400Y-71734680D03*
X39168400Y-74274680D03*
D11*
X71470000Y-38714920D03*
D12*
X66390000Y-38714920D03*
D11*
X61310000Y-38714920D03*
D10*
X62580000Y-36174920D03*
X68930000Y-33634920D03*
D16*
X72232000Y-33634920D03*
X59305000Y-36174920D03*
D12*
X111613228Y-81679164D03*
D11*
X116582218Y-82735355D03*
X106644238Y-80622973D03*
D10*
X108414581Y-78402526D03*
X115153914Y-77238270D03*
D13*
X118383758Y-77924794D03*
X105211148Y-77721615D03*
D10*
X107716914Y-58778632D03*
D12*
X110915561Y-62055270D03*
D11*
X105946571Y-60999079D03*
X115884551Y-63111461D03*
D10*
X114456247Y-57614376D03*
D13*
X117686091Y-58300900D03*
X104513481Y-58097721D03*
D10*
X102546086Y-113506775D03*
D11*
X94036410Y-116891478D03*
D10*
X95806753Y-114671031D03*
D12*
X99005400Y-117947669D03*
D11*
X103974390Y-119003860D03*
D13*
X105775930Y-114193299D03*
X92603320Y-113990120D03*
D12*
X77800000Y-95864920D03*
D11*
X72720000Y-95864920D03*
D10*
X73990000Y-93324920D03*
X80340000Y-90784920D03*
D11*
X82880000Y-95864920D03*
D16*
X83642000Y-90784920D03*
X70715000Y-93324920D03*
D12*
X47939960Y-57759600D03*
D10*
X44129960Y-55219600D03*
D11*
X53019960Y-57759600D03*
D10*
X50479960Y-52679600D03*
D11*
X42859960Y-57759600D03*
D16*
X53781960Y-52679600D03*
X40854960Y-55219600D03*
D11*
X93366610Y-97276315D03*
D10*
X101876286Y-93891612D03*
D12*
X98335600Y-98332506D03*
D10*
X95136953Y-95055868D03*
D11*
X103304590Y-99388697D03*
D13*
X105106130Y-94578136D03*
X91933520Y-94374957D03*
D10*
X346879760Y-50472596D03*
X353229760Y-47932596D03*
D12*
X350689760Y-53012596D03*
D11*
X355769760Y-53012596D03*
X345609760Y-53012596D03*
D16*
X356531760Y-47932596D03*
X343604760Y-50472596D03*
D10*
X300834760Y-52695080D03*
D11*
X303374760Y-57775080D03*
D12*
X298294760Y-57775080D03*
D11*
X293214760Y-57775080D03*
D10*
X294484760Y-55235080D03*
D16*
X304136760Y-52695080D03*
X291209760Y-55235080D03*
D10*
X357499709Y-66982599D03*
D11*
X360039709Y-72062599D03*
D10*
X351149709Y-69522599D03*
D11*
X349879709Y-72062599D03*
D12*
X354959709Y-72062599D03*
D16*
X360801709Y-66982599D03*
X347874709Y-69522599D03*
D15*
X307319680Y-83820000D03*
D11*
X314177680Y-76835000D03*
D12*
X319257680Y-76835000D03*
X331195680Y-68580000D03*
D11*
X324337680Y-76835000D03*
D10*
X315447680Y-74295000D03*
D12*
X307319680Y-68580000D03*
D10*
X321797680Y-71755000D03*
D15*
X331195680Y-83820000D03*
D16*
X325099680Y-71755000D03*
X312172680Y-74295000D03*
D11*
X327784760Y-38725080D03*
X317624760Y-38725080D03*
D10*
X325244760Y-33645080D03*
D12*
X322704760Y-38725080D03*
D10*
X318894760Y-36185080D03*
D16*
X328546760Y-33645080D03*
X315619760Y-36185080D03*
D10*
X351159869Y-117137423D03*
D11*
X360049869Y-119677423D03*
X349889869Y-119677423D03*
D12*
X354969869Y-119677423D03*
D10*
X357509869Y-114597423D03*
D16*
X360811869Y-114597423D03*
X347884869Y-117137423D03*
D10*
X342712040Y-31429960D03*
X349062040Y-28889960D03*
D11*
X341442040Y-33969960D03*
D12*
X346522040Y-33969960D03*
D11*
X351602040Y-33969960D03*
D16*
X352364040Y-28889960D03*
D17*
X339437040Y-31129960D03*
D12*
X322126280Y-57759600D03*
D11*
X327206280Y-57759600D03*
D10*
X318316280Y-55219600D03*
D11*
X317046280Y-57759600D03*
D10*
X324666280Y-52679600D03*
D16*
X327968280Y-52679600D03*
X315041280Y-55219600D03*
D10*
X280794760Y-36185080D03*
D12*
X284604760Y-38725080D03*
D11*
X289684760Y-38725080D03*
X279524760Y-38725080D03*
D10*
X287144760Y-33645080D03*
D16*
X290446760Y-33645080D03*
X277519760Y-36185080D03*
D10*
X301166200Y-93324680D03*
X307516200Y-90784680D03*
D11*
X310056200Y-95864680D03*
X299896200Y-95864680D03*
D12*
X304976200Y-95864680D03*
D16*
X310818200Y-90784680D03*
X297891200Y-93324680D03*
D10*
X306194760Y-33645080D03*
D11*
X298574760Y-38725080D03*
D12*
X303654760Y-38725080D03*
D10*
X299844760Y-36185080D03*
D11*
X308734760Y-38725080D03*
D16*
X309496760Y-33645080D03*
X296569760Y-36185080D03*
D10*
X313059869Y-117137423D03*
X319409869Y-114597423D03*
D12*
X316869869Y-119677423D03*
D11*
X321949869Y-119677423D03*
X311789869Y-119677423D03*
D16*
X322711869Y-114597423D03*
X309784869Y-117137423D03*
D11*
X340999869Y-100627423D03*
D10*
X338459869Y-95547423D03*
D12*
X335919869Y-100627423D03*
D11*
X330839869Y-100627423D03*
D10*
X332109869Y-98087423D03*
D16*
X341761869Y-95547423D03*
X328834869Y-98087423D03*
D11*
X330839869Y-119677423D03*
X340999869Y-119677423D03*
D12*
X335919869Y-119677423D03*
D10*
X332109869Y-117137423D03*
X338459869Y-114597423D03*
D16*
X341761869Y-114597423D03*
X328834869Y-117137423D03*
D11*
X51922680Y-95859600D03*
D12*
X58780680Y-104114600D03*
D15*
X58780680Y-88874600D03*
D12*
X34904680Y-104114600D03*
X46842680Y-95859600D03*
D10*
X43032680Y-93319600D03*
D15*
X34904680Y-88874600D03*
D10*
X49382680Y-90779600D03*
D11*
X41762680Y-95859600D03*
D16*
X52684680Y-90779600D03*
X39757680Y-93319600D03*
D10*
X109100195Y-37000307D03*
X102360862Y-38164563D03*
D11*
X100590519Y-40385010D03*
D12*
X105559509Y-41441201D03*
D11*
X110528499Y-42497392D03*
D13*
X112330039Y-37686831D03*
X99157429Y-37483652D03*
D15*
X225536906Y-130724950D03*
D12*
X212407517Y-126374639D03*
D11*
X217376507Y-125318448D03*
D12*
X199014080Y-120782080D03*
D10*
X213835821Y-120877553D03*
D15*
X202182654Y-135689050D03*
D12*
X222368332Y-115817981D03*
D10*
X208152679Y-124682288D03*
D11*
X207438527Y-127430830D03*
D14*
X217065664Y-120191029D03*
X204949246Y-125363198D03*
D18*
X51197500Y-114920000D03*
X117932200Y-28524200D03*
X229192785Y-27932509D03*
X236982000Y-113944400D03*
X336245200Y-44704000D03*
X345449949Y-110157503D03*
X56865000Y-48245000D03*
X113157000Y-112781080D03*
D19*
X175590200Y-42214800D03*
D20*
X344006800Y-41489200D03*
D21*
X349006800Y-41489200D03*
X346506800Y-41489200D03*
D22*
X340906800Y-33989200D03*
D23*
X352106800Y-33989200D03*
D21*
X344006800Y-26989200D03*
X349006800Y-26989200D03*
D24*
X41122600Y-122502200D03*
X41122600Y-119202200D03*
X43031250Y-82245000D03*
X43031250Y-78945000D03*
X44715000Y-63195000D03*
X44715000Y-59895000D03*
D25*
X183134000Y-31476000D03*
X183134000Y-28976000D03*
D26*
X179806600Y-55229440D03*
X179806600Y-57729440D03*
D24*
X63165000Y-44145000D03*
X63165000Y-40845000D03*
D27*
X165084440Y-45735240D03*
X167584440Y-45735240D03*
D24*
X69225000Y-82245000D03*
X69225000Y-78945000D03*
X68525000Y-63195000D03*
X68525000Y-59895000D03*
X43618750Y-101295000D03*
X43618750Y-97995000D03*
D28*
X167132000Y-38354000D03*
X164632000Y-38354000D03*
D25*
X181102000Y-31476000D03*
X181102000Y-28976000D03*
D29*
X119884166Y-50037943D03*
X120570274Y-46810055D03*
X127333239Y-129523693D03*
X128019347Y-126295805D03*
X131293965Y-110889983D03*
X131980073Y-107662095D03*
X87972797Y-62730568D03*
X88658905Y-59502680D03*
D24*
X82215000Y-42644615D03*
X82215000Y-39344615D03*
D29*
X149927675Y-114850710D03*
X150613783Y-111622822D03*
X125240217Y-70652021D03*
X125926325Y-67424133D03*
X94026546Y-102968530D03*
X94712654Y-99740642D03*
X107304174Y-86315188D03*
X107990282Y-83087300D03*
X94724247Y-122592418D03*
X95410355Y-119364530D03*
X143873927Y-74612748D03*
X144560035Y-71384860D03*
X88670464Y-82354461D03*
X89356572Y-79126573D03*
X138517878Y-53998661D03*
X139203986Y-50770773D03*
X125937884Y-90275915D03*
X126623992Y-87048027D03*
X106606507Y-66691294D03*
X107292615Y-63463406D03*
X112660256Y-106929256D03*
X113346364Y-103701368D03*
X144571594Y-94236642D03*
X145257702Y-91008754D03*
D24*
X332699949Y-106057503D03*
X332699949Y-102757503D03*
X281395000Y-44145000D03*
X281395000Y-40845000D03*
D30*
X238107612Y-68031318D03*
X237421504Y-64803430D03*
D24*
X301743769Y-101294998D03*
X301743769Y-97994998D03*
X276035000Y-63195000D03*
X276035000Y-59895000D03*
X262345000Y-42644615D03*
X262345000Y-39344615D03*
D30*
X190825598Y-97557023D03*
X190139490Y-94329135D03*
X249989756Y-123932470D03*
X249303648Y-120704582D03*
X228093021Y-89635588D03*
X227406913Y-86407700D03*
D29*
X155283812Y-135464739D03*
X155969920Y-132236851D03*
D30*
X243463839Y-47417219D03*
X242777731Y-44189331D03*
D29*
X157151590Y-57959378D03*
X157837698Y-54731490D03*
D30*
X246726733Y-85674870D03*
X246040625Y-82446982D03*
X182206477Y-79913471D03*
X181520369Y-76685583D03*
D24*
X318905000Y-63195000D03*
X318905000Y-59895000D03*
X300445000Y-44145000D03*
X300445000Y-40845000D03*
X295085000Y-63195000D03*
X295085000Y-59895000D03*
D30*
X200840188Y-75952753D03*
X200154080Y-72724865D03*
X219473900Y-71992036D03*
X218787792Y-68764148D03*
X187562704Y-59299372D03*
X186876596Y-56071484D03*
D24*
X313649949Y-125107503D03*
X313649949Y-121807503D03*
X316031250Y-82245000D03*
X316031250Y-78945000D03*
D30*
X236712142Y-107279140D03*
X236026034Y-104051252D03*
D24*
X285075000Y-82245000D03*
X285075000Y-78945000D03*
D30*
X256741324Y-64070600D03*
X256055216Y-60842712D03*
X210393120Y-132348982D03*
X209707012Y-129121094D03*
X206196416Y-55338654D03*
X205510308Y-52110766D03*
D24*
X266025000Y-82245000D03*
X266025000Y-78945000D03*
D30*
X224830128Y-51377937D03*
X224144020Y-48150049D03*
X209459309Y-93596305D03*
X208773201Y-90368417D03*
X218078431Y-111239857D03*
X217392323Y-108011969D03*
D24*
X319495000Y-44145000D03*
X319495000Y-40845000D03*
X275550019Y-101294998D03*
X275550019Y-97994998D03*
X332699949Y-125107503D03*
X332699949Y-121807503D03*
X347480000Y-58432516D03*
X347480000Y-55132516D03*
D31*
X220726000Y-26416000D03*
X213106000Y-26416000D03*
X208026000Y-26416000D03*
D24*
X351749949Y-125107503D03*
X351749949Y-121807503D03*
X336880200Y-38707600D03*
X336880200Y-35407600D03*
X351749949Y-77482519D03*
X351749949Y-74182519D03*
D32*
X172298360Y-58173640D03*
X172298360Y-60873640D03*
D31*
X218186000Y-26416000D03*
D33*
X198018000Y-27056000D03*
X204318000Y-27056000D03*
X204318000Y-30856000D03*
X198018000Y-30856000D03*
D29*
X101250455Y-46077225D03*
X101936563Y-42849337D03*
D34*
X171514000Y-36464000D03*
X172314000Y-36464000D03*
X173114000Y-36464000D03*
X173914000Y-36464000D03*
X174714000Y-36464000D03*
X175514000Y-36464000D03*
X176314000Y-36464000D03*
X177114000Y-36464000D03*
X177914000Y-36464000D03*
X178714000Y-36464000D03*
X179514000Y-36464000D03*
D35*
X181214000Y-38164000D03*
X181214000Y-38964000D03*
X181214000Y-39764000D03*
X181214000Y-40564000D03*
X181214000Y-41364000D03*
X181214000Y-42164000D03*
X181214000Y-42964000D03*
X181214000Y-43764000D03*
X181214000Y-44564000D03*
X181214000Y-45364000D03*
X181214000Y-46164000D03*
D34*
X179514000Y-47864000D03*
X178714000Y-47864000D03*
X177914000Y-47864000D03*
X177114000Y-47864000D03*
X176314000Y-47864000D03*
X175514000Y-47864000D03*
X174714000Y-47864000D03*
X173914000Y-47864000D03*
X173114000Y-47864000D03*
X172314000Y-47864000D03*
X171514000Y-47864000D03*
D35*
X169814000Y-46164000D03*
X169814000Y-45364000D03*
X169814000Y-44564000D03*
X169814000Y-43764000D03*
X169814000Y-42964000D03*
X169814000Y-42164000D03*
X169814000Y-41364000D03*
X169814000Y-40564000D03*
X169814000Y-39764000D03*
X169814000Y-38964000D03*
X169814000Y-38164000D03*
D26*
X185166000Y-39644000D03*
X185166000Y-42144000D03*
D31*
X210566000Y-26416000D03*
X215646000Y-26416000D03*
X141224000Y-26416000D03*
X151384000Y-26416000D03*
X146304000Y-26416000D03*
X148844000Y-26416000D03*
X143764000Y-26416000D03*
D28*
X167132000Y-36322000D03*
X164632000Y-36322000D03*
D32*
X194310000Y-27606000D03*
X194310000Y-30306000D03*
D24*
X74575000Y-101295000D03*
X74575000Y-97995000D03*
X44115000Y-44145000D03*
X44115000Y-40845000D03*
D30*
X199444719Y-115200575D03*
X198758611Y-111972687D03*
X255345854Y-103318422D03*
X254659746Y-100090534D03*
D27*
X187198000Y-36068000D03*
X189698000Y-36068000D03*
D25*
X187452000Y-41001000D03*
X187452000Y-38501000D03*
D36*
X198103338Y-41380040D03*
X194076320Y-39055040D03*
X195501320Y-36586868D03*
X199528338Y-38911868D03*
D37*
X158945360Y-29484320D03*
X160995360Y-29484320D03*
X158912560Y-31419800D03*
X160962560Y-31419800D03*
D38*
X188991240Y-28133040D03*
X186941240Y-28133040D03*
X188999080Y-26177240D03*
X186949080Y-26177240D03*
D39*
X163728400Y-31338600D03*
X163728400Y-30388600D03*
X163728400Y-29438600D03*
X166428400Y-29438600D03*
X166428400Y-30388600D03*
X166428400Y-31338600D03*
D40*
X176961280Y-29084600D03*
X171181280Y-29084600D03*
D41*
X170821280Y-31029600D03*
X171621280Y-31029600D03*
D42*
X172321280Y-31029600D03*
X172821280Y-31029600D03*
X173321280Y-31029600D03*
X173821280Y-31029600D03*
X174321280Y-31029600D03*
X174821280Y-31029600D03*
X175321280Y-31029600D03*
X175821280Y-31029600D03*
D41*
X176521280Y-31029600D03*
X177321280Y-31029600D03*
D43*
X169751280Y-29614600D03*
D44*
X178391280Y-25434600D03*
X169751280Y-25434600D03*
D43*
X178391280Y-29614600D03*
D45*
X173064800Y-38826500D03*
X173564800Y-38826500D03*
X174064800Y-38826500D03*
X174564800Y-38826500D03*
X175064800Y-38826500D03*
X175564800Y-38826500D03*
X176064800Y-38826500D03*
X176564800Y-38826500D03*
X177064800Y-38826500D03*
X177564800Y-38826500D03*
X178064800Y-38826500D03*
D46*
X178902300Y-39664000D03*
X178902300Y-40164000D03*
X178902300Y-40664000D03*
X178902300Y-41164000D03*
X178902300Y-41664000D03*
X178902300Y-42164000D03*
X178902300Y-42664000D03*
X178902300Y-43164000D03*
X178902300Y-43664000D03*
X178902300Y-44164000D03*
X178902300Y-44664000D03*
D45*
X178064800Y-45501500D03*
X177564800Y-45501500D03*
X177064800Y-45501500D03*
X176564800Y-45501500D03*
X176064800Y-45501500D03*
X175564800Y-45501500D03*
X175064800Y-45501500D03*
X174564800Y-45501500D03*
X174064800Y-45501500D03*
X173564800Y-45501500D03*
X173064800Y-45501500D03*
D46*
X172227300Y-44664000D03*
X172227300Y-44164000D03*
X172227300Y-43664000D03*
X172227300Y-43164000D03*
X172227300Y-42664000D03*
X172227300Y-42164000D03*
X172227300Y-41664000D03*
X172227300Y-41164000D03*
X172227300Y-40664000D03*
X172227300Y-40164000D03*
X172227300Y-39664000D03*
D47*
X175564800Y-42164000D03*
D48*
X81508600Y-117144800D03*
X81508600Y-115069800D03*
D49*
X34682600Y-121259800D03*
X34682600Y-124459800D03*
X29782600Y-124459800D03*
X29782600Y-121259800D03*
X78181200Y-114249200D03*
X78181200Y-117449200D03*
X73281200Y-117449200D03*
X73281200Y-114249200D03*
D48*
X38125400Y-123918800D03*
X38125400Y-121843800D03*
D49*
X181342200Y-128600400D03*
X181342200Y-131800400D03*
X176442200Y-131800400D03*
X176442200Y-128600400D03*
D50*
X33223200Y-36474400D03*
X31148200Y-36474400D03*
D49*
X361174200Y-35052200D03*
X361174200Y-38252200D03*
X356274200Y-38252200D03*
X356274200Y-35052200D03*
D51*
X357534300Y-98475800D03*
X359609300Y-98475800D03*
D48*
X293852600Y-119604700D03*
X293852600Y-117529700D03*
D49*
X290155800Y-116865600D03*
X290155800Y-120065600D03*
X285255800Y-120065600D03*
X285255800Y-116865600D03*
X114921200Y-117983200D03*
X114921200Y-121183200D03*
X110021200Y-121183200D03*
X110021200Y-117983200D03*
D50*
X32812900Y-76885800D03*
X30737900Y-76885800D03*
D48*
X352882200Y-39315300D03*
X352882200Y-37240300D03*
D52*
X75412600Y-27588300D03*
X75412600Y-29663300D03*
D49*
X360666200Y-101422400D03*
X360666200Y-104622400D03*
X355766200Y-104622400D03*
X355766200Y-101422400D03*
X232878800Y-119456400D03*
X232878800Y-122656400D03*
X227978800Y-122656400D03*
X227978800Y-119456400D03*
X34098400Y-70053400D03*
X34098400Y-73253400D03*
X29198400Y-73253400D03*
X29198400Y-70053400D03*
D53*
X235598800Y-30581400D03*
X235598800Y-27381400D03*
X240498800Y-27381400D03*
X240498800Y-30581400D03*
D49*
X34301600Y-29794400D03*
X34301600Y-32994400D03*
X29401600Y-32994400D03*
X29401600Y-29794400D03*
X302017600Y-27254400D03*
X302017600Y-30454400D03*
X297117600Y-30454400D03*
X297117600Y-27254400D03*
D52*
X118592600Y-118698100D03*
X118592600Y-120773100D03*
D48*
X293674800Y-29637900D03*
X293674800Y-27562900D03*
D53*
X79058600Y-30175000D03*
X79058600Y-26975000D03*
X83958600Y-26975000D03*
X83958600Y-30175000D03*
D52*
X236042200Y-120069700D03*
X236042200Y-122144700D03*
X123774200Y-27893100D03*
X123774200Y-29968100D03*
D53*
X127242400Y-30581400D03*
X127242400Y-27381400D03*
X132142400Y-27381400D03*
X132142400Y-30581400D03*
D50*
X238908500Y-33426400D03*
X236833500Y-33426400D03*
D52*
X185013600Y-129289900D03*
X185013600Y-131364900D03*
G36*
X172629660Y-47081493D02*
G01*
X172643452Y-47090709D01*
X172644615Y-47088969D01*
X172646409Y-47088084D01*
X172647560Y-47088545D01*
X172664952Y-47103078D01*
X172733670Y-47111704D01*
X172781288Y-47088918D01*
X172783282Y-47089072D01*
X172783814Y-47089611D01*
X172784548Y-47090709D01*
X172798340Y-47081493D01*
X172800336Y-47081362D01*
X172801447Y-47083025D01*
X172801114Y-47084267D01*
X172793767Y-47095262D01*
X172790000Y-47114199D01*
X172790000Y-48613801D01*
X172793767Y-48632738D01*
X172801114Y-48643733D01*
X172801245Y-48645729D01*
X172799582Y-48646840D01*
X172798340Y-48646507D01*
X172784548Y-48637291D01*
X172783385Y-48639031D01*
X172781591Y-48639916D01*
X172780440Y-48639455D01*
X172763048Y-48624922D01*
X172694330Y-48616296D01*
X172646712Y-48639082D01*
X172644718Y-48638928D01*
X172644186Y-48638389D01*
X172643452Y-48637291D01*
X172629660Y-48646507D01*
X172627664Y-48646638D01*
X172626553Y-48644975D01*
X172626886Y-48643733D01*
X172634233Y-48632738D01*
X172638000Y-48613801D01*
X172638000Y-47114199D01*
X172634233Y-47095262D01*
X172626886Y-47084267D01*
X172626755Y-47082271D01*
X172628418Y-47081160D01*
X172629660Y-47081493D01*
G37*
G36*
X171829660Y-47081493D02*
G01*
X171843452Y-47090709D01*
X171844615Y-47088969D01*
X171846409Y-47088084D01*
X171847560Y-47088545D01*
X171864952Y-47103078D01*
X171933670Y-47111704D01*
X171981288Y-47088918D01*
X171983282Y-47089072D01*
X171983814Y-47089611D01*
X171984548Y-47090709D01*
X171998340Y-47081493D01*
X172000336Y-47081362D01*
X172001447Y-47083025D01*
X172001114Y-47084267D01*
X171993767Y-47095262D01*
X171990000Y-47114199D01*
X171990000Y-48613801D01*
X171993767Y-48632738D01*
X172001114Y-48643733D01*
X172001245Y-48645729D01*
X171999582Y-48646840D01*
X171998340Y-48646507D01*
X171984548Y-48637291D01*
X171983385Y-48639031D01*
X171981591Y-48639916D01*
X171980440Y-48639455D01*
X171963048Y-48624922D01*
X171894330Y-48616296D01*
X171846712Y-48639082D01*
X171844718Y-48638928D01*
X171844186Y-48638389D01*
X171843452Y-48637291D01*
X171829660Y-48646507D01*
X171827664Y-48646638D01*
X171826553Y-48644975D01*
X171826886Y-48643733D01*
X171834233Y-48632738D01*
X171838000Y-48613801D01*
X171838000Y-47114199D01*
X171834233Y-47095262D01*
X171826886Y-47084267D01*
X171826755Y-47082271D01*
X171828418Y-47081160D01*
X171829660Y-47081493D01*
G37*
G36*
X178229660Y-47081493D02*
G01*
X178243452Y-47090709D01*
X178244615Y-47088969D01*
X178246409Y-47088084D01*
X178247560Y-47088545D01*
X178264952Y-47103078D01*
X178333670Y-47111704D01*
X178381288Y-47088918D01*
X178383282Y-47089072D01*
X178383814Y-47089611D01*
X178384548Y-47090709D01*
X178398340Y-47081493D01*
X178400336Y-47081362D01*
X178401447Y-47083025D01*
X178401114Y-47084267D01*
X178393767Y-47095262D01*
X178390000Y-47114199D01*
X178390000Y-48613801D01*
X178393767Y-48632738D01*
X178401114Y-48643733D01*
X178401245Y-48645729D01*
X178399582Y-48646840D01*
X178398340Y-48646507D01*
X178384548Y-48637291D01*
X178383385Y-48639031D01*
X178381591Y-48639916D01*
X178380440Y-48639455D01*
X178363048Y-48624922D01*
X178294330Y-48616296D01*
X178246712Y-48639082D01*
X178244718Y-48638928D01*
X178244186Y-48638389D01*
X178243452Y-48637291D01*
X178229660Y-48646507D01*
X178227664Y-48646638D01*
X178226553Y-48644975D01*
X178226886Y-48643733D01*
X178234233Y-48632738D01*
X178238000Y-48613801D01*
X178238000Y-47114199D01*
X178234233Y-47095262D01*
X178226886Y-47084267D01*
X178226755Y-47082271D01*
X178228418Y-47081160D01*
X178229660Y-47081493D01*
G37*
G36*
X177429660Y-47081493D02*
G01*
X177443452Y-47090709D01*
X177444615Y-47088969D01*
X177446409Y-47088084D01*
X177447560Y-47088545D01*
X177464952Y-47103078D01*
X177533670Y-47111704D01*
X177581288Y-47088918D01*
X177583282Y-47089072D01*
X177583814Y-47089611D01*
X177584548Y-47090709D01*
X177598340Y-47081493D01*
X177600336Y-47081362D01*
X177601447Y-47083025D01*
X177601114Y-47084267D01*
X177593767Y-47095262D01*
X177590000Y-47114199D01*
X177590000Y-48613801D01*
X177593767Y-48632738D01*
X177601114Y-48643733D01*
X177601245Y-48645729D01*
X177599582Y-48646840D01*
X177598340Y-48646507D01*
X177584548Y-48637291D01*
X177583385Y-48639031D01*
X177581591Y-48639916D01*
X177580440Y-48639455D01*
X177563048Y-48624922D01*
X177494330Y-48616296D01*
X177446712Y-48639082D01*
X177444718Y-48638928D01*
X177444186Y-48638389D01*
X177443452Y-48637291D01*
X177429660Y-48646507D01*
X177427664Y-48646638D01*
X177426553Y-48644975D01*
X177426886Y-48643733D01*
X177434233Y-48632738D01*
X177438000Y-48613801D01*
X177438000Y-47114199D01*
X177434233Y-47095262D01*
X177426886Y-47084267D01*
X177426755Y-47082271D01*
X177428418Y-47081160D01*
X177429660Y-47081493D01*
G37*
G36*
X176629660Y-47081493D02*
G01*
X176643452Y-47090709D01*
X176644615Y-47088969D01*
X176646409Y-47088084D01*
X176647560Y-47088545D01*
X176664952Y-47103078D01*
X176733670Y-47111704D01*
X176781288Y-47088918D01*
X176783282Y-47089072D01*
X176783814Y-47089611D01*
X176784548Y-47090709D01*
X176798340Y-47081493D01*
X176800336Y-47081362D01*
X176801447Y-47083025D01*
X176801114Y-47084267D01*
X176793767Y-47095262D01*
X176790000Y-47114199D01*
X176790000Y-48613801D01*
X176793767Y-48632738D01*
X176801114Y-48643733D01*
X176801245Y-48645729D01*
X176799582Y-48646840D01*
X176798340Y-48646507D01*
X176784548Y-48637291D01*
X176783385Y-48639031D01*
X176781591Y-48639916D01*
X176780440Y-48639455D01*
X176763048Y-48624922D01*
X176694330Y-48616296D01*
X176646712Y-48639082D01*
X176644718Y-48638928D01*
X176644186Y-48638389D01*
X176643452Y-48637291D01*
X176629660Y-48646507D01*
X176627664Y-48646638D01*
X176626553Y-48644975D01*
X176626886Y-48643733D01*
X176634233Y-48632738D01*
X176638000Y-48613801D01*
X176638000Y-47114199D01*
X176634233Y-47095262D01*
X176626886Y-47084267D01*
X176626755Y-47082271D01*
X176628418Y-47081160D01*
X176629660Y-47081493D01*
G37*
G36*
X173429660Y-47081493D02*
G01*
X173443452Y-47090709D01*
X173444615Y-47088969D01*
X173446409Y-47088084D01*
X173447560Y-47088545D01*
X173464952Y-47103078D01*
X173533670Y-47111704D01*
X173581288Y-47088918D01*
X173583282Y-47089072D01*
X173583814Y-47089611D01*
X173584548Y-47090709D01*
X173598340Y-47081493D01*
X173600336Y-47081362D01*
X173601447Y-47083025D01*
X173601114Y-47084267D01*
X173593767Y-47095262D01*
X173590000Y-47114199D01*
X173590000Y-48613801D01*
X173593767Y-48632738D01*
X173601114Y-48643733D01*
X173601245Y-48645729D01*
X173599582Y-48646840D01*
X173598340Y-48646507D01*
X173584548Y-48637291D01*
X173583385Y-48639031D01*
X173581591Y-48639916D01*
X173580440Y-48639455D01*
X173563048Y-48624922D01*
X173494330Y-48616296D01*
X173446712Y-48639082D01*
X173444718Y-48638928D01*
X173444186Y-48638389D01*
X173443452Y-48637291D01*
X173429660Y-48646507D01*
X173427664Y-48646638D01*
X173426553Y-48644975D01*
X173426886Y-48643733D01*
X173434233Y-48632738D01*
X173438000Y-48613801D01*
X173438000Y-47114199D01*
X173434233Y-47095262D01*
X173426886Y-47084267D01*
X173426755Y-47082271D01*
X173428418Y-47081160D01*
X173429660Y-47081493D01*
G37*
G36*
X174229660Y-47081493D02*
G01*
X174243452Y-47090709D01*
X174244615Y-47088969D01*
X174246409Y-47088084D01*
X174247560Y-47088545D01*
X174264952Y-47103078D01*
X174333670Y-47111704D01*
X174381288Y-47088918D01*
X174383282Y-47089072D01*
X174383814Y-47089611D01*
X174384548Y-47090709D01*
X174398340Y-47081493D01*
X174400336Y-47081362D01*
X174401447Y-47083025D01*
X174401114Y-47084267D01*
X174393767Y-47095262D01*
X174390000Y-47114199D01*
X174390000Y-48613801D01*
X174393767Y-48632738D01*
X174401114Y-48643733D01*
X174401245Y-48645729D01*
X174399582Y-48646840D01*
X174398340Y-48646507D01*
X174384548Y-48637291D01*
X174383385Y-48639031D01*
X174381591Y-48639916D01*
X174380440Y-48639455D01*
X174363048Y-48624922D01*
X174294330Y-48616296D01*
X174246712Y-48639082D01*
X174244718Y-48638928D01*
X174244186Y-48638389D01*
X174243452Y-48637291D01*
X174229660Y-48646507D01*
X174227664Y-48646638D01*
X174226553Y-48644975D01*
X174226886Y-48643733D01*
X174234233Y-48632738D01*
X174238000Y-48613801D01*
X174238000Y-47114199D01*
X174234233Y-47095262D01*
X174226886Y-47084267D01*
X174226755Y-47082271D01*
X174228418Y-47081160D01*
X174229660Y-47081493D01*
G37*
G36*
X175829660Y-47081493D02*
G01*
X175843452Y-47090709D01*
X175844615Y-47088969D01*
X175846409Y-47088084D01*
X175847560Y-47088545D01*
X175864952Y-47103078D01*
X175933670Y-47111704D01*
X175981288Y-47088918D01*
X175983282Y-47089072D01*
X175983814Y-47089611D01*
X175984548Y-47090709D01*
X175998340Y-47081493D01*
X176000336Y-47081362D01*
X176001447Y-47083025D01*
X176001114Y-47084267D01*
X175993767Y-47095262D01*
X175990000Y-47114199D01*
X175990000Y-48613801D01*
X175993767Y-48632738D01*
X176001114Y-48643733D01*
X176001245Y-48645729D01*
X175999582Y-48646840D01*
X175998340Y-48646507D01*
X175984548Y-48637291D01*
X175983385Y-48639031D01*
X175981591Y-48639916D01*
X175980440Y-48639455D01*
X175963048Y-48624922D01*
X175894330Y-48616296D01*
X175846712Y-48639082D01*
X175844718Y-48638928D01*
X175844186Y-48638389D01*
X175843452Y-48637291D01*
X175829660Y-48646507D01*
X175827664Y-48646638D01*
X175826553Y-48644975D01*
X175826886Y-48643733D01*
X175834233Y-48632738D01*
X175838000Y-48613801D01*
X175838000Y-47114199D01*
X175834233Y-47095262D01*
X175826886Y-47084267D01*
X175826755Y-47082271D01*
X175828418Y-47081160D01*
X175829660Y-47081493D01*
G37*
G36*
X179029660Y-47081493D02*
G01*
X179043452Y-47090709D01*
X179044615Y-47088969D01*
X179046409Y-47088084D01*
X179047560Y-47088545D01*
X179064952Y-47103078D01*
X179133670Y-47111704D01*
X179181288Y-47088918D01*
X179183282Y-47089072D01*
X179183814Y-47089611D01*
X179184548Y-47090709D01*
X179198340Y-47081493D01*
X179200336Y-47081362D01*
X179201447Y-47083025D01*
X179201114Y-47084267D01*
X179193767Y-47095262D01*
X179190000Y-47114199D01*
X179190000Y-48613801D01*
X179193767Y-48632738D01*
X179201114Y-48643733D01*
X179201245Y-48645729D01*
X179199582Y-48646840D01*
X179198340Y-48646507D01*
X179184548Y-48637291D01*
X179183385Y-48639031D01*
X179181591Y-48639916D01*
X179180440Y-48639455D01*
X179163048Y-48624922D01*
X179094330Y-48616296D01*
X179046712Y-48639082D01*
X179044718Y-48638928D01*
X179044186Y-48638389D01*
X179043452Y-48637291D01*
X179029660Y-48646507D01*
X179027664Y-48646638D01*
X179026553Y-48644975D01*
X179026886Y-48643733D01*
X179034233Y-48632738D01*
X179038000Y-48613801D01*
X179038000Y-47114199D01*
X179034233Y-47095262D01*
X179026886Y-47084267D01*
X179026755Y-47082271D01*
X179028418Y-47081160D01*
X179029660Y-47081493D01*
G37*
G36*
X175029660Y-47081493D02*
G01*
X175043452Y-47090709D01*
X175044615Y-47088969D01*
X175046409Y-47088084D01*
X175047560Y-47088545D01*
X175064952Y-47103078D01*
X175133670Y-47111704D01*
X175181288Y-47088918D01*
X175183282Y-47089072D01*
X175183814Y-47089611D01*
X175184548Y-47090709D01*
X175198340Y-47081493D01*
X175200336Y-47081362D01*
X175201447Y-47083025D01*
X175201114Y-47084267D01*
X175193767Y-47095262D01*
X175190000Y-47114199D01*
X175190000Y-48613801D01*
X175193767Y-48632738D01*
X175201114Y-48643733D01*
X175201245Y-48645729D01*
X175199582Y-48646840D01*
X175198340Y-48646507D01*
X175184548Y-48637291D01*
X175183385Y-48639031D01*
X175181591Y-48639916D01*
X175180440Y-48639455D01*
X175163048Y-48624922D01*
X175094330Y-48616296D01*
X175046712Y-48639082D01*
X175044718Y-48638928D01*
X175044186Y-48638389D01*
X175043452Y-48637291D01*
X175029660Y-48646507D01*
X175027664Y-48646638D01*
X175026553Y-48644975D01*
X175026886Y-48643733D01*
X175034233Y-48632738D01*
X175038000Y-48613801D01*
X175038000Y-47114199D01*
X175034233Y-47095262D01*
X175026886Y-47084267D01*
X175026755Y-47082271D01*
X175028418Y-47081160D01*
X175029660Y-47081493D01*
G37*
G36*
X177218694Y-44959456D02*
G01*
X177265745Y-44998777D01*
X177334461Y-45007408D01*
X177397091Y-44977444D01*
X177404598Y-44968781D01*
X177406488Y-44968127D01*
X177407999Y-44969437D01*
X177407772Y-44971202D01*
X177399325Y-44983844D01*
X177390800Y-45026699D01*
X177390800Y-45976301D01*
X177399325Y-46019156D01*
X177413852Y-46040898D01*
X177413983Y-46042894D01*
X177412320Y-46044005D01*
X177410906Y-46043544D01*
X177363855Y-46004223D01*
X177295139Y-45995592D01*
X177232509Y-46025556D01*
X177225002Y-46034219D01*
X177223112Y-46034873D01*
X177221601Y-46033563D01*
X177221828Y-46031798D01*
X177230275Y-46019156D01*
X177238800Y-45976301D01*
X177238800Y-45026699D01*
X177230275Y-44983844D01*
X177215748Y-44962102D01*
X177215617Y-44960106D01*
X177217280Y-44958995D01*
X177218694Y-44959456D01*
G37*
G36*
X175218694Y-44959456D02*
G01*
X175265745Y-44998777D01*
X175334461Y-45007408D01*
X175397091Y-44977444D01*
X175404598Y-44968781D01*
X175406488Y-44968127D01*
X175407999Y-44969437D01*
X175407772Y-44971202D01*
X175399325Y-44983844D01*
X175390800Y-45026699D01*
X175390800Y-45976301D01*
X175399325Y-46019156D01*
X175413852Y-46040898D01*
X175413983Y-46042894D01*
X175412320Y-46044005D01*
X175410906Y-46043544D01*
X175363855Y-46004223D01*
X175295139Y-45995592D01*
X175232509Y-46025556D01*
X175225002Y-46034219D01*
X175223112Y-46034873D01*
X175221601Y-46033563D01*
X175221828Y-46031798D01*
X175230275Y-46019156D01*
X175238800Y-45976301D01*
X175238800Y-45026699D01*
X175230275Y-44983844D01*
X175215748Y-44962102D01*
X175215617Y-44960106D01*
X175217280Y-44958995D01*
X175218694Y-44959456D01*
G37*
G36*
X173218694Y-44959456D02*
G01*
X173265745Y-44998777D01*
X173334461Y-45007408D01*
X173397091Y-44977444D01*
X173404598Y-44968781D01*
X173406488Y-44968127D01*
X173407999Y-44969437D01*
X173407772Y-44971202D01*
X173399325Y-44983844D01*
X173390800Y-45026699D01*
X173390800Y-45976301D01*
X173399325Y-46019156D01*
X173413852Y-46040898D01*
X173413983Y-46042894D01*
X173412320Y-46044005D01*
X173410906Y-46043544D01*
X173363855Y-46004223D01*
X173295139Y-45995592D01*
X173232509Y-46025556D01*
X173225002Y-46034219D01*
X173223112Y-46034873D01*
X173221601Y-46033563D01*
X173221828Y-46031798D01*
X173230275Y-46019156D01*
X173238800Y-45976301D01*
X173238800Y-45026699D01*
X173230275Y-44983844D01*
X173215748Y-44962102D01*
X173215617Y-44960106D01*
X173217280Y-44958995D01*
X173218694Y-44959456D01*
G37*
G36*
X176718694Y-44959456D02*
G01*
X176765745Y-44998777D01*
X176834461Y-45007408D01*
X176897091Y-44977444D01*
X176904598Y-44968781D01*
X176906488Y-44968127D01*
X176907999Y-44969437D01*
X176907772Y-44971202D01*
X176899325Y-44983844D01*
X176890800Y-45026699D01*
X176890800Y-45976301D01*
X176899325Y-46019156D01*
X176913852Y-46040898D01*
X176913983Y-46042894D01*
X176912320Y-46044005D01*
X176910906Y-46043544D01*
X176863855Y-46004223D01*
X176795139Y-45995592D01*
X176732509Y-46025556D01*
X176725002Y-46034219D01*
X176723112Y-46034873D01*
X176721601Y-46033563D01*
X176721828Y-46031798D01*
X176730275Y-46019156D01*
X176738800Y-45976301D01*
X176738800Y-45026699D01*
X176730275Y-44983844D01*
X176715748Y-44962102D01*
X176715617Y-44960106D01*
X176717280Y-44958995D01*
X176718694Y-44959456D01*
G37*
G36*
X174218694Y-44959456D02*
G01*
X174265745Y-44998777D01*
X174334461Y-45007408D01*
X174397091Y-44977444D01*
X174404598Y-44968781D01*
X174406488Y-44968127D01*
X174407999Y-44969437D01*
X174407772Y-44971202D01*
X174399325Y-44983844D01*
X174390800Y-45026699D01*
X174390800Y-45976301D01*
X174399325Y-46019156D01*
X174413852Y-46040898D01*
X174413983Y-46042894D01*
X174412320Y-46044005D01*
X174410906Y-46043544D01*
X174363855Y-46004223D01*
X174295139Y-45995592D01*
X174232509Y-46025556D01*
X174225002Y-46034219D01*
X174223112Y-46034873D01*
X174221601Y-46033563D01*
X174221828Y-46031798D01*
X174230275Y-46019156D01*
X174238800Y-45976301D01*
X174238800Y-45026699D01*
X174230275Y-44983844D01*
X174215748Y-44962102D01*
X174215617Y-44960106D01*
X174217280Y-44958995D01*
X174218694Y-44959456D01*
G37*
G36*
X175718694Y-44959456D02*
G01*
X175765745Y-44998777D01*
X175834461Y-45007408D01*
X175897091Y-44977444D01*
X175904598Y-44968781D01*
X175906488Y-44968127D01*
X175907999Y-44969437D01*
X175907772Y-44971202D01*
X175899325Y-44983844D01*
X175890800Y-45026699D01*
X175890800Y-45976301D01*
X175899325Y-46019156D01*
X175913852Y-46040898D01*
X175913983Y-46042894D01*
X175912320Y-46044005D01*
X175910906Y-46043544D01*
X175863855Y-46004223D01*
X175795139Y-45995592D01*
X175732509Y-46025556D01*
X175725002Y-46034219D01*
X175723112Y-46034873D01*
X175721601Y-46033563D01*
X175721828Y-46031798D01*
X175730275Y-46019156D01*
X175738800Y-45976301D01*
X175738800Y-45026699D01*
X175730275Y-44983844D01*
X175715748Y-44962102D01*
X175715617Y-44960106D01*
X175717280Y-44958995D01*
X175718694Y-44959456D01*
G37*
G36*
X173718694Y-44959456D02*
G01*
X173765745Y-44998777D01*
X173834461Y-45007408D01*
X173897091Y-44977444D01*
X173904598Y-44968781D01*
X173906488Y-44968127D01*
X173907999Y-44969437D01*
X173907772Y-44971202D01*
X173899325Y-44983844D01*
X173890800Y-45026699D01*
X173890800Y-45976301D01*
X173899325Y-46019156D01*
X173913852Y-46040898D01*
X173913983Y-46042894D01*
X173912320Y-46044005D01*
X173910906Y-46043544D01*
X173863855Y-46004223D01*
X173795139Y-45995592D01*
X173732509Y-46025556D01*
X173725002Y-46034219D01*
X173723112Y-46034873D01*
X173721601Y-46033563D01*
X173721828Y-46031798D01*
X173730275Y-46019156D01*
X173738800Y-45976301D01*
X173738800Y-45026699D01*
X173730275Y-44983844D01*
X173715748Y-44962102D01*
X173715617Y-44960106D01*
X173717280Y-44958995D01*
X173718694Y-44959456D01*
G37*
G36*
X174718694Y-44959456D02*
G01*
X174765745Y-44998777D01*
X174834461Y-45007408D01*
X174897091Y-44977444D01*
X174904598Y-44968781D01*
X174906488Y-44968127D01*
X174907999Y-44969437D01*
X174907772Y-44971202D01*
X174899325Y-44983844D01*
X174890800Y-45026699D01*
X174890800Y-45976301D01*
X174899325Y-46019156D01*
X174913852Y-46040898D01*
X174913983Y-46042894D01*
X174912320Y-46044005D01*
X174910906Y-46043544D01*
X174863855Y-46004223D01*
X174795139Y-45995592D01*
X174732509Y-46025556D01*
X174725002Y-46034219D01*
X174723112Y-46034873D01*
X174721601Y-46033563D01*
X174721828Y-46031798D01*
X174730275Y-46019156D01*
X174738800Y-45976301D01*
X174738800Y-45026699D01*
X174730275Y-44983844D01*
X174715748Y-44962102D01*
X174715617Y-44960106D01*
X174717280Y-44958995D01*
X174718694Y-44959456D01*
G37*
G36*
X177718694Y-44959456D02*
G01*
X177765745Y-44998777D01*
X177834461Y-45007408D01*
X177897091Y-44977444D01*
X177904598Y-44968781D01*
X177906488Y-44968127D01*
X177907999Y-44969437D01*
X177907772Y-44971202D01*
X177899325Y-44983844D01*
X177890800Y-45026699D01*
X177890800Y-45976301D01*
X177899325Y-46019156D01*
X177913852Y-46040898D01*
X177913983Y-46042894D01*
X177912320Y-46044005D01*
X177910906Y-46043544D01*
X177863855Y-46004223D01*
X177795139Y-45995592D01*
X177732509Y-46025556D01*
X177725002Y-46034219D01*
X177723112Y-46034873D01*
X177721601Y-46033563D01*
X177721828Y-46031798D01*
X177730275Y-46019156D01*
X177738800Y-45976301D01*
X177738800Y-45026699D01*
X177730275Y-44983844D01*
X177715748Y-44962102D01*
X177715617Y-44960106D01*
X177717280Y-44958995D01*
X177718694Y-44959456D01*
G37*
G36*
X176218694Y-44959456D02*
G01*
X176265745Y-44998777D01*
X176334461Y-45007408D01*
X176397091Y-44977444D01*
X176404598Y-44968781D01*
X176406488Y-44968127D01*
X176407999Y-44969437D01*
X176407772Y-44971202D01*
X176399325Y-44983844D01*
X176390800Y-45026699D01*
X176390800Y-45976301D01*
X176399325Y-46019156D01*
X176413852Y-46040898D01*
X176413983Y-46042894D01*
X176412320Y-46044005D01*
X176410906Y-46043544D01*
X176363855Y-46004223D01*
X176295139Y-45995592D01*
X176232509Y-46025556D01*
X176225002Y-46034219D01*
X176223112Y-46034873D01*
X176221601Y-46033563D01*
X176221828Y-46031798D01*
X176230275Y-46019156D01*
X176238800Y-45976301D01*
X176238800Y-45026699D01*
X176230275Y-44983844D01*
X176215748Y-44962102D01*
X176215617Y-44960106D01*
X176217280Y-44958995D01*
X176218694Y-44959456D01*
G37*
G36*
X180434267Y-45676886D02*
G01*
X180445262Y-45684233D01*
X180464199Y-45688000D01*
X181963801Y-45688000D01*
X181982738Y-45684233D01*
X181993733Y-45676886D01*
X181995729Y-45676755D01*
X181996840Y-45678418D01*
X181996507Y-45679660D01*
X181987291Y-45693452D01*
X181989031Y-45694615D01*
X181989916Y-45696409D01*
X181989455Y-45697560D01*
X181974922Y-45714952D01*
X181966296Y-45783670D01*
X181989082Y-45831288D01*
X181988928Y-45833282D01*
X181988389Y-45833814D01*
X181987291Y-45834548D01*
X181996507Y-45848340D01*
X181996638Y-45850336D01*
X181994975Y-45851447D01*
X181993733Y-45851114D01*
X181982738Y-45843767D01*
X181963801Y-45840000D01*
X180464199Y-45840000D01*
X180445262Y-45843767D01*
X180434267Y-45851114D01*
X180432271Y-45851245D01*
X180431160Y-45849582D01*
X180431493Y-45848340D01*
X180440709Y-45834548D01*
X180438969Y-45833385D01*
X180438084Y-45831591D01*
X180438545Y-45830440D01*
X180453078Y-45813048D01*
X180461704Y-45744330D01*
X180438918Y-45696712D01*
X180439072Y-45694718D01*
X180439611Y-45694186D01*
X180440709Y-45693452D01*
X180431493Y-45679660D01*
X180431362Y-45677664D01*
X180433025Y-45676553D01*
X180434267Y-45676886D01*
G37*
G36*
X169034267Y-45676886D02*
G01*
X169045262Y-45684233D01*
X169064199Y-45688000D01*
X170563801Y-45688000D01*
X170582738Y-45684233D01*
X170593733Y-45676886D01*
X170595729Y-45676755D01*
X170596840Y-45678418D01*
X170596507Y-45679660D01*
X170587291Y-45693452D01*
X170589031Y-45694615D01*
X170589916Y-45696409D01*
X170589455Y-45697560D01*
X170574922Y-45714952D01*
X170566296Y-45783670D01*
X170589082Y-45831288D01*
X170588928Y-45833282D01*
X170588389Y-45833814D01*
X170587291Y-45834548D01*
X170596507Y-45848340D01*
X170596638Y-45850336D01*
X170594975Y-45851447D01*
X170593733Y-45851114D01*
X170582738Y-45843767D01*
X170563801Y-45840000D01*
X169064199Y-45840000D01*
X169045262Y-45843767D01*
X169034267Y-45851114D01*
X169032271Y-45851245D01*
X169031160Y-45849582D01*
X169031493Y-45848340D01*
X169040709Y-45834548D01*
X169038969Y-45833385D01*
X169038084Y-45831591D01*
X169038545Y-45830440D01*
X169053078Y-45813048D01*
X169061704Y-45744330D01*
X169038918Y-45696712D01*
X169039072Y-45694718D01*
X169039611Y-45694186D01*
X169040709Y-45693452D01*
X169031493Y-45679660D01*
X169031362Y-45677664D01*
X169033025Y-45676553D01*
X169034267Y-45676886D01*
G37*
G36*
X169034267Y-44876886D02*
G01*
X169045262Y-44884233D01*
X169064199Y-44888000D01*
X170563801Y-44888000D01*
X170582738Y-44884233D01*
X170593733Y-44876886D01*
X170595729Y-44876755D01*
X170596840Y-44878418D01*
X170596507Y-44879660D01*
X170587291Y-44893452D01*
X170589031Y-44894615D01*
X170589916Y-44896409D01*
X170589455Y-44897560D01*
X170574922Y-44914952D01*
X170566296Y-44983670D01*
X170589082Y-45031288D01*
X170588928Y-45033282D01*
X170588389Y-45033814D01*
X170587291Y-45034548D01*
X170596507Y-45048340D01*
X170596638Y-45050336D01*
X170594975Y-45051447D01*
X170593733Y-45051114D01*
X170582738Y-45043767D01*
X170563801Y-45040000D01*
X169064199Y-45040000D01*
X169045262Y-45043767D01*
X169034267Y-45051114D01*
X169032271Y-45051245D01*
X169031160Y-45049582D01*
X169031493Y-45048340D01*
X169040709Y-45034548D01*
X169038969Y-45033385D01*
X169038084Y-45031591D01*
X169038545Y-45030440D01*
X169053078Y-45013048D01*
X169061704Y-44944330D01*
X169038918Y-44896712D01*
X169039072Y-44894718D01*
X169039611Y-44894186D01*
X169040709Y-44893452D01*
X169031493Y-44879660D01*
X169031362Y-44877664D01*
X169033025Y-44876553D01*
X169034267Y-44876886D01*
G37*
G36*
X180434267Y-44876886D02*
G01*
X180445262Y-44884233D01*
X180464199Y-44888000D01*
X181963801Y-44888000D01*
X181982738Y-44884233D01*
X181993733Y-44876886D01*
X181995729Y-44876755D01*
X181996840Y-44878418D01*
X181996507Y-44879660D01*
X181987291Y-44893452D01*
X181989031Y-44894615D01*
X181989916Y-44896409D01*
X181989455Y-44897560D01*
X181974922Y-44914952D01*
X181966296Y-44983670D01*
X181989082Y-45031288D01*
X181988928Y-45033282D01*
X181988389Y-45033814D01*
X181987291Y-45034548D01*
X181996507Y-45048340D01*
X181996638Y-45050336D01*
X181994975Y-45051447D01*
X181993733Y-45051114D01*
X181982738Y-45043767D01*
X181963801Y-45040000D01*
X180464199Y-45040000D01*
X180445262Y-45043767D01*
X180434267Y-45051114D01*
X180432271Y-45051245D01*
X180431160Y-45049582D01*
X180431493Y-45048340D01*
X180440709Y-45034548D01*
X180438969Y-45033385D01*
X180438084Y-45031591D01*
X180438545Y-45030440D01*
X180453078Y-45013048D01*
X180461704Y-44944330D01*
X180438918Y-44896712D01*
X180439072Y-44894718D01*
X180439611Y-44894186D01*
X180440709Y-44893452D01*
X180431493Y-44879660D01*
X180431362Y-44877664D01*
X180433025Y-44876553D01*
X180434267Y-44876886D01*
G37*
G36*
X179444805Y-44316480D02*
G01*
X179444344Y-44317894D01*
X179405023Y-44364945D01*
X179396392Y-44433661D01*
X179426356Y-44496291D01*
X179435019Y-44503798D01*
X179435673Y-44505688D01*
X179434363Y-44507199D01*
X179432598Y-44506972D01*
X179419956Y-44498525D01*
X179377101Y-44490000D01*
X178427499Y-44490000D01*
X178384644Y-44498525D01*
X178362902Y-44513052D01*
X178360906Y-44513183D01*
X178359795Y-44511520D01*
X178360256Y-44510106D01*
X178399577Y-44463055D01*
X178408208Y-44394339D01*
X178378244Y-44331709D01*
X178369581Y-44324202D01*
X178368927Y-44322312D01*
X178370237Y-44320801D01*
X178372002Y-44321028D01*
X178384644Y-44329475D01*
X178427499Y-44338000D01*
X179377101Y-44338000D01*
X179419956Y-44329475D01*
X179441698Y-44314948D01*
X179443694Y-44314817D01*
X179444805Y-44316480D01*
G37*
G36*
X172769805Y-44316480D02*
G01*
X172769344Y-44317894D01*
X172730023Y-44364945D01*
X172721392Y-44433661D01*
X172751356Y-44496291D01*
X172760019Y-44503798D01*
X172760673Y-44505688D01*
X172759363Y-44507199D01*
X172757598Y-44506972D01*
X172744956Y-44498525D01*
X172702101Y-44490000D01*
X171752499Y-44490000D01*
X171709644Y-44498525D01*
X171687902Y-44513052D01*
X171685906Y-44513183D01*
X171684795Y-44511520D01*
X171685256Y-44510106D01*
X171724577Y-44463055D01*
X171733208Y-44394339D01*
X171703244Y-44331709D01*
X171694581Y-44324202D01*
X171693927Y-44322312D01*
X171695237Y-44320801D01*
X171697002Y-44321028D01*
X171709644Y-44329475D01*
X171752499Y-44338000D01*
X172702101Y-44338000D01*
X172744956Y-44329475D01*
X172766698Y-44314948D01*
X172768694Y-44314817D01*
X172769805Y-44316480D01*
G37*
G36*
X169034267Y-44076886D02*
G01*
X169045262Y-44084233D01*
X169064199Y-44088000D01*
X170563801Y-44088000D01*
X170582738Y-44084233D01*
X170593733Y-44076886D01*
X170595729Y-44076755D01*
X170596840Y-44078418D01*
X170596507Y-44079660D01*
X170587291Y-44093452D01*
X170589031Y-44094615D01*
X170589916Y-44096409D01*
X170589455Y-44097560D01*
X170574922Y-44114952D01*
X170566296Y-44183670D01*
X170589082Y-44231288D01*
X170588928Y-44233282D01*
X170588389Y-44233814D01*
X170587291Y-44234548D01*
X170596507Y-44248340D01*
X170596638Y-44250336D01*
X170594975Y-44251447D01*
X170593733Y-44251114D01*
X170582738Y-44243767D01*
X170563801Y-44240000D01*
X169064199Y-44240000D01*
X169045262Y-44243767D01*
X169034267Y-44251114D01*
X169032271Y-44251245D01*
X169031160Y-44249582D01*
X169031493Y-44248340D01*
X169040709Y-44234548D01*
X169038969Y-44233385D01*
X169038084Y-44231591D01*
X169038545Y-44230440D01*
X169053078Y-44213048D01*
X169061704Y-44144330D01*
X169038918Y-44096712D01*
X169039072Y-44094718D01*
X169039611Y-44094186D01*
X169040709Y-44093452D01*
X169031493Y-44079660D01*
X169031362Y-44077664D01*
X169033025Y-44076553D01*
X169034267Y-44076886D01*
G37*
G36*
X180434267Y-44076886D02*
G01*
X180445262Y-44084233D01*
X180464199Y-44088000D01*
X181963801Y-44088000D01*
X181982738Y-44084233D01*
X181993733Y-44076886D01*
X181995729Y-44076755D01*
X181996840Y-44078418D01*
X181996507Y-44079660D01*
X181987291Y-44093452D01*
X181989031Y-44094615D01*
X181989916Y-44096409D01*
X181989455Y-44097560D01*
X181974922Y-44114952D01*
X181966296Y-44183670D01*
X181989082Y-44231288D01*
X181988928Y-44233282D01*
X181988389Y-44233814D01*
X181987291Y-44234548D01*
X181996507Y-44248340D01*
X181996638Y-44250336D01*
X181994975Y-44251447D01*
X181993733Y-44251114D01*
X181982738Y-44243767D01*
X181963801Y-44240000D01*
X180464199Y-44240000D01*
X180445262Y-44243767D01*
X180434267Y-44251114D01*
X180432271Y-44251245D01*
X180431160Y-44249582D01*
X180431493Y-44248340D01*
X180440709Y-44234548D01*
X180438969Y-44233385D01*
X180438084Y-44231591D01*
X180438545Y-44230440D01*
X180453078Y-44213048D01*
X180461704Y-44144330D01*
X180438918Y-44096712D01*
X180439072Y-44094718D01*
X180439611Y-44094186D01*
X180440709Y-44093452D01*
X180431493Y-44079660D01*
X180431362Y-44077664D01*
X180433025Y-44076553D01*
X180434267Y-44076886D01*
G37*
G36*
X179444805Y-43816480D02*
G01*
X179444344Y-43817894D01*
X179405023Y-43864945D01*
X179396392Y-43933661D01*
X179426356Y-43996291D01*
X179435019Y-44003798D01*
X179435673Y-44005688D01*
X179434363Y-44007199D01*
X179432598Y-44006972D01*
X179419956Y-43998525D01*
X179377101Y-43990000D01*
X178427499Y-43990000D01*
X178384644Y-43998525D01*
X178362902Y-44013052D01*
X178360906Y-44013183D01*
X178359795Y-44011520D01*
X178360256Y-44010106D01*
X178399577Y-43963055D01*
X178408208Y-43894339D01*
X178378244Y-43831709D01*
X178369581Y-43824202D01*
X178368927Y-43822312D01*
X178370237Y-43820801D01*
X178372002Y-43821028D01*
X178384644Y-43829475D01*
X178427499Y-43838000D01*
X179377101Y-43838000D01*
X179419956Y-43829475D01*
X179441698Y-43814948D01*
X179443694Y-43814817D01*
X179444805Y-43816480D01*
G37*
G36*
X172769805Y-43816480D02*
G01*
X172769344Y-43817894D01*
X172730023Y-43864945D01*
X172721392Y-43933661D01*
X172751356Y-43996291D01*
X172760019Y-44003798D01*
X172760673Y-44005688D01*
X172759363Y-44007199D01*
X172757598Y-44006972D01*
X172744956Y-43998525D01*
X172702101Y-43990000D01*
X171752499Y-43990000D01*
X171709644Y-43998525D01*
X171687902Y-44013052D01*
X171685906Y-44013183D01*
X171684795Y-44011520D01*
X171685256Y-44010106D01*
X171724577Y-43963055D01*
X171733208Y-43894339D01*
X171703244Y-43831709D01*
X171694581Y-43824202D01*
X171693927Y-43822312D01*
X171695237Y-43820801D01*
X171697002Y-43821028D01*
X171709644Y-43829475D01*
X171752499Y-43838000D01*
X172702101Y-43838000D01*
X172744956Y-43829475D01*
X172766698Y-43814948D01*
X172768694Y-43814817D01*
X172769805Y-43816480D01*
G37*
G36*
X172769805Y-43316480D02*
G01*
X172769344Y-43317894D01*
X172730023Y-43364945D01*
X172721392Y-43433661D01*
X172751356Y-43496291D01*
X172760019Y-43503798D01*
X172760673Y-43505688D01*
X172759363Y-43507199D01*
X172757598Y-43506972D01*
X172744956Y-43498525D01*
X172702101Y-43490000D01*
X171752499Y-43490000D01*
X171709644Y-43498525D01*
X171687902Y-43513052D01*
X171685906Y-43513183D01*
X171684795Y-43511520D01*
X171685256Y-43510106D01*
X171724577Y-43463055D01*
X171733208Y-43394339D01*
X171703244Y-43331709D01*
X171694581Y-43324202D01*
X171693927Y-43322312D01*
X171695237Y-43320801D01*
X171697002Y-43321028D01*
X171709644Y-43329475D01*
X171752499Y-43338000D01*
X172702101Y-43338000D01*
X172744956Y-43329475D01*
X172766698Y-43314948D01*
X172768694Y-43314817D01*
X172769805Y-43316480D01*
G37*
G36*
X179444805Y-43316480D02*
G01*
X179444344Y-43317894D01*
X179405023Y-43364945D01*
X179396392Y-43433661D01*
X179426356Y-43496291D01*
X179435019Y-43503798D01*
X179435673Y-43505688D01*
X179434363Y-43507199D01*
X179432598Y-43506972D01*
X179419956Y-43498525D01*
X179377101Y-43490000D01*
X178427499Y-43490000D01*
X178384644Y-43498525D01*
X178362902Y-43513052D01*
X178360906Y-43513183D01*
X178359795Y-43511520D01*
X178360256Y-43510106D01*
X178399577Y-43463055D01*
X178408208Y-43394339D01*
X178378244Y-43331709D01*
X178369581Y-43324202D01*
X178368927Y-43322312D01*
X178370237Y-43320801D01*
X178372002Y-43321028D01*
X178384644Y-43329475D01*
X178427499Y-43338000D01*
X179377101Y-43338000D01*
X179419956Y-43329475D01*
X179441698Y-43314948D01*
X179443694Y-43314817D01*
X179444805Y-43316480D01*
G37*
G36*
X180434267Y-43276886D02*
G01*
X180445262Y-43284233D01*
X180464199Y-43288000D01*
X181963801Y-43288000D01*
X181982738Y-43284233D01*
X181993733Y-43276886D01*
X181995729Y-43276755D01*
X181996840Y-43278418D01*
X181996507Y-43279660D01*
X181987291Y-43293452D01*
X181989031Y-43294615D01*
X181989916Y-43296409D01*
X181989455Y-43297560D01*
X181974922Y-43314952D01*
X181966296Y-43383670D01*
X181989082Y-43431288D01*
X181988928Y-43433282D01*
X181988389Y-43433814D01*
X181987291Y-43434548D01*
X181996507Y-43448340D01*
X181996638Y-43450336D01*
X181994975Y-43451447D01*
X181993733Y-43451114D01*
X181982738Y-43443767D01*
X181963801Y-43440000D01*
X180464199Y-43440000D01*
X180445262Y-43443767D01*
X180434267Y-43451114D01*
X180432271Y-43451245D01*
X180431160Y-43449582D01*
X180431493Y-43448340D01*
X180440709Y-43434548D01*
X180438969Y-43433385D01*
X180438084Y-43431591D01*
X180438545Y-43430440D01*
X180453078Y-43413048D01*
X180461704Y-43344330D01*
X180438918Y-43296712D01*
X180439072Y-43294718D01*
X180439611Y-43294186D01*
X180440709Y-43293452D01*
X180431493Y-43279660D01*
X180431362Y-43277664D01*
X180433025Y-43276553D01*
X180434267Y-43276886D01*
G37*
G36*
X169034267Y-43276886D02*
G01*
X169045262Y-43284233D01*
X169064199Y-43288000D01*
X170563801Y-43288000D01*
X170582738Y-43284233D01*
X170593733Y-43276886D01*
X170595729Y-43276755D01*
X170596840Y-43278418D01*
X170596507Y-43279660D01*
X170587291Y-43293452D01*
X170589031Y-43294615D01*
X170589916Y-43296409D01*
X170589455Y-43297560D01*
X170574922Y-43314952D01*
X170566296Y-43383670D01*
X170589082Y-43431288D01*
X170588928Y-43433282D01*
X170588389Y-43433814D01*
X170587291Y-43434548D01*
X170596507Y-43448340D01*
X170596638Y-43450336D01*
X170594975Y-43451447D01*
X170593733Y-43451114D01*
X170582738Y-43443767D01*
X170563801Y-43440000D01*
X169064199Y-43440000D01*
X169045262Y-43443767D01*
X169034267Y-43451114D01*
X169032271Y-43451245D01*
X169031160Y-43449582D01*
X169031493Y-43448340D01*
X169040709Y-43434548D01*
X169038969Y-43433385D01*
X169038084Y-43431591D01*
X169038545Y-43430440D01*
X169053078Y-43413048D01*
X169061704Y-43344330D01*
X169038918Y-43296712D01*
X169039072Y-43294718D01*
X169039611Y-43294186D01*
X169040709Y-43293452D01*
X169031493Y-43279660D01*
X169031362Y-43277664D01*
X169033025Y-43276553D01*
X169034267Y-43276886D01*
G37*
G36*
X172769805Y-42816480D02*
G01*
X172769344Y-42817894D01*
X172730023Y-42864945D01*
X172721392Y-42933661D01*
X172751356Y-42996291D01*
X172760019Y-43003798D01*
X172760673Y-43005688D01*
X172759363Y-43007199D01*
X172757598Y-43006972D01*
X172744956Y-42998525D01*
X172702101Y-42990000D01*
X171752499Y-42990000D01*
X171709644Y-42998525D01*
X171687902Y-43013052D01*
X171685906Y-43013183D01*
X171684795Y-43011520D01*
X171685256Y-43010106D01*
X171724577Y-42963055D01*
X171733208Y-42894339D01*
X171703244Y-42831709D01*
X171694581Y-42824202D01*
X171693927Y-42822312D01*
X171695237Y-42820801D01*
X171697002Y-42821028D01*
X171709644Y-42829475D01*
X171752499Y-42838000D01*
X172702101Y-42838000D01*
X172744956Y-42829475D01*
X172766698Y-42814948D01*
X172768694Y-42814817D01*
X172769805Y-42816480D01*
G37*
G36*
X179444805Y-42816480D02*
G01*
X179444344Y-42817894D01*
X179405023Y-42864945D01*
X179396392Y-42933661D01*
X179426356Y-42996291D01*
X179435019Y-43003798D01*
X179435673Y-43005688D01*
X179434363Y-43007199D01*
X179432598Y-43006972D01*
X179419956Y-42998525D01*
X179377101Y-42990000D01*
X178427499Y-42990000D01*
X178384644Y-42998525D01*
X178362902Y-43013052D01*
X178360906Y-43013183D01*
X178359795Y-43011520D01*
X178360256Y-43010106D01*
X178399577Y-42963055D01*
X178408208Y-42894339D01*
X178378244Y-42831709D01*
X178369581Y-42824202D01*
X178368927Y-42822312D01*
X178370237Y-42820801D01*
X178372002Y-42821028D01*
X178384644Y-42829475D01*
X178427499Y-42838000D01*
X179377101Y-42838000D01*
X179419956Y-42829475D01*
X179441698Y-42814948D01*
X179443694Y-42814817D01*
X179444805Y-42816480D01*
G37*
G36*
X180434267Y-42476886D02*
G01*
X180445262Y-42484233D01*
X180464199Y-42488000D01*
X181963801Y-42488000D01*
X181982738Y-42484233D01*
X181993733Y-42476886D01*
X181995729Y-42476755D01*
X181996840Y-42478418D01*
X181996507Y-42479660D01*
X181987291Y-42493452D01*
X181989031Y-42494615D01*
X181989916Y-42496409D01*
X181989455Y-42497560D01*
X181974922Y-42514952D01*
X181966296Y-42583670D01*
X181989082Y-42631288D01*
X181988928Y-42633282D01*
X181988389Y-42633814D01*
X181987291Y-42634548D01*
X181996507Y-42648340D01*
X181996638Y-42650336D01*
X181994975Y-42651447D01*
X181993733Y-42651114D01*
X181982738Y-42643767D01*
X181963801Y-42640000D01*
X180464199Y-42640000D01*
X180445262Y-42643767D01*
X180434267Y-42651114D01*
X180432271Y-42651245D01*
X180431160Y-42649582D01*
X180431493Y-42648340D01*
X180440709Y-42634548D01*
X180438969Y-42633385D01*
X180438084Y-42631591D01*
X180438545Y-42630440D01*
X180453078Y-42613048D01*
X180461704Y-42544330D01*
X180438918Y-42496712D01*
X180439072Y-42494718D01*
X180439611Y-42494186D01*
X180440709Y-42493452D01*
X180431493Y-42479660D01*
X180431362Y-42477664D01*
X180433025Y-42476553D01*
X180434267Y-42476886D01*
G37*
G36*
X169034267Y-42476886D02*
G01*
X169045262Y-42484233D01*
X169064199Y-42488000D01*
X170563801Y-42488000D01*
X170582738Y-42484233D01*
X170593733Y-42476886D01*
X170595729Y-42476755D01*
X170596840Y-42478418D01*
X170596507Y-42479660D01*
X170587291Y-42493452D01*
X170589031Y-42494615D01*
X170589916Y-42496409D01*
X170589455Y-42497560D01*
X170574922Y-42514952D01*
X170566296Y-42583670D01*
X170589082Y-42631288D01*
X170588928Y-42633282D01*
X170588389Y-42633814D01*
X170587291Y-42634548D01*
X170596507Y-42648340D01*
X170596638Y-42650336D01*
X170594975Y-42651447D01*
X170593733Y-42651114D01*
X170582738Y-42643767D01*
X170563801Y-42640000D01*
X169064199Y-42640000D01*
X169045262Y-42643767D01*
X169034267Y-42651114D01*
X169032271Y-42651245D01*
X169031160Y-42649582D01*
X169031493Y-42648340D01*
X169040709Y-42634548D01*
X169038969Y-42633385D01*
X169038084Y-42631591D01*
X169038545Y-42630440D01*
X169053078Y-42613048D01*
X169061704Y-42544330D01*
X169038918Y-42496712D01*
X169039072Y-42494718D01*
X169039611Y-42494186D01*
X169040709Y-42493452D01*
X169031493Y-42479660D01*
X169031362Y-42477664D01*
X169033025Y-42476553D01*
X169034267Y-42476886D01*
G37*
G36*
X172769805Y-42316480D02*
G01*
X172769344Y-42317894D01*
X172730023Y-42364945D01*
X172721392Y-42433661D01*
X172751356Y-42496291D01*
X172760019Y-42503798D01*
X172760673Y-42505688D01*
X172759363Y-42507199D01*
X172757598Y-42506972D01*
X172744956Y-42498525D01*
X172702101Y-42490000D01*
X171752499Y-42490000D01*
X171709644Y-42498525D01*
X171687902Y-42513052D01*
X171685906Y-42513183D01*
X171684795Y-42511520D01*
X171685256Y-42510106D01*
X171724577Y-42463055D01*
X171733208Y-42394339D01*
X171703244Y-42331709D01*
X171694581Y-42324202D01*
X171693927Y-42322312D01*
X171695237Y-42320801D01*
X171697002Y-42321028D01*
X171709644Y-42329475D01*
X171752499Y-42338000D01*
X172702101Y-42338000D01*
X172744956Y-42329475D01*
X172766698Y-42314948D01*
X172768694Y-42314817D01*
X172769805Y-42316480D01*
G37*
G36*
X179444805Y-42316480D02*
G01*
X179444344Y-42317894D01*
X179405023Y-42364945D01*
X179396392Y-42433661D01*
X179426356Y-42496291D01*
X179435019Y-42503798D01*
X179435673Y-42505688D01*
X179434363Y-42507199D01*
X179432598Y-42506972D01*
X179419956Y-42498525D01*
X179377101Y-42490000D01*
X178427499Y-42490000D01*
X178384644Y-42498525D01*
X178362902Y-42513052D01*
X178360906Y-42513183D01*
X178359795Y-42511520D01*
X178360256Y-42510106D01*
X178399577Y-42463055D01*
X178408208Y-42394339D01*
X178378244Y-42331709D01*
X178369581Y-42324202D01*
X178368927Y-42322312D01*
X178370237Y-42320801D01*
X178372002Y-42321028D01*
X178384644Y-42329475D01*
X178427499Y-42338000D01*
X179377101Y-42338000D01*
X179419956Y-42329475D01*
X179441698Y-42314948D01*
X179443694Y-42314817D01*
X179444805Y-42316480D01*
G37*
G36*
X172769805Y-41816480D02*
G01*
X172769344Y-41817894D01*
X172730023Y-41864945D01*
X172721392Y-41933661D01*
X172751356Y-41996291D01*
X172760019Y-42003798D01*
X172760673Y-42005688D01*
X172759363Y-42007199D01*
X172757598Y-42006972D01*
X172744956Y-41998525D01*
X172702101Y-41990000D01*
X171752499Y-41990000D01*
X171709644Y-41998525D01*
X171687902Y-42013052D01*
X171685906Y-42013183D01*
X171684795Y-42011520D01*
X171685256Y-42010106D01*
X171724577Y-41963055D01*
X171733208Y-41894339D01*
X171703244Y-41831709D01*
X171694581Y-41824202D01*
X171693927Y-41822312D01*
X171695237Y-41820801D01*
X171697002Y-41821028D01*
X171709644Y-41829475D01*
X171752499Y-41838000D01*
X172702101Y-41838000D01*
X172744956Y-41829475D01*
X172766698Y-41814948D01*
X172768694Y-41814817D01*
X172769805Y-41816480D01*
G37*
G36*
X179444805Y-41816480D02*
G01*
X179444344Y-41817894D01*
X179405023Y-41864945D01*
X179396392Y-41933661D01*
X179426356Y-41996291D01*
X179435019Y-42003798D01*
X179435673Y-42005688D01*
X179434363Y-42007199D01*
X179432598Y-42006972D01*
X179419956Y-41998525D01*
X179377101Y-41990000D01*
X178427499Y-41990000D01*
X178384644Y-41998525D01*
X178362902Y-42013052D01*
X178360906Y-42013183D01*
X178359795Y-42011520D01*
X178360256Y-42010106D01*
X178399577Y-41963055D01*
X178408208Y-41894339D01*
X178378244Y-41831709D01*
X178369581Y-41824202D01*
X178368927Y-41822312D01*
X178370237Y-41820801D01*
X178372002Y-41821028D01*
X178384644Y-41829475D01*
X178427499Y-41838000D01*
X179377101Y-41838000D01*
X179419956Y-41829475D01*
X179441698Y-41814948D01*
X179443694Y-41814817D01*
X179444805Y-41816480D01*
G37*
G36*
X180434267Y-41676886D02*
G01*
X180445262Y-41684233D01*
X180464199Y-41688000D01*
X181963801Y-41688000D01*
X181982738Y-41684233D01*
X181993733Y-41676886D01*
X181995729Y-41676755D01*
X181996840Y-41678418D01*
X181996507Y-41679660D01*
X181987291Y-41693452D01*
X181989031Y-41694615D01*
X181989916Y-41696409D01*
X181989455Y-41697560D01*
X181974922Y-41714952D01*
X181966296Y-41783670D01*
X181989082Y-41831288D01*
X181988928Y-41833282D01*
X181988389Y-41833814D01*
X181987291Y-41834548D01*
X181996507Y-41848340D01*
X181996638Y-41850336D01*
X181994975Y-41851447D01*
X181993733Y-41851114D01*
X181982738Y-41843767D01*
X181963801Y-41840000D01*
X180464199Y-41840000D01*
X180445262Y-41843767D01*
X180434267Y-41851114D01*
X180432271Y-41851245D01*
X180431160Y-41849582D01*
X180431493Y-41848340D01*
X180440709Y-41834548D01*
X180438969Y-41833385D01*
X180438084Y-41831591D01*
X180438545Y-41830440D01*
X180453078Y-41813048D01*
X180461704Y-41744330D01*
X180438918Y-41696712D01*
X180439072Y-41694718D01*
X180439611Y-41694186D01*
X180440709Y-41693452D01*
X180431493Y-41679660D01*
X180431362Y-41677664D01*
X180433025Y-41676553D01*
X180434267Y-41676886D01*
G37*
G36*
X169034267Y-41676886D02*
G01*
X169045262Y-41684233D01*
X169064199Y-41688000D01*
X170563801Y-41688000D01*
X170582738Y-41684233D01*
X170593733Y-41676886D01*
X170595729Y-41676755D01*
X170596840Y-41678418D01*
X170596507Y-41679660D01*
X170587291Y-41693452D01*
X170589031Y-41694615D01*
X170589916Y-41696409D01*
X170589455Y-41697560D01*
X170574922Y-41714952D01*
X170566296Y-41783670D01*
X170589082Y-41831288D01*
X170588928Y-41833282D01*
X170588389Y-41833814D01*
X170587291Y-41834548D01*
X170596507Y-41848340D01*
X170596638Y-41850336D01*
X170594975Y-41851447D01*
X170593733Y-41851114D01*
X170582738Y-41843767D01*
X170563801Y-41840000D01*
X169064199Y-41840000D01*
X169045262Y-41843767D01*
X169034267Y-41851114D01*
X169032271Y-41851245D01*
X169031160Y-41849582D01*
X169031493Y-41848340D01*
X169040709Y-41834548D01*
X169038969Y-41833385D01*
X169038084Y-41831591D01*
X169038545Y-41830440D01*
X169053078Y-41813048D01*
X169061704Y-41744330D01*
X169038918Y-41696712D01*
X169039072Y-41694718D01*
X169039611Y-41694186D01*
X169040709Y-41693452D01*
X169031493Y-41679660D01*
X169031362Y-41677664D01*
X169033025Y-41676553D01*
X169034267Y-41676886D01*
G37*
G36*
X179444805Y-41316480D02*
G01*
X179444344Y-41317894D01*
X179405023Y-41364945D01*
X179396392Y-41433661D01*
X179426356Y-41496291D01*
X179435019Y-41503798D01*
X179435673Y-41505688D01*
X179434363Y-41507199D01*
X179432598Y-41506972D01*
X179419956Y-41498525D01*
X179377101Y-41490000D01*
X178427499Y-41490000D01*
X178384644Y-41498525D01*
X178362902Y-41513052D01*
X178360906Y-41513183D01*
X178359795Y-41511520D01*
X178360256Y-41510106D01*
X178399577Y-41463055D01*
X178408208Y-41394339D01*
X178378244Y-41331709D01*
X178369581Y-41324202D01*
X178368927Y-41322312D01*
X178370237Y-41320801D01*
X178372002Y-41321028D01*
X178384644Y-41329475D01*
X178427499Y-41338000D01*
X179377101Y-41338000D01*
X179419956Y-41329475D01*
X179441698Y-41314948D01*
X179443694Y-41314817D01*
X179444805Y-41316480D01*
G37*
G36*
X172769805Y-41316480D02*
G01*
X172769344Y-41317894D01*
X172730023Y-41364945D01*
X172721392Y-41433661D01*
X172751356Y-41496291D01*
X172760019Y-41503798D01*
X172760673Y-41505688D01*
X172759363Y-41507199D01*
X172757598Y-41506972D01*
X172744956Y-41498525D01*
X172702101Y-41490000D01*
X171752499Y-41490000D01*
X171709644Y-41498525D01*
X171687902Y-41513052D01*
X171685906Y-41513183D01*
X171684795Y-41511520D01*
X171685256Y-41510106D01*
X171724577Y-41463055D01*
X171733208Y-41394339D01*
X171703244Y-41331709D01*
X171694581Y-41324202D01*
X171693927Y-41322312D01*
X171695237Y-41320801D01*
X171697002Y-41321028D01*
X171709644Y-41329475D01*
X171752499Y-41338000D01*
X172702101Y-41338000D01*
X172744956Y-41329475D01*
X172766698Y-41314948D01*
X172768694Y-41314817D01*
X172769805Y-41316480D01*
G37*
G36*
X169034267Y-40876886D02*
G01*
X169045262Y-40884233D01*
X169064199Y-40888000D01*
X170563801Y-40888000D01*
X170582738Y-40884233D01*
X170593733Y-40876886D01*
X170595729Y-40876755D01*
X170596840Y-40878418D01*
X170596507Y-40879660D01*
X170587291Y-40893452D01*
X170589031Y-40894615D01*
X170589916Y-40896409D01*
X170589455Y-40897560D01*
X170574922Y-40914952D01*
X170566296Y-40983670D01*
X170589082Y-41031288D01*
X170588928Y-41033282D01*
X170588389Y-41033814D01*
X170587291Y-41034548D01*
X170596507Y-41048340D01*
X170596638Y-41050336D01*
X170594975Y-41051447D01*
X170593733Y-41051114D01*
X170582738Y-41043767D01*
X170563801Y-41040000D01*
X169064199Y-41040000D01*
X169045262Y-41043767D01*
X169034267Y-41051114D01*
X169032271Y-41051245D01*
X169031160Y-41049582D01*
X169031493Y-41048340D01*
X169040709Y-41034548D01*
X169038969Y-41033385D01*
X169038084Y-41031591D01*
X169038545Y-41030440D01*
X169053078Y-41013048D01*
X169061704Y-40944330D01*
X169038918Y-40896712D01*
X169039072Y-40894718D01*
X169039611Y-40894186D01*
X169040709Y-40893452D01*
X169031493Y-40879660D01*
X169031362Y-40877664D01*
X169033025Y-40876553D01*
X169034267Y-40876886D01*
G37*
G36*
X180434267Y-40876886D02*
G01*
X180445262Y-40884233D01*
X180464199Y-40888000D01*
X181963801Y-40888000D01*
X181982738Y-40884233D01*
X181993733Y-40876886D01*
X181995729Y-40876755D01*
X181996840Y-40878418D01*
X181996507Y-40879660D01*
X181987291Y-40893452D01*
X181989031Y-40894615D01*
X181989916Y-40896409D01*
X181989455Y-40897560D01*
X181974922Y-40914952D01*
X181966296Y-40983670D01*
X181989082Y-41031288D01*
X181988928Y-41033282D01*
X181988389Y-41033814D01*
X181987291Y-41034548D01*
X181996507Y-41048340D01*
X181996638Y-41050336D01*
X181994975Y-41051447D01*
X181993733Y-41051114D01*
X181982738Y-41043767D01*
X181963801Y-41040000D01*
X180464199Y-41040000D01*
X180445262Y-41043767D01*
X180434267Y-41051114D01*
X180432271Y-41051245D01*
X180431160Y-41049582D01*
X180431493Y-41048340D01*
X180440709Y-41034548D01*
X180438969Y-41033385D01*
X180438084Y-41031591D01*
X180438545Y-41030440D01*
X180453078Y-41013048D01*
X180461704Y-40944330D01*
X180438918Y-40896712D01*
X180439072Y-40894718D01*
X180439611Y-40894186D01*
X180440709Y-40893452D01*
X180431493Y-40879660D01*
X180431362Y-40877664D01*
X180433025Y-40876553D01*
X180434267Y-40876886D01*
G37*
G36*
X179444805Y-40816480D02*
G01*
X179444344Y-40817894D01*
X179405023Y-40864945D01*
X179396392Y-40933661D01*
X179426356Y-40996291D01*
X179435019Y-41003798D01*
X179435673Y-41005688D01*
X179434363Y-41007199D01*
X179432598Y-41006972D01*
X179419956Y-40998525D01*
X179377101Y-40990000D01*
X178427499Y-40990000D01*
X178384644Y-40998525D01*
X178362902Y-41013052D01*
X178360906Y-41013183D01*
X178359795Y-41011520D01*
X178360256Y-41010106D01*
X178399577Y-40963055D01*
X178408208Y-40894339D01*
X178378244Y-40831709D01*
X178369581Y-40824202D01*
X178368927Y-40822312D01*
X178370237Y-40820801D01*
X178372002Y-40821028D01*
X178384644Y-40829475D01*
X178427499Y-40838000D01*
X179377101Y-40838000D01*
X179419956Y-40829475D01*
X179441698Y-40814948D01*
X179443694Y-40814817D01*
X179444805Y-40816480D01*
G37*
G36*
X172769805Y-40816480D02*
G01*
X172769344Y-40817894D01*
X172730023Y-40864945D01*
X172721392Y-40933661D01*
X172751356Y-40996291D01*
X172760019Y-41003798D01*
X172760673Y-41005688D01*
X172759363Y-41007199D01*
X172757598Y-41006972D01*
X172744956Y-40998525D01*
X172702101Y-40990000D01*
X171752499Y-40990000D01*
X171709644Y-40998525D01*
X171687902Y-41013052D01*
X171685906Y-41013183D01*
X171684795Y-41011520D01*
X171685256Y-41010106D01*
X171724577Y-40963055D01*
X171733208Y-40894339D01*
X171703244Y-40831709D01*
X171694581Y-40824202D01*
X171693927Y-40822312D01*
X171695237Y-40820801D01*
X171697002Y-40821028D01*
X171709644Y-40829475D01*
X171752499Y-40838000D01*
X172702101Y-40838000D01*
X172744956Y-40829475D01*
X172766698Y-40814948D01*
X172768694Y-40814817D01*
X172769805Y-40816480D01*
G37*
G36*
X179444805Y-40316480D02*
G01*
X179444344Y-40317894D01*
X179405023Y-40364945D01*
X179396392Y-40433661D01*
X179426356Y-40496291D01*
X179435019Y-40503798D01*
X179435673Y-40505688D01*
X179434363Y-40507199D01*
X179432598Y-40506972D01*
X179419956Y-40498525D01*
X179377101Y-40490000D01*
X178427499Y-40490000D01*
X178384644Y-40498525D01*
X178362902Y-40513052D01*
X178360906Y-40513183D01*
X178359795Y-40511520D01*
X178360256Y-40510106D01*
X178399577Y-40463055D01*
X178408208Y-40394339D01*
X178378244Y-40331709D01*
X178369581Y-40324202D01*
X178368927Y-40322312D01*
X178370237Y-40320801D01*
X178372002Y-40321028D01*
X178384644Y-40329475D01*
X178427499Y-40338000D01*
X179377101Y-40338000D01*
X179419956Y-40329475D01*
X179441698Y-40314948D01*
X179443694Y-40314817D01*
X179444805Y-40316480D01*
G37*
G36*
X172769805Y-40316480D02*
G01*
X172769344Y-40317894D01*
X172730023Y-40364945D01*
X172721392Y-40433661D01*
X172751356Y-40496291D01*
X172760019Y-40503798D01*
X172760673Y-40505688D01*
X172759363Y-40507199D01*
X172757598Y-40506972D01*
X172744956Y-40498525D01*
X172702101Y-40490000D01*
X171752499Y-40490000D01*
X171709644Y-40498525D01*
X171687902Y-40513052D01*
X171685906Y-40513183D01*
X171684795Y-40511520D01*
X171685256Y-40510106D01*
X171724577Y-40463055D01*
X171733208Y-40394339D01*
X171703244Y-40331709D01*
X171694581Y-40324202D01*
X171693927Y-40322312D01*
X171695237Y-40320801D01*
X171697002Y-40321028D01*
X171709644Y-40329475D01*
X171752499Y-40338000D01*
X172702101Y-40338000D01*
X172744956Y-40329475D01*
X172766698Y-40314948D01*
X172768694Y-40314817D01*
X172769805Y-40316480D01*
G37*
G36*
X180434267Y-40076886D02*
G01*
X180445262Y-40084233D01*
X180464199Y-40088000D01*
X181963801Y-40088000D01*
X181982738Y-40084233D01*
X181993733Y-40076886D01*
X181995729Y-40076755D01*
X181996840Y-40078418D01*
X181996507Y-40079660D01*
X181987291Y-40093452D01*
X181989031Y-40094615D01*
X181989916Y-40096409D01*
X181989455Y-40097560D01*
X181974922Y-40114952D01*
X181966296Y-40183670D01*
X181989082Y-40231288D01*
X181988928Y-40233282D01*
X181988389Y-40233814D01*
X181987291Y-40234548D01*
X181996507Y-40248340D01*
X181996638Y-40250336D01*
X181994975Y-40251447D01*
X181993733Y-40251114D01*
X181982738Y-40243767D01*
X181963801Y-40240000D01*
X180464199Y-40240000D01*
X180445262Y-40243767D01*
X180434267Y-40251114D01*
X180432271Y-40251245D01*
X180431160Y-40249582D01*
X180431493Y-40248340D01*
X180440709Y-40234548D01*
X180438969Y-40233385D01*
X180438084Y-40231591D01*
X180438545Y-40230440D01*
X180453078Y-40213048D01*
X180461704Y-40144330D01*
X180438918Y-40096712D01*
X180439072Y-40094718D01*
X180439611Y-40094186D01*
X180440709Y-40093452D01*
X180431493Y-40079660D01*
X180431362Y-40077664D01*
X180433025Y-40076553D01*
X180434267Y-40076886D01*
G37*
G36*
X169034267Y-40076886D02*
G01*
X169045262Y-40084233D01*
X169064199Y-40088000D01*
X170563801Y-40088000D01*
X170582738Y-40084233D01*
X170593733Y-40076886D01*
X170595729Y-40076755D01*
X170596840Y-40078418D01*
X170596507Y-40079660D01*
X170587291Y-40093452D01*
X170589031Y-40094615D01*
X170589916Y-40096409D01*
X170589455Y-40097560D01*
X170574922Y-40114952D01*
X170566296Y-40183670D01*
X170589082Y-40231288D01*
X170588928Y-40233282D01*
X170588389Y-40233814D01*
X170587291Y-40234548D01*
X170596507Y-40248340D01*
X170596638Y-40250336D01*
X170594975Y-40251447D01*
X170593733Y-40251114D01*
X170582738Y-40243767D01*
X170563801Y-40240000D01*
X169064199Y-40240000D01*
X169045262Y-40243767D01*
X169034267Y-40251114D01*
X169032271Y-40251245D01*
X169031160Y-40249582D01*
X169031493Y-40248340D01*
X169040709Y-40234548D01*
X169038969Y-40233385D01*
X169038084Y-40231591D01*
X169038545Y-40230440D01*
X169053078Y-40213048D01*
X169061704Y-40144330D01*
X169038918Y-40096712D01*
X169039072Y-40094718D01*
X169039611Y-40094186D01*
X169040709Y-40093452D01*
X169031493Y-40079660D01*
X169031362Y-40077664D01*
X169033025Y-40076553D01*
X169034267Y-40076886D01*
G37*
G36*
X172769805Y-39816480D02*
G01*
X172769344Y-39817894D01*
X172730023Y-39864945D01*
X172721392Y-39933661D01*
X172751356Y-39996291D01*
X172760019Y-40003798D01*
X172760673Y-40005688D01*
X172759363Y-40007199D01*
X172757598Y-40006972D01*
X172744956Y-39998525D01*
X172702101Y-39990000D01*
X171752499Y-39990000D01*
X171709644Y-39998525D01*
X171687902Y-40013052D01*
X171685906Y-40013183D01*
X171684795Y-40011520D01*
X171685256Y-40010106D01*
X171724577Y-39963055D01*
X171733208Y-39894339D01*
X171703244Y-39831709D01*
X171694581Y-39824202D01*
X171693927Y-39822312D01*
X171695237Y-39820801D01*
X171697002Y-39821028D01*
X171709644Y-39829475D01*
X171752499Y-39838000D01*
X172702101Y-39838000D01*
X172744956Y-39829475D01*
X172766698Y-39814948D01*
X172768694Y-39814817D01*
X172769805Y-39816480D01*
G37*
G36*
X179444805Y-39816480D02*
G01*
X179444344Y-39817894D01*
X179405023Y-39864945D01*
X179396392Y-39933661D01*
X179426356Y-39996291D01*
X179435019Y-40003798D01*
X179435673Y-40005688D01*
X179434363Y-40007199D01*
X179432598Y-40006972D01*
X179419956Y-39998525D01*
X179377101Y-39990000D01*
X178427499Y-39990000D01*
X178384644Y-39998525D01*
X178362902Y-40013052D01*
X178360906Y-40013183D01*
X178359795Y-40011520D01*
X178360256Y-40010106D01*
X178399577Y-39963055D01*
X178408208Y-39894339D01*
X178378244Y-39831709D01*
X178369581Y-39824202D01*
X178368927Y-39822312D01*
X178370237Y-39820801D01*
X178372002Y-39821028D01*
X178384644Y-39829475D01*
X178427499Y-39838000D01*
X179377101Y-39838000D01*
X179419956Y-39829475D01*
X179441698Y-39814948D01*
X179443694Y-39814817D01*
X179444805Y-39816480D01*
G37*
G36*
X180434267Y-39276886D02*
G01*
X180445262Y-39284233D01*
X180464199Y-39288000D01*
X181963801Y-39288000D01*
X181982738Y-39284233D01*
X181993733Y-39276886D01*
X181995729Y-39276755D01*
X181996840Y-39278418D01*
X181996507Y-39279660D01*
X181987291Y-39293452D01*
X181989031Y-39294615D01*
X181989916Y-39296409D01*
X181989455Y-39297560D01*
X181974922Y-39314952D01*
X181966296Y-39383670D01*
X181989082Y-39431288D01*
X181988928Y-39433282D01*
X181988389Y-39433814D01*
X181987291Y-39434548D01*
X181996507Y-39448340D01*
X181996638Y-39450336D01*
X181994975Y-39451447D01*
X181993733Y-39451114D01*
X181982738Y-39443767D01*
X181963801Y-39440000D01*
X180464199Y-39440000D01*
X180445262Y-39443767D01*
X180434267Y-39451114D01*
X180432271Y-39451245D01*
X180431160Y-39449582D01*
X180431493Y-39448340D01*
X180440709Y-39434548D01*
X180438969Y-39433385D01*
X180438084Y-39431591D01*
X180438545Y-39430440D01*
X180453078Y-39413048D01*
X180461704Y-39344330D01*
X180438918Y-39296712D01*
X180439072Y-39294718D01*
X180439611Y-39294186D01*
X180440709Y-39293452D01*
X180431493Y-39279660D01*
X180431362Y-39277664D01*
X180433025Y-39276553D01*
X180434267Y-39276886D01*
G37*
G36*
X169034267Y-39276886D02*
G01*
X169045262Y-39284233D01*
X169064199Y-39288000D01*
X170563801Y-39288000D01*
X170582738Y-39284233D01*
X170593733Y-39276886D01*
X170595729Y-39276755D01*
X170596840Y-39278418D01*
X170596507Y-39279660D01*
X170587291Y-39293452D01*
X170589031Y-39294615D01*
X170589916Y-39296409D01*
X170589455Y-39297560D01*
X170574922Y-39314952D01*
X170566296Y-39383670D01*
X170589082Y-39431288D01*
X170588928Y-39433282D01*
X170588389Y-39433814D01*
X170587291Y-39434548D01*
X170596507Y-39448340D01*
X170596638Y-39450336D01*
X170594975Y-39451447D01*
X170593733Y-39451114D01*
X170582738Y-39443767D01*
X170563801Y-39440000D01*
X169064199Y-39440000D01*
X169045262Y-39443767D01*
X169034267Y-39451114D01*
X169032271Y-39451245D01*
X169031160Y-39449582D01*
X169031493Y-39448340D01*
X169040709Y-39434548D01*
X169038969Y-39433385D01*
X169038084Y-39431591D01*
X169038545Y-39430440D01*
X169053078Y-39413048D01*
X169061704Y-39344330D01*
X169038918Y-39296712D01*
X169039072Y-39294718D01*
X169039611Y-39294186D01*
X169040709Y-39293452D01*
X169031493Y-39279660D01*
X169031362Y-39277664D01*
X169033025Y-39276553D01*
X169034267Y-39276886D01*
G37*
G36*
X176718694Y-38284456D02*
G01*
X176765745Y-38323777D01*
X176834461Y-38332408D01*
X176897091Y-38302444D01*
X176904598Y-38293781D01*
X176906488Y-38293127D01*
X176907999Y-38294437D01*
X176907772Y-38296202D01*
X176899325Y-38308844D01*
X176890800Y-38351699D01*
X176890800Y-39301301D01*
X176899325Y-39344156D01*
X176913852Y-39365898D01*
X176913983Y-39367894D01*
X176912320Y-39369005D01*
X176910906Y-39368544D01*
X176863855Y-39329223D01*
X176795139Y-39320592D01*
X176732509Y-39350556D01*
X176725002Y-39359219D01*
X176723112Y-39359873D01*
X176721601Y-39358563D01*
X176721828Y-39356798D01*
X176730275Y-39344156D01*
X176738800Y-39301301D01*
X176738800Y-38351699D01*
X176730275Y-38308844D01*
X176715748Y-38287102D01*
X176715617Y-38285106D01*
X176717280Y-38283995D01*
X176718694Y-38284456D01*
G37*
G36*
X173718694Y-38284456D02*
G01*
X173765745Y-38323777D01*
X173834461Y-38332408D01*
X173897091Y-38302444D01*
X173904598Y-38293781D01*
X173906488Y-38293127D01*
X173907999Y-38294437D01*
X173907772Y-38296202D01*
X173899325Y-38308844D01*
X173890800Y-38351699D01*
X173890800Y-39301301D01*
X173899325Y-39344156D01*
X173913852Y-39365898D01*
X173913983Y-39367894D01*
X173912320Y-39369005D01*
X173910906Y-39368544D01*
X173863855Y-39329223D01*
X173795139Y-39320592D01*
X173732509Y-39350556D01*
X173725002Y-39359219D01*
X173723112Y-39359873D01*
X173721601Y-39358563D01*
X173721828Y-39356798D01*
X173730275Y-39344156D01*
X173738800Y-39301301D01*
X173738800Y-38351699D01*
X173730275Y-38308844D01*
X173715748Y-38287102D01*
X173715617Y-38285106D01*
X173717280Y-38283995D01*
X173718694Y-38284456D01*
G37*
G36*
X173218694Y-38284456D02*
G01*
X173265745Y-38323777D01*
X173334461Y-38332408D01*
X173397091Y-38302444D01*
X173404598Y-38293781D01*
X173406488Y-38293127D01*
X173407999Y-38294437D01*
X173407772Y-38296202D01*
X173399325Y-38308844D01*
X173390800Y-38351699D01*
X173390800Y-39301301D01*
X173399325Y-39344156D01*
X173413852Y-39365898D01*
X173413983Y-39367894D01*
X173412320Y-39369005D01*
X173410906Y-39368544D01*
X173363855Y-39329223D01*
X173295139Y-39320592D01*
X173232509Y-39350556D01*
X173225002Y-39359219D01*
X173223112Y-39359873D01*
X173221601Y-39358563D01*
X173221828Y-39356798D01*
X173230275Y-39344156D01*
X173238800Y-39301301D01*
X173238800Y-38351699D01*
X173230275Y-38308844D01*
X173215748Y-38287102D01*
X173215617Y-38285106D01*
X173217280Y-38283995D01*
X173218694Y-38284456D01*
G37*
G36*
X174718694Y-38284456D02*
G01*
X174765745Y-38323777D01*
X174834461Y-38332408D01*
X174897091Y-38302444D01*
X174904598Y-38293781D01*
X174906488Y-38293127D01*
X174907999Y-38294437D01*
X174907772Y-38296202D01*
X174899325Y-38308844D01*
X174890800Y-38351699D01*
X174890800Y-39301301D01*
X174899325Y-39344156D01*
X174913852Y-39365898D01*
X174913983Y-39367894D01*
X174912320Y-39369005D01*
X174910906Y-39368544D01*
X174863855Y-39329223D01*
X174795139Y-39320592D01*
X174732509Y-39350556D01*
X174725002Y-39359219D01*
X174723112Y-39359873D01*
X174721601Y-39358563D01*
X174721828Y-39356798D01*
X174730275Y-39344156D01*
X174738800Y-39301301D01*
X174738800Y-38351699D01*
X174730275Y-38308844D01*
X174715748Y-38287102D01*
X174715617Y-38285106D01*
X174717280Y-38283995D01*
X174718694Y-38284456D01*
G37*
G36*
X175218694Y-38284456D02*
G01*
X175265745Y-38323777D01*
X175334461Y-38332408D01*
X175397091Y-38302444D01*
X175404598Y-38293781D01*
X175406488Y-38293127D01*
X175407999Y-38294437D01*
X175407772Y-38296202D01*
X175399325Y-38308844D01*
X175390800Y-38351699D01*
X175390800Y-39301301D01*
X175399325Y-39344156D01*
X175413852Y-39365898D01*
X175413983Y-39367894D01*
X175412320Y-39369005D01*
X175410906Y-39368544D01*
X175363855Y-39329223D01*
X175295139Y-39320592D01*
X175232509Y-39350556D01*
X175225002Y-39359219D01*
X175223112Y-39359873D01*
X175221601Y-39358563D01*
X175221828Y-39356798D01*
X175230275Y-39344156D01*
X175238800Y-39301301D01*
X175238800Y-38351699D01*
X175230275Y-38308844D01*
X175215748Y-38287102D01*
X175215617Y-38285106D01*
X175217280Y-38283995D01*
X175218694Y-38284456D01*
G37*
G36*
X177718694Y-38284456D02*
G01*
X177765745Y-38323777D01*
X177834461Y-38332408D01*
X177897091Y-38302444D01*
X177904598Y-38293781D01*
X177906488Y-38293127D01*
X177907999Y-38294437D01*
X177907772Y-38296202D01*
X177899325Y-38308844D01*
X177890800Y-38351699D01*
X177890800Y-39301301D01*
X177899325Y-39344156D01*
X177913852Y-39365898D01*
X177913983Y-39367894D01*
X177912320Y-39369005D01*
X177910906Y-39368544D01*
X177863855Y-39329223D01*
X177795139Y-39320592D01*
X177732509Y-39350556D01*
X177725002Y-39359219D01*
X177723112Y-39359873D01*
X177721601Y-39358563D01*
X177721828Y-39356798D01*
X177730275Y-39344156D01*
X177738800Y-39301301D01*
X177738800Y-38351699D01*
X177730275Y-38308844D01*
X177715748Y-38287102D01*
X177715617Y-38285106D01*
X177717280Y-38283995D01*
X177718694Y-38284456D01*
G37*
G36*
X177218694Y-38284456D02*
G01*
X177265745Y-38323777D01*
X177334461Y-38332408D01*
X177397091Y-38302444D01*
X177404598Y-38293781D01*
X177406488Y-38293127D01*
X177407999Y-38294437D01*
X177407772Y-38296202D01*
X177399325Y-38308844D01*
X177390800Y-38351699D01*
X177390800Y-39301301D01*
X177399325Y-39344156D01*
X177413852Y-39365898D01*
X177413983Y-39367894D01*
X177412320Y-39369005D01*
X177410906Y-39368544D01*
X177363855Y-39329223D01*
X177295139Y-39320592D01*
X177232509Y-39350556D01*
X177225002Y-39359219D01*
X177223112Y-39359873D01*
X177221601Y-39358563D01*
X177221828Y-39356798D01*
X177230275Y-39344156D01*
X177238800Y-39301301D01*
X177238800Y-38351699D01*
X177230275Y-38308844D01*
X177215748Y-38287102D01*
X177215617Y-38285106D01*
X177217280Y-38283995D01*
X177218694Y-38284456D01*
G37*
G36*
X175718694Y-38284456D02*
G01*
X175765745Y-38323777D01*
X175834461Y-38332408D01*
X175897091Y-38302444D01*
X175904598Y-38293781D01*
X175906488Y-38293127D01*
X175907999Y-38294437D01*
X175907772Y-38296202D01*
X175899325Y-38308844D01*
X175890800Y-38351699D01*
X175890800Y-39301301D01*
X175899325Y-39344156D01*
X175913852Y-39365898D01*
X175913983Y-39367894D01*
X175912320Y-39369005D01*
X175910906Y-39368544D01*
X175863855Y-39329223D01*
X175795139Y-39320592D01*
X175732509Y-39350556D01*
X175725002Y-39359219D01*
X175723112Y-39359873D01*
X175721601Y-39358563D01*
X175721828Y-39356798D01*
X175730275Y-39344156D01*
X175738800Y-39301301D01*
X175738800Y-38351699D01*
X175730275Y-38308844D01*
X175715748Y-38287102D01*
X175715617Y-38285106D01*
X175717280Y-38283995D01*
X175718694Y-38284456D01*
G37*
G36*
X176218694Y-38284456D02*
G01*
X176265745Y-38323777D01*
X176334461Y-38332408D01*
X176397091Y-38302444D01*
X176404598Y-38293781D01*
X176406488Y-38293127D01*
X176407999Y-38294437D01*
X176407772Y-38296202D01*
X176399325Y-38308844D01*
X176390800Y-38351699D01*
X176390800Y-39301301D01*
X176399325Y-39344156D01*
X176413852Y-39365898D01*
X176413983Y-39367894D01*
X176412320Y-39369005D01*
X176410906Y-39368544D01*
X176363855Y-39329223D01*
X176295139Y-39320592D01*
X176232509Y-39350556D01*
X176225002Y-39359219D01*
X176223112Y-39359873D01*
X176221601Y-39358563D01*
X176221828Y-39356798D01*
X176230275Y-39344156D01*
X176238800Y-39301301D01*
X176238800Y-38351699D01*
X176230275Y-38308844D01*
X176215748Y-38287102D01*
X176215617Y-38285106D01*
X176217280Y-38283995D01*
X176218694Y-38284456D01*
G37*
G36*
X174218694Y-38284456D02*
G01*
X174265745Y-38323777D01*
X174334461Y-38332408D01*
X174397091Y-38302444D01*
X174404598Y-38293781D01*
X174406488Y-38293127D01*
X174407999Y-38294437D01*
X174407772Y-38296202D01*
X174399325Y-38308844D01*
X174390800Y-38351699D01*
X174390800Y-39301301D01*
X174399325Y-39344156D01*
X174413852Y-39365898D01*
X174413983Y-39367894D01*
X174412320Y-39369005D01*
X174410906Y-39368544D01*
X174363855Y-39329223D01*
X174295139Y-39320592D01*
X174232509Y-39350556D01*
X174225002Y-39359219D01*
X174223112Y-39359873D01*
X174221601Y-39358563D01*
X174221828Y-39356798D01*
X174230275Y-39344156D01*
X174238800Y-39301301D01*
X174238800Y-38351699D01*
X174230275Y-38308844D01*
X174215748Y-38287102D01*
X174215617Y-38285106D01*
X174217280Y-38283995D01*
X174218694Y-38284456D01*
G37*
G36*
X169034267Y-38476886D02*
G01*
X169045262Y-38484233D01*
X169064199Y-38488000D01*
X170563801Y-38488000D01*
X170582738Y-38484233D01*
X170593733Y-38476886D01*
X170595729Y-38476755D01*
X170596840Y-38478418D01*
X170596507Y-38479660D01*
X170587291Y-38493452D01*
X170589031Y-38494615D01*
X170589916Y-38496409D01*
X170589455Y-38497560D01*
X170574922Y-38514952D01*
X170566296Y-38583670D01*
X170589082Y-38631288D01*
X170588928Y-38633282D01*
X170588389Y-38633814D01*
X170587291Y-38634548D01*
X170596507Y-38648340D01*
X170596638Y-38650336D01*
X170594975Y-38651447D01*
X170593733Y-38651114D01*
X170582738Y-38643767D01*
X170563801Y-38640000D01*
X169064199Y-38640000D01*
X169045262Y-38643767D01*
X169034267Y-38651114D01*
X169032271Y-38651245D01*
X169031160Y-38649582D01*
X169031493Y-38648340D01*
X169040709Y-38634548D01*
X169038969Y-38633385D01*
X169038084Y-38631591D01*
X169038545Y-38630440D01*
X169053078Y-38613048D01*
X169061704Y-38544330D01*
X169038918Y-38496712D01*
X169039072Y-38494718D01*
X169039611Y-38494186D01*
X169040709Y-38493452D01*
X169031493Y-38479660D01*
X169031362Y-38477664D01*
X169033025Y-38476553D01*
X169034267Y-38476886D01*
G37*
G36*
X180434267Y-38476886D02*
G01*
X180445262Y-38484233D01*
X180464199Y-38488000D01*
X181963801Y-38488000D01*
X181982738Y-38484233D01*
X181993733Y-38476886D01*
X181995729Y-38476755D01*
X181996840Y-38478418D01*
X181996507Y-38479660D01*
X181987291Y-38493452D01*
X181989031Y-38494615D01*
X181989916Y-38496409D01*
X181989455Y-38497560D01*
X181974922Y-38514952D01*
X181966296Y-38583670D01*
X181989082Y-38631288D01*
X181988928Y-38633282D01*
X181988389Y-38633814D01*
X181987291Y-38634548D01*
X181996507Y-38648340D01*
X181996638Y-38650336D01*
X181994975Y-38651447D01*
X181993733Y-38651114D01*
X181982738Y-38643767D01*
X181963801Y-38640000D01*
X180464199Y-38640000D01*
X180445262Y-38643767D01*
X180434267Y-38651114D01*
X180432271Y-38651245D01*
X180431160Y-38649582D01*
X180431493Y-38648340D01*
X180440709Y-38634548D01*
X180438969Y-38633385D01*
X180438084Y-38631591D01*
X180438545Y-38630440D01*
X180453078Y-38613048D01*
X180461704Y-38544330D01*
X180438918Y-38496712D01*
X180439072Y-38494718D01*
X180439611Y-38494186D01*
X180440709Y-38493452D01*
X180431493Y-38479660D01*
X180431362Y-38477664D01*
X180433025Y-38476553D01*
X180434267Y-38476886D01*
G37*
G36*
X176629660Y-35681493D02*
G01*
X176643452Y-35690709D01*
X176644615Y-35688969D01*
X176646409Y-35688084D01*
X176647560Y-35688545D01*
X176664952Y-35703078D01*
X176733670Y-35711704D01*
X176781288Y-35688918D01*
X176783282Y-35689072D01*
X176783814Y-35689611D01*
X176784548Y-35690709D01*
X176798340Y-35681493D01*
X176800336Y-35681362D01*
X176801447Y-35683025D01*
X176801114Y-35684267D01*
X176793767Y-35695262D01*
X176790000Y-35714199D01*
X176790000Y-37213801D01*
X176793767Y-37232738D01*
X176801114Y-37243733D01*
X176801245Y-37245729D01*
X176799582Y-37246840D01*
X176798340Y-37246507D01*
X176784548Y-37237291D01*
X176783385Y-37239031D01*
X176781591Y-37239916D01*
X176780440Y-37239455D01*
X176763048Y-37224922D01*
X176694330Y-37216296D01*
X176646712Y-37239082D01*
X176644718Y-37238928D01*
X176644186Y-37238389D01*
X176643452Y-37237291D01*
X176629660Y-37246507D01*
X176627664Y-37246638D01*
X176626553Y-37244975D01*
X176626886Y-37243733D01*
X176634233Y-37232738D01*
X176638000Y-37213801D01*
X176638000Y-35714199D01*
X176634233Y-35695262D01*
X176626886Y-35684267D01*
X176626755Y-35682271D01*
X176628418Y-35681160D01*
X176629660Y-35681493D01*
G37*
G36*
X175029660Y-35681493D02*
G01*
X175043452Y-35690709D01*
X175044615Y-35688969D01*
X175046409Y-35688084D01*
X175047560Y-35688545D01*
X175064952Y-35703078D01*
X175133670Y-35711704D01*
X175181288Y-35688918D01*
X175183282Y-35689072D01*
X175183814Y-35689611D01*
X175184548Y-35690709D01*
X175198340Y-35681493D01*
X175200336Y-35681362D01*
X175201447Y-35683025D01*
X175201114Y-35684267D01*
X175193767Y-35695262D01*
X175190000Y-35714199D01*
X175190000Y-37213801D01*
X175193767Y-37232738D01*
X175201114Y-37243733D01*
X175201245Y-37245729D01*
X175199582Y-37246840D01*
X175198340Y-37246507D01*
X175184548Y-37237291D01*
X175183385Y-37239031D01*
X175181591Y-37239916D01*
X175180440Y-37239455D01*
X175163048Y-37224922D01*
X175094330Y-37216296D01*
X175046712Y-37239082D01*
X175044718Y-37238928D01*
X175044186Y-37238389D01*
X175043452Y-37237291D01*
X175029660Y-37246507D01*
X175027664Y-37246638D01*
X175026553Y-37244975D01*
X175026886Y-37243733D01*
X175034233Y-37232738D01*
X175038000Y-37213801D01*
X175038000Y-35714199D01*
X175034233Y-35695262D01*
X175026886Y-35684267D01*
X175026755Y-35682271D01*
X175028418Y-35681160D01*
X175029660Y-35681493D01*
G37*
G36*
X171829660Y-35681493D02*
G01*
X171843452Y-35690709D01*
X171844615Y-35688969D01*
X171846409Y-35688084D01*
X171847560Y-35688545D01*
X171864952Y-35703078D01*
X171933670Y-35711704D01*
X171981288Y-35688918D01*
X171983282Y-35689072D01*
X171983814Y-35689611D01*
X171984548Y-35690709D01*
X171998340Y-35681493D01*
X172000336Y-35681362D01*
X172001447Y-35683025D01*
X172001114Y-35684267D01*
X171993767Y-35695262D01*
X171990000Y-35714199D01*
X171990000Y-37213801D01*
X171993767Y-37232738D01*
X172001114Y-37243733D01*
X172001245Y-37245729D01*
X171999582Y-37246840D01*
X171998340Y-37246507D01*
X171984548Y-37237291D01*
X171983385Y-37239031D01*
X171981591Y-37239916D01*
X171980440Y-37239455D01*
X171963048Y-37224922D01*
X171894330Y-37216296D01*
X171846712Y-37239082D01*
X171844718Y-37238928D01*
X171844186Y-37238389D01*
X171843452Y-37237291D01*
X171829660Y-37246507D01*
X171827664Y-37246638D01*
X171826553Y-37244975D01*
X171826886Y-37243733D01*
X171834233Y-37232738D01*
X171838000Y-37213801D01*
X171838000Y-35714199D01*
X171834233Y-35695262D01*
X171826886Y-35684267D01*
X171826755Y-35682271D01*
X171828418Y-35681160D01*
X171829660Y-35681493D01*
G37*
G36*
X177429660Y-35681493D02*
G01*
X177443452Y-35690709D01*
X177444615Y-35688969D01*
X177446409Y-35688084D01*
X177447560Y-35688545D01*
X177464952Y-35703078D01*
X177533670Y-35711704D01*
X177581288Y-35688918D01*
X177583282Y-35689072D01*
X177583814Y-35689611D01*
X177584548Y-35690709D01*
X177598340Y-35681493D01*
X177600336Y-35681362D01*
X177601447Y-35683025D01*
X177601114Y-35684267D01*
X177593767Y-35695262D01*
X177590000Y-35714199D01*
X177590000Y-37213801D01*
X177593767Y-37232738D01*
X177601114Y-37243733D01*
X177601245Y-37245729D01*
X177599582Y-37246840D01*
X177598340Y-37246507D01*
X177584548Y-37237291D01*
X177583385Y-37239031D01*
X177581591Y-37239916D01*
X177580440Y-37239455D01*
X177563048Y-37224922D01*
X177494330Y-37216296D01*
X177446712Y-37239082D01*
X177444718Y-37238928D01*
X177444186Y-37238389D01*
X177443452Y-37237291D01*
X177429660Y-37246507D01*
X177427664Y-37246638D01*
X177426553Y-37244975D01*
X177426886Y-37243733D01*
X177434233Y-37232738D01*
X177438000Y-37213801D01*
X177438000Y-35714199D01*
X177434233Y-35695262D01*
X177426886Y-35684267D01*
X177426755Y-35682271D01*
X177428418Y-35681160D01*
X177429660Y-35681493D01*
G37*
G36*
X174229660Y-35681493D02*
G01*
X174243452Y-35690709D01*
X174244615Y-35688969D01*
X174246409Y-35688084D01*
X174247560Y-35688545D01*
X174264952Y-35703078D01*
X174333670Y-35711704D01*
X174381288Y-35688918D01*
X174383282Y-35689072D01*
X174383814Y-35689611D01*
X174384548Y-35690709D01*
X174398340Y-35681493D01*
X174400336Y-35681362D01*
X174401447Y-35683025D01*
X174401114Y-35684267D01*
X174393767Y-35695262D01*
X174390000Y-35714199D01*
X174390000Y-37213801D01*
X174393767Y-37232738D01*
X174401114Y-37243733D01*
X174401245Y-37245729D01*
X174399582Y-37246840D01*
X174398340Y-37246507D01*
X174384548Y-37237291D01*
X174383385Y-37239031D01*
X174381591Y-37239916D01*
X174380440Y-37239455D01*
X174363048Y-37224922D01*
X174294330Y-37216296D01*
X174246712Y-37239082D01*
X174244718Y-37238928D01*
X174244186Y-37238389D01*
X174243452Y-37237291D01*
X174229660Y-37246507D01*
X174227664Y-37246638D01*
X174226553Y-37244975D01*
X174226886Y-37243733D01*
X174234233Y-37232738D01*
X174238000Y-37213801D01*
X174238000Y-35714199D01*
X174234233Y-35695262D01*
X174226886Y-35684267D01*
X174226755Y-35682271D01*
X174228418Y-35681160D01*
X174229660Y-35681493D01*
G37*
G36*
X178229660Y-35681493D02*
G01*
X178243452Y-35690709D01*
X178244615Y-35688969D01*
X178246409Y-35688084D01*
X178247560Y-35688545D01*
X178264952Y-35703078D01*
X178333670Y-35711704D01*
X178381288Y-35688918D01*
X178383282Y-35689072D01*
X178383814Y-35689611D01*
X178384548Y-35690709D01*
X178398340Y-35681493D01*
X178400336Y-35681362D01*
X178401447Y-35683025D01*
X178401114Y-35684267D01*
X178393767Y-35695262D01*
X178390000Y-35714199D01*
X178390000Y-37213801D01*
X178393767Y-37232738D01*
X178401114Y-37243733D01*
X178401245Y-37245729D01*
X178399582Y-37246840D01*
X178398340Y-37246507D01*
X178384548Y-37237291D01*
X178383385Y-37239031D01*
X178381591Y-37239916D01*
X178380440Y-37239455D01*
X178363048Y-37224922D01*
X178294330Y-37216296D01*
X178246712Y-37239082D01*
X178244718Y-37238928D01*
X178244186Y-37238389D01*
X178243452Y-37237291D01*
X178229660Y-37246507D01*
X178227664Y-37246638D01*
X178226553Y-37244975D01*
X178226886Y-37243733D01*
X178234233Y-37232738D01*
X178238000Y-37213801D01*
X178238000Y-35714199D01*
X178234233Y-35695262D01*
X178226886Y-35684267D01*
X178226755Y-35682271D01*
X178228418Y-35681160D01*
X178229660Y-35681493D01*
G37*
G36*
X175829660Y-35681493D02*
G01*
X175843452Y-35690709D01*
X175844615Y-35688969D01*
X175846409Y-35688084D01*
X175847560Y-35688545D01*
X175864952Y-35703078D01*
X175933670Y-35711704D01*
X175981288Y-35688918D01*
X175983282Y-35689072D01*
X175983814Y-35689611D01*
X175984548Y-35690709D01*
X175998340Y-35681493D01*
X176000336Y-35681362D01*
X176001447Y-35683025D01*
X176001114Y-35684267D01*
X175993767Y-35695262D01*
X175990000Y-35714199D01*
X175990000Y-37213801D01*
X175993767Y-37232738D01*
X176001114Y-37243733D01*
X176001245Y-37245729D01*
X175999582Y-37246840D01*
X175998340Y-37246507D01*
X175984548Y-37237291D01*
X175983385Y-37239031D01*
X175981591Y-37239916D01*
X175980440Y-37239455D01*
X175963048Y-37224922D01*
X175894330Y-37216296D01*
X175846712Y-37239082D01*
X175844718Y-37238928D01*
X175844186Y-37238389D01*
X175843452Y-37237291D01*
X175829660Y-37246507D01*
X175827664Y-37246638D01*
X175826553Y-37244975D01*
X175826886Y-37243733D01*
X175834233Y-37232738D01*
X175838000Y-37213801D01*
X175838000Y-35714199D01*
X175834233Y-35695262D01*
X175826886Y-35684267D01*
X175826755Y-35682271D01*
X175828418Y-35681160D01*
X175829660Y-35681493D01*
G37*
G36*
X172629660Y-35681493D02*
G01*
X172643452Y-35690709D01*
X172644615Y-35688969D01*
X172646409Y-35688084D01*
X172647560Y-35688545D01*
X172664952Y-35703078D01*
X172733670Y-35711704D01*
X172781288Y-35688918D01*
X172783282Y-35689072D01*
X172783814Y-35689611D01*
X172784548Y-35690709D01*
X172798340Y-35681493D01*
X172800336Y-35681362D01*
X172801447Y-35683025D01*
X172801114Y-35684267D01*
X172793767Y-35695262D01*
X172790000Y-35714199D01*
X172790000Y-37213801D01*
X172793767Y-37232738D01*
X172801114Y-37243733D01*
X172801245Y-37245729D01*
X172799582Y-37246840D01*
X172798340Y-37246507D01*
X172784548Y-37237291D01*
X172783385Y-37239031D01*
X172781591Y-37239916D01*
X172780440Y-37239455D01*
X172763048Y-37224922D01*
X172694330Y-37216296D01*
X172646712Y-37239082D01*
X172644718Y-37238928D01*
X172644186Y-37238389D01*
X172643452Y-37237291D01*
X172629660Y-37246507D01*
X172627664Y-37246638D01*
X172626553Y-37244975D01*
X172626886Y-37243733D01*
X172634233Y-37232738D01*
X172638000Y-37213801D01*
X172638000Y-35714199D01*
X172634233Y-35695262D01*
X172626886Y-35684267D01*
X172626755Y-35682271D01*
X172628418Y-35681160D01*
X172629660Y-35681493D01*
G37*
G36*
X173429660Y-35681493D02*
G01*
X173443452Y-35690709D01*
X173444615Y-35688969D01*
X173446409Y-35688084D01*
X173447560Y-35688545D01*
X173464952Y-35703078D01*
X173533670Y-35711704D01*
X173581288Y-35688918D01*
X173583282Y-35689072D01*
X173583814Y-35689611D01*
X173584548Y-35690709D01*
X173598340Y-35681493D01*
X173600336Y-35681362D01*
X173601447Y-35683025D01*
X173601114Y-35684267D01*
X173593767Y-35695262D01*
X173590000Y-35714199D01*
X173590000Y-37213801D01*
X173593767Y-37232738D01*
X173601114Y-37243733D01*
X173601245Y-37245729D01*
X173599582Y-37246840D01*
X173598340Y-37246507D01*
X173584548Y-37237291D01*
X173583385Y-37239031D01*
X173581591Y-37239916D01*
X173580440Y-37239455D01*
X173563048Y-37224922D01*
X173494330Y-37216296D01*
X173446712Y-37239082D01*
X173444718Y-37238928D01*
X173444186Y-37238389D01*
X173443452Y-37237291D01*
X173429660Y-37246507D01*
X173427664Y-37246638D01*
X173426553Y-37244975D01*
X173426886Y-37243733D01*
X173434233Y-37232738D01*
X173438000Y-37213801D01*
X173438000Y-35714199D01*
X173434233Y-35695262D01*
X173426886Y-35684267D01*
X173426755Y-35682271D01*
X173428418Y-35681160D01*
X173429660Y-35681493D01*
G37*
G36*
X179029660Y-35681493D02*
G01*
X179043452Y-35690709D01*
X179044615Y-35688969D01*
X179046409Y-35688084D01*
X179047560Y-35688545D01*
X179064952Y-35703078D01*
X179133670Y-35711704D01*
X179181288Y-35688918D01*
X179183282Y-35689072D01*
X179183814Y-35689611D01*
X179184548Y-35690709D01*
X179198340Y-35681493D01*
X179200336Y-35681362D01*
X179201447Y-35683025D01*
X179201114Y-35684267D01*
X179193767Y-35695262D01*
X179190000Y-35714199D01*
X179190000Y-37213801D01*
X179193767Y-37232738D01*
X179201114Y-37243733D01*
X179201245Y-37245729D01*
X179199582Y-37246840D01*
X179198340Y-37246507D01*
X179184548Y-37237291D01*
X179183385Y-37239031D01*
X179181591Y-37239916D01*
X179180440Y-37239455D01*
X179163048Y-37224922D01*
X179094330Y-37216296D01*
X179046712Y-37239082D01*
X179044718Y-37238928D01*
X179044186Y-37238389D01*
X179043452Y-37237291D01*
X179029660Y-37246507D01*
X179027664Y-37246638D01*
X179026553Y-37244975D01*
X179026886Y-37243733D01*
X179034233Y-37232738D01*
X179038000Y-37213801D01*
X179038000Y-35714199D01*
X179034233Y-35695262D01*
X179026886Y-35684267D01*
X179026755Y-35682271D01*
X179028418Y-35681160D01*
X179029660Y-35681493D01*
G37*
G36*
X341453656Y-32331915D02*
G01*
X341458876Y-32340433D01*
X341616736Y-32525264D01*
X341801567Y-32683124D01*
X342008810Y-32810123D01*
X342164440Y-32874587D01*
X342165658Y-32876174D01*
X342164893Y-32878022D01*
X342163016Y-32878323D01*
X342157096Y-32876256D01*
X342087628Y-32872753D01*
X342027551Y-32907216D01*
X341995644Y-32968686D01*
X342002054Y-33037844D01*
X342006930Y-33047299D01*
X342006835Y-33049297D01*
X342005057Y-33050214D01*
X342003514Y-33049363D01*
X341901886Y-32904223D01*
X341741777Y-32744114D01*
X341556299Y-32614241D01*
X341351081Y-32518547D01*
X341298174Y-32504370D01*
X341296760Y-32502956D01*
X341297278Y-32501024D01*
X341298801Y-32500441D01*
X341367004Y-32504179D01*
X341427229Y-32469979D01*
X341459403Y-32408648D01*
X341453298Y-32339498D01*
X341450203Y-32333932D01*
X341450235Y-32331932D01*
X341451983Y-32330960D01*
X341453656Y-32331915D01*
G37*
G36*
X173135913Y-29768117D02*
G01*
X173136477Y-29770036D01*
X173136196Y-29770675D01*
X173126047Y-29785863D01*
X173122280Y-29804799D01*
X173122280Y-32254401D01*
X173126047Y-32273338D01*
X173136094Y-32288373D01*
X173136225Y-32290368D01*
X173134562Y-32291480D01*
X173133833Y-32291393D01*
X173073492Y-32272498D01*
X173008590Y-32291555D01*
X173006647Y-32291083D01*
X173006083Y-32289164D01*
X173006364Y-32288525D01*
X173016513Y-32273337D01*
X173020280Y-32254401D01*
X173020280Y-29804799D01*
X173016513Y-29785862D01*
X173006466Y-29770827D01*
X173006335Y-29768832D01*
X173007998Y-29767720D01*
X173008727Y-29767807D01*
X173069068Y-29786702D01*
X173133970Y-29767645D01*
X173135913Y-29768117D01*
G37*
G36*
X175635913Y-29768117D02*
G01*
X175636477Y-29770036D01*
X175636196Y-29770675D01*
X175626047Y-29785863D01*
X175622280Y-29804799D01*
X175622280Y-32254401D01*
X175626047Y-32273338D01*
X175636094Y-32288373D01*
X175636225Y-32290368D01*
X175634562Y-32291480D01*
X175633833Y-32291393D01*
X175573492Y-32272498D01*
X175508590Y-32291555D01*
X175506647Y-32291083D01*
X175506083Y-32289164D01*
X175506364Y-32288525D01*
X175516513Y-32273337D01*
X175520280Y-32254401D01*
X175520280Y-29804799D01*
X175516513Y-29785862D01*
X175506466Y-29770827D01*
X175506335Y-29768832D01*
X175507998Y-29767720D01*
X175508727Y-29767807D01*
X175569068Y-29786702D01*
X175633970Y-29767645D01*
X175635913Y-29768117D01*
G37*
G36*
X174135913Y-29768117D02*
G01*
X174136477Y-29770036D01*
X174136196Y-29770675D01*
X174126047Y-29785863D01*
X174122280Y-29804799D01*
X174122280Y-32254401D01*
X174126047Y-32273338D01*
X174136094Y-32288373D01*
X174136225Y-32290368D01*
X174134562Y-32291480D01*
X174133833Y-32291393D01*
X174073492Y-32272498D01*
X174008590Y-32291555D01*
X174006647Y-32291083D01*
X174006083Y-32289164D01*
X174006364Y-32288525D01*
X174016513Y-32273337D01*
X174020280Y-32254401D01*
X174020280Y-29804799D01*
X174016513Y-29785862D01*
X174006466Y-29770827D01*
X174006335Y-29768832D01*
X174007998Y-29767720D01*
X174008727Y-29767807D01*
X174069068Y-29786702D01*
X174133970Y-29767645D01*
X174135913Y-29768117D01*
G37*
G36*
X175135913Y-29768117D02*
G01*
X175136477Y-29770036D01*
X175136196Y-29770675D01*
X175126047Y-29785863D01*
X175122280Y-29804799D01*
X175122280Y-32254401D01*
X175126047Y-32273338D01*
X175136094Y-32288373D01*
X175136225Y-32290368D01*
X175134562Y-32291480D01*
X175133833Y-32291393D01*
X175073492Y-32272498D01*
X175008590Y-32291555D01*
X175006647Y-32291083D01*
X175006083Y-32289164D01*
X175006364Y-32288525D01*
X175016513Y-32273337D01*
X175020280Y-32254401D01*
X175020280Y-29804799D01*
X175016513Y-29785862D01*
X175006466Y-29770827D01*
X175006335Y-29768832D01*
X175007998Y-29767720D01*
X175008727Y-29767807D01*
X175069068Y-29786702D01*
X175133970Y-29767645D01*
X175135913Y-29768117D01*
G37*
G36*
X171285913Y-29768117D02*
G01*
X171286477Y-29770036D01*
X171286196Y-29770675D01*
X171276047Y-29785863D01*
X171272280Y-29804799D01*
X171272280Y-32254401D01*
X171276047Y-32273338D01*
X171286094Y-32288373D01*
X171286225Y-32290368D01*
X171284562Y-32291480D01*
X171283833Y-32291393D01*
X171223492Y-32272498D01*
X171158590Y-32291555D01*
X171156647Y-32291083D01*
X171156083Y-32289164D01*
X171156364Y-32288525D01*
X171166513Y-32273337D01*
X171170280Y-32254401D01*
X171170280Y-29804799D01*
X171166513Y-29785862D01*
X171156466Y-29770827D01*
X171156335Y-29768832D01*
X171157998Y-29767720D01*
X171158727Y-29767807D01*
X171219068Y-29786702D01*
X171283970Y-29767645D01*
X171285913Y-29768117D01*
G37*
G36*
X173635913Y-29768117D02*
G01*
X173636477Y-29770036D01*
X173636196Y-29770675D01*
X173626047Y-29785863D01*
X173622280Y-29804799D01*
X173622280Y-32254401D01*
X173626047Y-32273338D01*
X173636094Y-32288373D01*
X173636225Y-32290368D01*
X173634562Y-32291480D01*
X173633833Y-32291393D01*
X173573492Y-32272498D01*
X173508590Y-32291555D01*
X173506647Y-32291083D01*
X173506083Y-32289164D01*
X173506364Y-32288525D01*
X173516513Y-32273337D01*
X173520280Y-32254401D01*
X173520280Y-29804799D01*
X173516513Y-29785862D01*
X173506466Y-29770827D01*
X173506335Y-29768832D01*
X173507998Y-29767720D01*
X173508727Y-29767807D01*
X173569068Y-29786702D01*
X173633970Y-29767645D01*
X173635913Y-29768117D01*
G37*
G36*
X176985913Y-29768117D02*
G01*
X176986477Y-29770036D01*
X176986196Y-29770675D01*
X176976047Y-29785863D01*
X176972280Y-29804799D01*
X176972280Y-32254401D01*
X176976047Y-32273338D01*
X176986094Y-32288373D01*
X176986225Y-32290368D01*
X176984562Y-32291480D01*
X176983833Y-32291393D01*
X176923492Y-32272498D01*
X176858590Y-32291555D01*
X176856647Y-32291083D01*
X176856083Y-32289164D01*
X176856364Y-32288525D01*
X176866513Y-32273337D01*
X176870280Y-32254401D01*
X176870280Y-29804799D01*
X176866513Y-29785862D01*
X176856466Y-29770827D01*
X176856335Y-29768832D01*
X176857998Y-29767720D01*
X176858727Y-29767807D01*
X176919068Y-29786702D01*
X176983970Y-29767645D01*
X176985913Y-29768117D01*
G37*
G36*
X172635913Y-29768117D02*
G01*
X172636477Y-29770036D01*
X172636196Y-29770675D01*
X172626047Y-29785863D01*
X172622280Y-29804799D01*
X172622280Y-32254401D01*
X172626047Y-32273338D01*
X172636094Y-32288373D01*
X172636225Y-32290368D01*
X172634562Y-32291480D01*
X172633833Y-32291393D01*
X172573492Y-32272498D01*
X172508590Y-32291555D01*
X172506647Y-32291083D01*
X172506083Y-32289164D01*
X172506364Y-32288525D01*
X172516513Y-32273337D01*
X172520280Y-32254401D01*
X172520280Y-29804799D01*
X172516513Y-29785862D01*
X172506466Y-29770827D01*
X172506335Y-29768832D01*
X172507998Y-29767720D01*
X172508727Y-29767807D01*
X172569068Y-29786702D01*
X172633970Y-29767645D01*
X172635913Y-29768117D01*
G37*
G36*
X174635913Y-29768117D02*
G01*
X174636477Y-29770036D01*
X174636196Y-29770675D01*
X174626047Y-29785863D01*
X174622280Y-29804799D01*
X174622280Y-32254401D01*
X174626047Y-32273338D01*
X174636094Y-32288373D01*
X174636225Y-32290368D01*
X174634562Y-32291480D01*
X174633833Y-32291393D01*
X174573492Y-32272498D01*
X174508590Y-32291555D01*
X174506647Y-32291083D01*
X174506083Y-32289164D01*
X174506364Y-32288525D01*
X174516513Y-32273337D01*
X174520280Y-32254401D01*
X174520280Y-29804799D01*
X174516513Y-29785862D01*
X174506466Y-29770827D01*
X174506335Y-29768832D01*
X174507998Y-29767720D01*
X174508727Y-29767807D01*
X174569068Y-29786702D01*
X174633970Y-29767645D01*
X174635913Y-29768117D01*
G37*
G36*
X171961940Y-29772093D02*
G01*
X171975732Y-29781309D01*
X171976895Y-29779569D01*
X171978689Y-29778684D01*
X171979840Y-29779145D01*
X171997232Y-29793678D01*
X172065950Y-29802304D01*
X172113568Y-29779518D01*
X172115562Y-29779672D01*
X172116094Y-29780211D01*
X172116828Y-29781309D01*
X172130620Y-29772093D01*
X172132616Y-29771962D01*
X172133727Y-29773625D01*
X172133394Y-29774867D01*
X172126047Y-29785862D01*
X172122280Y-29804799D01*
X172122280Y-32254401D01*
X172126047Y-32273338D01*
X172133394Y-32284333D01*
X172133525Y-32286329D01*
X172131862Y-32287440D01*
X172130620Y-32287107D01*
X172116828Y-32277891D01*
X172115665Y-32279631D01*
X172113871Y-32280516D01*
X172112720Y-32280055D01*
X172095328Y-32265522D01*
X172026610Y-32256896D01*
X171978992Y-32279682D01*
X171976998Y-32279528D01*
X171976466Y-32278989D01*
X171975732Y-32277891D01*
X171961940Y-32287107D01*
X171959944Y-32287238D01*
X171958833Y-32285575D01*
X171959166Y-32284333D01*
X171966513Y-32273338D01*
X171970280Y-32254401D01*
X171970280Y-29804799D01*
X171966513Y-29785862D01*
X171959166Y-29774867D01*
X171959035Y-29772871D01*
X171960698Y-29771760D01*
X171961940Y-29772093D01*
G37*
G36*
X176011940Y-29772093D02*
G01*
X176025732Y-29781309D01*
X176026895Y-29779569D01*
X176028689Y-29778684D01*
X176029840Y-29779145D01*
X176047232Y-29793678D01*
X176115950Y-29802304D01*
X176163568Y-29779518D01*
X176165562Y-29779672D01*
X176166094Y-29780211D01*
X176166828Y-29781309D01*
X176180620Y-29772093D01*
X176182616Y-29771962D01*
X176183727Y-29773625D01*
X176183394Y-29774867D01*
X176176047Y-29785862D01*
X176172280Y-29804799D01*
X176172280Y-32254401D01*
X176176047Y-32273338D01*
X176183394Y-32284333D01*
X176183525Y-32286329D01*
X176181862Y-32287440D01*
X176180620Y-32287107D01*
X176166828Y-32277891D01*
X176165665Y-32279631D01*
X176163871Y-32280516D01*
X176162720Y-32280055D01*
X176145328Y-32265522D01*
X176076610Y-32256896D01*
X176028992Y-32279682D01*
X176026998Y-32279528D01*
X176026466Y-32278989D01*
X176025732Y-32277891D01*
X176011940Y-32287107D01*
X176009944Y-32287238D01*
X176008833Y-32285575D01*
X176009166Y-32284333D01*
X176016513Y-32273338D01*
X176020280Y-32254401D01*
X176020280Y-29804799D01*
X176016513Y-29785862D01*
X176009166Y-29774867D01*
X176009035Y-29772871D01*
X176010698Y-29771760D01*
X176011940Y-29772093D01*
G37*
G36*
X167225068Y-30760265D02*
G01*
X167225458Y-30762227D01*
X167225099Y-30762867D01*
X167181911Y-30814546D01*
X167173280Y-30883261D01*
X167203244Y-30945891D01*
X167224082Y-30963948D01*
X167224736Y-30965838D01*
X167223426Y-30967349D01*
X167222382Y-30967421D01*
X167208201Y-30964600D01*
X165648599Y-30964600D01*
X165633626Y-30967578D01*
X165631732Y-30966935D01*
X165631342Y-30964973D01*
X165631701Y-30964333D01*
X165674889Y-30912654D01*
X165683520Y-30843939D01*
X165653556Y-30781309D01*
X165632718Y-30763252D01*
X165632064Y-30761362D01*
X165633374Y-30759851D01*
X165634418Y-30759779D01*
X165648599Y-30762600D01*
X167208201Y-30762600D01*
X167223174Y-30759622D01*
X167225068Y-30760265D01*
G37*
G36*
X164525068Y-30760265D02*
G01*
X164525458Y-30762227D01*
X164525099Y-30762867D01*
X164481911Y-30814546D01*
X164473280Y-30883261D01*
X164503244Y-30945891D01*
X164524082Y-30963948D01*
X164524736Y-30965838D01*
X164523426Y-30967349D01*
X164522382Y-30967421D01*
X164508201Y-30964600D01*
X162948599Y-30964600D01*
X162933626Y-30967578D01*
X162931732Y-30966935D01*
X162931342Y-30964973D01*
X162931701Y-30964333D01*
X162974889Y-30912654D01*
X162983520Y-30843939D01*
X162953556Y-30781309D01*
X162932718Y-30763252D01*
X162932064Y-30761362D01*
X162933374Y-30759851D01*
X162934418Y-30759779D01*
X162948599Y-30762600D01*
X164508201Y-30762600D01*
X164523174Y-30759622D01*
X164525068Y-30760265D01*
G37*
G36*
X170304199Y-29659241D02*
G01*
X170323876Y-29726256D01*
X170376219Y-29771611D01*
X170444838Y-29781477D01*
X170485877Y-29765751D01*
X170487853Y-29766065D01*
X170488568Y-29767933D01*
X170487704Y-29769282D01*
X170486660Y-29769980D01*
X170476047Y-29785862D01*
X170472280Y-29804799D01*
X170472280Y-30486546D01*
X170471280Y-30488278D01*
X170469280Y-30488278D01*
X170468361Y-30487109D01*
X170448684Y-30420094D01*
X170396341Y-30374739D01*
X170327788Y-30364882D01*
X170264632Y-30393725D01*
X170244577Y-30415923D01*
X170206746Y-30469752D01*
X170204932Y-30470594D01*
X170203296Y-30469444D01*
X170203410Y-30467548D01*
X170252799Y-30387891D01*
X170294389Y-30244736D01*
X170300280Y-30164522D01*
X170300280Y-29659804D01*
X170301280Y-29658072D01*
X170303280Y-29658072D01*
X170304199Y-29659241D01*
G37*
G36*
X177841638Y-29658336D02*
G01*
X177842280Y-29659804D01*
X177842280Y-30164468D01*
X177862520Y-30312229D01*
X177913596Y-30430258D01*
X177913366Y-30432244D01*
X177911530Y-30433039D01*
X177910112Y-30432185D01*
X177898806Y-30415735D01*
X177844856Y-30371835D01*
X177776029Y-30364104D01*
X177713950Y-30394810D01*
X177678241Y-30454348D01*
X177674264Y-30485413D01*
X177673052Y-30487004D01*
X177671068Y-30486750D01*
X177670280Y-30485159D01*
X177670280Y-29804799D01*
X177666513Y-29785862D01*
X177655900Y-29769980D01*
X177652857Y-29767946D01*
X177651972Y-29766152D01*
X177653084Y-29764489D01*
X177654566Y-29764374D01*
X177713089Y-29782699D01*
X177779879Y-29764375D01*
X177826205Y-29712801D01*
X177838330Y-29659361D01*
X177839688Y-29657894D01*
X177841638Y-29658336D01*
G37*
G36*
X164525068Y-29810265D02*
G01*
X164525458Y-29812227D01*
X164525099Y-29812867D01*
X164481911Y-29864546D01*
X164473280Y-29933261D01*
X164503244Y-29995891D01*
X164524082Y-30013948D01*
X164524736Y-30015838D01*
X164523426Y-30017349D01*
X164522382Y-30017421D01*
X164508201Y-30014600D01*
X162948599Y-30014600D01*
X162933626Y-30017578D01*
X162931732Y-30016935D01*
X162931342Y-30014973D01*
X162931701Y-30014333D01*
X162974889Y-29962654D01*
X162983520Y-29893939D01*
X162953556Y-29831309D01*
X162932718Y-29813252D01*
X162932064Y-29811362D01*
X162933374Y-29809851D01*
X162934418Y-29809779D01*
X162948599Y-29812600D01*
X164508201Y-29812600D01*
X164523174Y-29809622D01*
X164525068Y-29810265D01*
G37*
G36*
X167225068Y-29810265D02*
G01*
X167225458Y-29812227D01*
X167225099Y-29812867D01*
X167181911Y-29864546D01*
X167173280Y-29933261D01*
X167203244Y-29995891D01*
X167224082Y-30013948D01*
X167224736Y-30015838D01*
X167223426Y-30017349D01*
X167222382Y-30017421D01*
X167208201Y-30014600D01*
X165648599Y-30014600D01*
X165633626Y-30017578D01*
X165631732Y-30016935D01*
X165631342Y-30014973D01*
X165631701Y-30014333D01*
X165674889Y-29962654D01*
X165683520Y-29893939D01*
X165653556Y-29831309D01*
X165632718Y-29813252D01*
X165632064Y-29811362D01*
X165633374Y-29809851D01*
X165634418Y-29809779D01*
X165648599Y-29812600D01*
X167208201Y-29812600D01*
X167223174Y-29809622D01*
X167225068Y-29810265D01*
G37*
M02*
